<svg width="38" height="38" viewBox="0 0 38 38" fill="none" xmlns="http://www.w3.org/2000/svg">
<path d="M18.9756 37.8448C29.4555 37.8448 37.9512 29.373 37.9512 18.9224C37.9512 8.47185 29.4555 0 18.9756 0C8.49567 0 0 8.47185 0 18.9224C0 29.373 8.49567 37.8448 18.9756 37.8448Z" fill="#0047BA"/>
<path d="M18.9756 2.30737C23.5764 2.30737 27.7419 4.16716 30.7572 7.17381C33.7723 10.1806 35.6373 14.3344 35.6373 18.9223C35.6373 23.5103 33.7723 27.6641 30.7572 30.6709C27.7419 33.6775 23.5764 35.5373 18.9756 35.5373C14.3748 35.5373 10.2093 33.6775 7.19408 30.6709C4.17898 27.6641 2.31396 23.5103 2.31396 18.9223C2.31396 14.3344 4.17898 10.1806 7.19408 7.17381C10.2093 4.16716 14.3748 2.30737 18.9756 2.30737ZM29.7272 8.20095C26.9757 5.45735 23.1742 3.7602 18.9756 3.7602C14.777 3.7602 10.9756 5.4575 8.22411 8.20095C5.47279 10.9447 3.77087 14.7355 3.77087 18.9223C3.77087 23.1092 5.47294 26.9 8.22411 29.6437C10.9756 32.3873 14.777 34.0845 18.9756 34.0845C23.1742 34.0845 26.9757 32.3872 29.7272 29.6437C32.4785 26.9 34.1804 23.1092 34.1804 18.9223C34.1804 14.7355 32.4783 10.9447 29.7272 8.20095Z" fill="#FEFEFE"/>
<path d="M19.4701 24.945L26.4789 9.84351H29.9462V10.8298C26.5653 18.026 23.1855 25.2225 19.8012 32.4169H18.1497L8.00488 10.8298V9.84351H11.4092L18.5133 25.0337L18.9714 26.022C19.1281 25.6763 19.3088 25.2899 19.4701 24.9449V24.945Z" fill="#FEFEFE"/>
</svg>
