<svg width="275" height="100" viewBox="0 0 275 100" fill="none" xmlns="http://www.w3.org/2000/svg">
<g clip-path="url(#clip0_1818_7318)">
<path d="M47.144 41.3469L36.6474 30.7094C36.4294 30.4847 36.1694 30.3063 35.8827 30.1845C35.596 30.0627 35.2883 30 34.9773 30C34.6664 30 34.3586 30.0627 34.0719 30.1845C33.7852 30.3063 33.5252 30.4847 33.3072 30.7094L24.5225 39.6332L9.86312 54.4851C9.64245 54.7067 9.46729 54.9703 9.34775 55.2608C9.22821 55.5513 9.16666 55.8629 9.16666 56.1777C9.16666 56.4923 9.22821 56.8041 9.34775 57.0946C9.46729 57.3851 9.64245 57.6487 9.86312 57.8701L20.3639 68.4908C20.5819 68.7154 20.8418 68.8939 21.1286 69.0156C21.4153 69.1374 21.7231 69.2002 22.034 69.2002C22.3449 69.2002 22.6527 69.1374 22.9394 69.0156C23.2261 68.8939 23.4861 68.7154 23.7041 68.4908L36.8228 55.1748L47.144 44.7108C47.3625 44.4902 47.5359 44.2281 47.6543 43.9395C47.7725 43.6509 47.8334 43.3414 47.8334 43.0289C47.8334 42.7163 47.7725 42.4068 47.6543 42.1182C47.5359 41.8296 47.3625 41.5675 47.144 41.3469Z" fill="white"/>
<path d="M46.4051 42.1041L35.9002 31.4623C35.6568 31.2166 35.3272 31.0786 34.9837 31.0786C34.6401 31.0786 34.3106 31.2166 34.0673 31.4623L22.7105 42.9715L35.0651 55.4665L46.4051 43.9743C46.527 43.8519 46.6239 43.7062 46.69 43.5458C46.756 43.3853 46.79 43.2131 46.79 43.0392C46.79 42.8653 46.756 42.6931 46.69 42.5326C46.6239 42.3721 46.527 42.2264 46.4051 42.1041ZM37.1527 45.1802C36.6553 45.6854 36.0002 46.0002 35.2993 46.0708C34.5984 46.1414 33.8951 45.9634 33.3093 45.5673C32.7233 45.1712 32.2911 44.5814 32.0862 43.8986C31.8813 43.2156 31.9164 42.4819 32.1856 41.8223C32.4548 41.1627 32.9413 40.6182 33.5624 40.2815C34.1834 39.9447 34.9004 39.8367 35.5912 39.9757C36.282 40.1148 36.904 40.4923 37.3509 41.044C37.7978 41.5957 38.0421 42.2873 38.0421 43.001C38.0432 43.4059 37.9653 43.8068 37.8125 44.1808C37.66 44.5549 37.4356 44.8946 37.1527 45.1802Z" fill="#D8D8D8"/>
<path d="M10.6057 55.2383C10.3633 55.485 10.2271 55.819 10.2271 56.1671C10.2271 56.5152 10.3633 56.8492 10.6057 57.0959L21.1065 67.7376C21.2267 67.8598 21.3696 67.9568 21.5268 68.0228C21.6841 68.089 21.8527 68.123 22.023 68.123C22.1932 68.123 22.3619 68.089 22.5191 68.0228C22.6764 67.9568 22.8192 67.8598 22.9395 67.7376L34.2878 56.2454L21.9541 43.7377L10.6057 55.2383ZM19.6994 58.3018C19.2019 58.807 18.5469 59.1218 17.846 59.1924C17.1452 59.2629 16.4418 59.085 15.8559 58.6889C15.27 58.2928 14.8378 57.7031 14.6329 57.0202C14.428 56.3373 14.4631 55.6035 14.7323 54.9439C15.0015 54.2843 15.4881 53.7398 16.1091 53.403C16.7301 53.0663 17.4471 52.9583 18.1379 53.0974C18.8288 53.2363 19.4506 53.6138 19.8975 54.1656C20.3444 54.7172 20.5887 55.4089 20.5888 56.1227C20.5892 56.5274 20.5109 56.9281 20.3583 57.302C20.2057 57.676 19.9818 58.0157 19.6994 58.3018ZM24.3256 54.0705C24.8232 53.5684 25.4771 53.2565 26.1761 53.1882C26.875 53.1198 27.5758 53.2992 28.1588 53.6958C28.7419 54.0923 29.1713 54.6814 29.3739 55.3628C29.5765 56.0441 29.5396 56.7756 29.2697 57.4325C28.9999 58.0894 28.5136 58.6313 27.8937 58.9657C27.2739 59.3 26.5588 59.4062 25.8703 59.2662C25.1819 59.1262 24.5626 58.7487 24.118 58.1978C23.6735 57.647 23.4311 56.9571 23.4321 56.2454C23.4322 55.8405 23.5112 55.4396 23.6645 55.0655C23.8179 54.6915 24.0424 54.352 24.3256 54.0663V54.0705Z" fill="#D8D8D8"/>
<path d="M28.2096 68.0549V66.3624H27.6084V65.9773H29.2451V66.3666H28.6481V68.0592L28.2096 68.0549Z" fill="#F8F8F8"/>
<path d="M31.3072 68.0549V66.5569L30.7227 68.0549H30.5348L29.9585 66.5569V68.0549H29.5202V65.9773H30.1298L30.6266 67.2763L31.1277 65.9773H31.7248V68.0549H31.3072Z" fill="#F8F8F8"/>
<path d="M64.625 42.1019H55.8707C55.8016 42.1019 55.7333 42.1156 55.6695 42.1422C55.6056 42.1687 55.5477 42.2077 55.4991 42.2567C55.4503 42.3058 55.412 42.364 55.3858 42.428C55.3598 42.492 55.3466 42.5605 55.3472 42.6296V62.3324C55.3472 62.4009 55.3607 62.4689 55.3871 62.5321C55.4135 62.5954 55.4521 62.6529 55.5007 62.7011C55.5495 62.7494 55.6072 62.7877 55.6708 62.8134C55.7342 62.8393 55.8023 62.8523 55.8707 62.8518H64.6537C71.5507 62.8518 76.0095 58.7616 76.0095 52.4626C76.0095 46.1635 71.5424 42.1019 64.625 42.1019ZM64.625 57.3832H61.6347V47.5665H64.6537C67.7708 47.5665 69.632 49.3908 69.632 52.4503C69.6466 53.1073 69.5263 53.7602 69.2786 54.3687C69.0307 54.9773 68.6608 55.5287 68.1915 55.9887C67.7223 56.4487 67.1637 56.8076 66.5502 57.0433C65.9369 57.2788 65.2816 57.3862 64.625 57.3587" fill="#D8D8D8"/>
<path d="M114.815 47.456C113.791 47.4505 112.781 47.6878 111.867 48.1486C110.953 48.6094 110.162 49.2803 109.558 50.1066C108.916 48.3518 107.459 47.4642 105.234 47.4642C102.78 47.4642 100.906 48.6912 100.256 49.5461V48.36C100.256 48.2211 100.2 48.088 100.102 47.9898C100.004 47.8916 99.8709 47.8365 99.732 47.8365H95.1749C95.1063 47.8365 95.0385 47.85 94.9752 47.8764C94.9118 47.9027 94.8545 47.9413 94.8061 47.9901C94.7578 48.0387 94.7196 48.0964 94.6938 48.16C94.6679 48.2234 94.6549 48.2915 94.6554 48.36V62.3324C94.6554 62.4006 94.6688 62.468 94.6949 62.5311C94.7211 62.5941 94.7594 62.6514 94.8076 62.6997C94.8559 62.7478 94.9131 62.7861 94.9761 62.8122C95.0391 62.8384 95.1067 62.8518 95.1749 62.8518H99.732C99.8702 62.8518 100.003 62.7972 100.101 62.6999C100.199 62.6026 100.255 62.4704 100.256 62.3324V53.5833C100.519 53.2268 100.861 52.9354 101.254 52.7313C101.648 52.5272 102.083 52.4157 102.526 52.4053C103.63 52.4053 104.236 53.0024 104.236 54.0864V62.3324C104.237 62.4704 104.293 62.6026 104.391 62.6999C104.489 62.7972 104.621 62.8518 104.76 62.8518H109.313C109.381 62.8523 109.45 62.8393 109.513 62.8135C109.577 62.7877 109.635 62.7496 109.684 62.7013C109.733 62.6531 109.772 62.5957 109.799 62.5323C109.826 62.4691 109.84 62.4011 109.84 62.3324V53.5833C110.106 53.2216 110.452 52.9266 110.851 52.7215C111.249 52.5163 111.691 52.4067 112.139 52.4011C113.227 52.4011 113.853 53.0148 113.853 54.0822V62.3324C113.853 62.4008 113.867 62.4688 113.893 62.5321C113.92 62.5954 113.958 62.6528 114.007 62.7011C114.056 62.7493 114.113 62.7876 114.177 62.8134C114.24 62.8393 114.308 62.8523 114.377 62.8518H118.93C119.068 62.8518 119.201 62.7972 119.299 62.6999C119.397 62.6026 119.452 62.4704 119.454 62.3324V51.9676C119.454 49.0554 117.817 47.4683 114.815 47.4683" fill="#D8D8D8"/>
<path d="M126.813 47.8286H122.268C122.199 47.828 122.13 47.8411 122.066 47.8673C122.002 47.8933 121.944 47.9318 121.895 47.9805C121.846 48.0291 121.807 48.0871 121.781 48.1509C121.754 48.2146 121.74 48.283 121.74 48.3522V62.3326C121.741 62.4015 121.755 62.4694 121.782 62.5327C121.809 62.596 121.848 62.6535 121.897 62.7017C121.946 62.75 122.004 62.788 122.067 62.8139C122.131 62.8396 122.199 62.8526 122.268 62.8521H126.821C126.959 62.8521 127.092 62.7976 127.19 62.7002C127.288 62.6029 127.344 62.4708 127.345 62.3326V48.3522C127.345 48.2133 127.289 48.0801 127.191 47.982C127.093 47.8837 126.96 47.8286 126.821 47.8286" fill="#D8D8D8"/>
<path d="M124.673 40.4534C124.051 40.4526 123.442 40.6365 122.924 40.9818C122.406 41.3271 122.002 41.8183 121.763 42.3932C121.525 42.9681 121.462 43.6008 121.584 44.2114C121.705 44.822 122.004 45.3828 122.445 45.8229C122.885 46.2631 123.446 46.5627 124.056 46.684C124.667 46.8052 125.3 46.7426 125.875 46.504C126.45 46.2654 126.941 45.8617 127.286 45.3437C127.632 44.8258 127.816 44.2171 127.815 43.5946C127.813 42.7622 127.481 41.9645 126.892 41.3758C126.304 40.7872 125.506 40.4555 124.673 40.4534Z" fill="#D8D8D8"/>
<path d="M140.471 47.4559C137.571 47.4559 135.992 48.7607 135.309 49.5379V48.3517C135.309 48.2129 135.254 48.0797 135.156 47.9815C135.058 47.8834 134.925 47.8282 134.786 47.8282H130.233C130.094 47.8282 129.961 47.8834 129.862 47.9815C129.764 48.0797 129.709 48.2129 129.709 48.3517V62.3323C129.71 62.4705 129.766 62.6026 129.864 62.6998C129.962 62.7971 130.095 62.8517 130.233 62.8517H134.786C134.854 62.8523 134.922 62.8392 134.986 62.8134C135.049 62.7875 135.107 62.7494 135.156 62.701C135.204 62.6527 135.243 62.5953 135.269 62.532C135.296 62.4687 135.309 62.4009 135.309 62.3323V53.5832C135.591 53.214 135.953 52.915 136.369 52.7099C136.784 52.5047 137.243 52.399 137.706 52.401C139.15 52.401 139.883 53.125 139.883 54.5444V62.3159C139.883 62.3844 139.897 62.4524 139.923 62.5157C139.95 62.579 139.988 62.6364 140.037 62.6847C140.085 62.7329 140.143 62.7711 140.206 62.797C140.269 62.8229 140.337 62.8359 140.407 62.8354H144.959C145.027 62.8359 145.096 62.8229 145.16 62.797C145.223 62.7711 145.281 62.7329 145.329 62.6847C145.379 62.6364 145.416 62.579 145.443 62.5157C145.47 62.4524 145.483 62.3844 145.483 62.3159V52.1843C145.483 49.2229 143.614 47.4559 140.471 47.4559Z" fill="#D8D8D8"/>
<path d="M85.0418 47.387C83.4729 47.387 81.9392 47.8523 80.6346 48.724C79.3301 49.5955 78.3135 50.8345 77.7133 52.2839C77.1131 53.7334 76.9562 55.3282 77.2626 56.8668C77.5689 58.4054 78.3248 59.8185 79.4346 60.9276C80.5442 62.0366 81.958 62.7915 83.4969 63.0972C85.0358 63.4028 86.6308 63.2451 88.0801 62.6441C89.5294 62.0433 90.7679 61.0261 91.639 59.7213C92.5101 58.4165 92.9745 56.8827 92.9738 55.3139C92.9726 53.2112 92.1366 51.195 90.6491 49.7086C89.1617 48.222 87.1447 47.387 85.0418 47.387ZM85.0418 57.9112C84.5061 57.9121 83.982 57.754 83.5361 57.4569C83.0903 57.1598 82.7425 56.7373 82.537 56.2425C82.3314 55.7479 82.2772 55.2032 82.3812 54.6778C82.4852 54.1522 82.7428 53.6693 83.1213 53.2903C83.5 52.9112 83.9825 52.6529 84.5079 52.5481C85.0333 52.4432 85.5781 52.4966 86.0731 52.7015C86.5681 52.9063 86.9914 53.2534 87.2891 53.6988C87.5868 54.1441 87.7459 54.6678 87.7459 55.2035C87.7459 55.9209 87.461 56.6091 86.9541 57.1167C86.4471 57.6244 85.7594 57.9102 85.0418 57.9112Z" fill="#D8D8D8"/>
<path d="M155.076 47.411C153.507 47.4127 151.973 47.8793 150.67 48.7519C149.366 49.6245 148.352 50.864 147.752 52.3136C147.153 53.7631 146.998 55.3578 147.305 56.8958C147.612 58.4339 148.368 59.8463 149.479 60.9544C150.589 62.0627 152.002 62.8169 153.541 63.1218C155.081 63.4267 156.675 63.2686 158.123 62.6674C159.572 62.0662 160.81 61.049 161.682 59.7445C162.552 58.4398 163.015 56.9064 163.015 55.338C163.015 54.2959 162.81 53.2642 162.41 52.3016C162.011 51.3391 161.426 50.4646 160.689 49.7285C159.951 48.9922 159.076 48.4085 158.113 48.0109C157.15 47.6132 156.118 47.4094 155.076 47.411ZM155.076 57.9353C154.54 57.9353 154.016 57.7765 153.571 57.4792C153.125 57.1819 152.779 56.7592 152.573 56.2647C152.369 55.7701 152.314 55.2259 152.419 54.7007C152.523 54.1756 152.78 53.6931 153.159 53.3143C153.537 52.9354 154.02 52.6772 154.544 52.5722C155.069 52.4673 155.614 52.5203 156.109 52.7247C156.604 52.9291 157.027 53.2754 157.325 53.7202C157.623 54.1649 157.782 54.6881 157.784 55.2234C157.784 55.5793 157.714 55.9319 157.578 56.2609C157.443 56.5898 157.243 56.8888 156.992 57.1407C156.74 57.3925 156.441 57.5924 156.113 57.7288C155.784 57.8651 155.43 57.9353 155.076 57.9353Z" fill="#D8D8D8"/>
<path d="M167.266 42.9241C167.059 42.1317 166.559 41.4478 165.865 41.0117C165.172 40.5755 164.338 40.4198 163.535 40.5763C162.741 40.7152 162.035 41.163 161.571 41.8216C161.107 42.4803 160.924 43.296 161.06 44.0899C161.205 44.7267 161.558 45.2975 162.062 45.7138C162.566 46.1302 163.192 46.3688 163.845 46.3926C163.78 46.6518 163.661 46.8945 163.497 47.1057C163.333 47.3167 163.127 47.4918 162.893 47.6198C162.821 47.6638 162.771 47.7338 162.75 47.8149C162.731 47.8959 162.744 47.9815 162.786 48.0534L163.134 48.5687C163.167 48.6502 163.232 48.7155 163.312 48.7506C163.393 48.7857 163.485 48.788 163.568 48.7568C167.098 47.3334 167.675 44.319 167.266 42.9241Z" fill="#D8D8D8"/>
<path d="M171.427 52.2988C171.427 51.7385 172.138 51.4808 173.062 51.4808C174.501 51.4536 175.908 51.9038 177.064 52.761C177.123 52.801 177.19 52.8282 177.261 52.8409C177.33 52.8536 177.404 52.8514 177.473 52.8346C177.543 52.8183 177.608 52.7872 177.665 52.7435C177.723 52.6997 177.77 52.6444 177.804 52.5811L179.343 49.9101C179.408 49.7913 179.427 49.6512 179.393 49.5193C179.358 49.3873 179.274 49.2739 179.158 49.2025C177.263 48.0196 175.063 47.4195 172.83 47.4764C168.194 47.4764 165.712 49.6565 166.129 52.7937C166.857 58.3115 175.415 56.4219 175.28 58.287C175.251 58.7246 174.491 59.0478 173.181 59.0478C171.483 59.0478 169.557 58.197 168.338 57.4444C168.278 57.4062 168.211 57.3811 168.14 57.3705C168.069 57.36 167.997 57.3641 167.929 57.383C167.861 57.4001 167.796 57.4311 167.74 57.474C167.683 57.5169 167.636 57.5708 167.602 57.6326L165.826 60.5898C165.76 60.7048 165.741 60.8406 165.772 60.9697C165.802 61.0988 165.88 61.2115 165.99 61.2851C167.695 62.4345 170.449 63.2076 172.837 63.2076C177.477 63.2076 180.152 61.2156 180.152 57.9434C180.152 51.9021 171.456 53.7754 171.418 52.2825" fill="#D8D8D8"/>
<path d="M215.716 62.3123C215.716 62.4512 215.772 62.5844 215.871 62.6825C215.968 62.7808 216.102 62.8359 216.241 62.8359H228.217C228.287 62.837 228.355 62.8242 228.42 62.7983C228.484 62.7723 228.542 62.7338 228.59 62.685C228.639 62.6362 228.679 62.5781 228.704 62.514C228.73 62.45 228.743 62.3814 228.742 62.3123V58.5207C228.74 58.3825 228.685 58.2504 228.586 58.1531C228.489 58.0558 228.356 58.0011 228.217 58.0011H223.157C223.157 58.0011 227.51 53.0315 228.287 52.1522C228.447 52.006 228.574 51.8275 228.658 51.6286C228.743 51.4297 228.783 51.2148 228.778 50.9987V48.3768C228.778 48.2379 228.723 48.1048 228.625 48.0066C228.527 47.9083 228.393 47.8533 228.255 47.8533H216.241C216.102 47.8533 215.968 47.9083 215.871 48.0066C215.772 48.1048 215.716 48.2379 215.716 48.3768V52.1726C215.716 52.2411 215.73 52.309 215.757 52.3723C215.783 52.4356 215.821 52.4931 215.871 52.5413C215.919 52.5896 215.977 52.6279 216.04 52.6536C216.104 52.6795 216.171 52.6925 216.241 52.692H221.39L216.032 58.8275C215.816 59.0987 215.704 59.4382 215.716 59.7845V62.3123Z" fill="#D8D8D8"/>
<path d="M230.672 62.3122C230.672 62.451 230.727 62.5842 230.826 62.6823C230.924 62.7806 231.057 62.8358 231.196 62.8358H243.182C243.251 62.8374 243.319 62.825 243.384 62.7993C243.448 62.7736 243.506 62.7351 243.556 62.6861C243.605 62.6372 243.643 62.5787 243.669 62.5144C243.695 62.4501 243.707 62.3814 243.706 62.3122V58.5205C243.705 58.4518 243.691 58.3838 243.664 58.3204C243.638 58.2571 243.599 58.1998 243.549 58.1515C243.5 58.1033 243.442 58.0651 243.379 58.0393C243.314 58.0135 243.246 58.0004 243.178 58.0011H238.142C238.142 58.0011 242.445 53.0273 243.227 52.152C243.386 52.0058 243.511 51.8272 243.596 51.6283C243.679 51.4292 243.72 51.2145 243.713 50.9985C243.713 50.8676 243.713 48.3971 243.713 48.3971C243.713 48.2583 243.659 48.125 243.561 48.0269C243.462 47.9287 243.329 47.8735 243.191 47.8735H231.176C231.043 47.8786 230.918 47.9332 230.826 48.0265C230.732 48.1197 230.677 48.2448 230.672 48.3766V52.1724C230.672 52.241 230.686 52.3088 230.712 52.3721C230.739 52.4354 230.778 52.4929 230.826 52.5411C230.875 52.5895 230.932 52.6277 230.996 52.6535C231.06 52.6793 231.128 52.6924 231.196 52.6918H236.346L230.991 58.8273C230.773 59.097 230.659 59.4372 230.672 59.7843V62.3122Z" fill="#D8D8D8"/>
<path d="M253.192 58.2013C252.601 58.2005 252.022 58.0243 251.53 57.695C251.038 57.3657 250.656 56.898 250.429 56.3511C250.203 55.8041 250.144 55.2025 250.26 54.6221C250.375 54.0417 250.661 53.5086 251.079 53.0901C251.498 52.6716 252.031 52.3865 252.611 52.271C253.192 52.1553 253.793 52.2142 254.34 52.4403C254.887 52.6664 255.356 53.0495 255.684 53.5413C256.014 54.033 256.19 54.6114 256.19 55.2032C256.19 55.9983 255.875 56.761 255.313 57.3232C254.751 57.8854 253.988 58.2013 253.192 58.2013ZM261.267 47.8161H256.715C256.576 47.8161 256.442 47.8713 256.345 47.9694C256.246 48.0677 256.19 48.2008 256.19 48.3396V49.2232C254.973 48.0737 253.365 47.4278 251.691 47.4153C247.776 47.4153 244.605 50.9656 244.605 55.3463C244.605 59.727 247.776 63.2732 251.691 63.2732C253.365 63.2606 254.972 62.6164 256.19 61.4695V62.3161C256.19 62.3847 256.204 62.4526 256.231 62.5158C256.257 62.5791 256.295 62.6366 256.345 62.6848C256.393 62.7332 256.451 62.7714 256.514 62.7973C256.578 62.823 256.645 62.8362 256.715 62.8355H261.267C261.406 62.8355 261.539 62.781 261.636 62.6837C261.734 62.5864 261.79 62.4543 261.791 62.3161V48.3396C261.791 48.2008 261.736 48.0677 261.637 47.9694C261.54 47.8713 261.406 47.8161 261.267 47.8161Z" fill="#D8D8D8"/>
<path d="M213.299 47.8533H208.758C208.62 47.8543 208.488 47.9099 208.389 48.0078C208.292 48.1058 208.236 48.2383 208.235 48.3768V62.3165C208.236 62.4545 208.292 62.5866 208.389 62.684C208.488 62.7813 208.62 62.8359 208.758 62.8359H213.299C213.367 62.8365 213.435 62.8233 213.498 62.7976C213.563 62.7717 213.62 62.7335 213.669 62.6852C213.718 62.6369 213.756 62.5794 213.783 62.5162C213.809 62.4529 213.823 62.385 213.823 62.3165V48.3768C213.823 48.2379 213.768 48.1048 213.669 48.0066C213.57 47.9083 213.438 47.8533 213.299 47.8533Z" fill="#D8D8D8"/>
<path d="M211.037 40.5027C210.418 40.5027 209.811 40.6864 209.296 41.0307C208.781 41.375 208.379 41.8643 208.142 42.4368C207.905 43.0093 207.843 43.6393 207.963 44.247C208.085 44.8548 208.383 45.4131 208.821 45.8513C209.259 46.2895 209.818 46.5878 210.425 46.7088C211.034 46.8297 211.663 46.7676 212.237 46.5305C212.809 46.2934 213.298 45.8917 213.642 45.3765C213.987 44.8613 214.17 44.2555 214.17 43.6358C214.168 42.8055 213.838 42.0099 213.251 41.4228C212.663 40.8356 211.868 40.5048 211.037 40.5027Z" fill="#D8D8D8"/>
<path d="M197.77 52.1805H196.626V47.4603H197.808C200.147 47.4603 200.814 48.6097 200.814 49.669C200.814 50.9656 200.233 52.1805 197.77 52.1805ZM203.632 43.7055C201.713 42.3761 199.742 42.0693 196.646 42.0693L190.824 42.0939C190.694 42.095 190.569 42.1476 190.477 42.2403C190.385 42.333 190.334 42.4582 190.334 42.5888V62.3407C190.334 62.472 190.386 62.5978 190.478 62.6906C190.571 62.7835 190.698 62.8356 190.828 62.8356H196.125C196.258 62.8356 196.384 62.7836 196.478 62.6909C196.571 62.5982 196.624 62.4723 196.626 62.3407V57.375C199.341 57.375 202.099 57.3465 204.14 55.5795C205.563 54.3524 206.631 52.3645 206.631 49.6772C206.631 47.5994 205.571 45.043 203.632 43.7055Z" fill="#D8D8D8"/>
<path d="M264.097 50.9245C263.788 50.9253 263.486 50.8343 263.228 50.6629C262.971 50.4915 262.77 50.2475 262.651 49.9619C262.533 49.6762 262.501 49.3616 262.562 49.0582C262.621 48.7547 262.77 48.4759 262.988 48.2572C263.207 48.0384 263.486 47.8895 263.791 47.8294C264.094 47.7692 264.408 47.8006 264.694 47.9193C264.979 48.038 265.223 48.239 265.395 48.4965C265.566 48.7541 265.657 49.0567 265.656 49.3661C265.655 49.7791 265.491 50.1748 265.199 50.4669C264.907 50.7589 264.511 50.9235 264.097 50.9245ZM264.097 48.0408C263.837 48.0448 263.583 48.1258 263.367 48.2735C263.153 48.4212 262.986 48.629 262.889 48.871C262.791 49.1131 262.767 49.3784 262.82 49.634C262.874 49.8895 263 50.1237 263.186 50.3073C263.371 50.491 263.606 50.6158 263.863 50.6662C264.118 50.7166 264.383 50.6904 264.624 50.5908C264.865 50.4911 265.073 50.3225 265.218 50.1061C265.363 49.8897 265.443 49.6351 265.444 49.3743C265.444 49.1991 265.409 49.0257 265.34 48.8641C265.272 48.7027 265.172 48.5565 265.047 48.4341C264.922 48.3117 264.773 48.2157 264.61 48.1517C264.447 48.0877 264.273 48.057 264.097 48.0613V48.0408ZM264.507 50.2659L264.044 49.5583H263.734V50.2659H263.485V48.4704H264.216C264.291 48.4665 264.365 48.4776 264.435 48.5031C264.505 48.5285 264.57 48.5678 264.624 48.6185C264.679 48.6693 264.723 48.7305 264.753 48.7984C264.783 48.8665 264.8 48.9399 264.801 49.0143C264.804 49.1438 264.758 49.2694 264.673 49.3675C264.589 49.4655 264.471 49.529 264.344 49.5461L264.822 50.2619L264.507 50.2659ZM264.216 48.7034H263.738V49.3375H264.216C264.262 49.3426 264.306 49.3381 264.349 49.3245C264.392 49.3109 264.431 49.2884 264.465 49.2584C264.499 49.2285 264.526 49.1919 264.543 49.1508C264.562 49.1099 264.571 49.0654 264.571 49.0205C264.571 48.9755 264.562 48.931 264.543 48.8901C264.526 48.8491 264.499 48.8124 264.465 48.7825C264.431 48.7526 264.392 48.7301 264.349 48.7164C264.306 48.7028 264.262 48.6984 264.216 48.7034Z" fill="#F8F8F8"/>
</g>
<defs>
<clipPath id="clip0_1818_7318">
<rect width="275" height="100" fill="white"/>
</clipPath>
</defs>
</svg>
