<svg width="275" height="100" viewBox="0 0 275 100" fill="none" xmlns="http://www.w3.org/2000/svg">
<path d="M39.3791 43.4497C39.2849 43.3835 39.1751 43.3427 39.0604 43.331C38.9457 43.3194 38.8299 43.3374 38.7242 43.3832C37.5594 43.2778 36.389 43.2488 35.2205 43.2965H33.2962L28.2507 43.1809C27.0567 43.1433 25.7845 43.1433 24.5151 43.2213C23.5907 43.2213 22.6662 43.2589 21.7417 43.2589C20.8172 43.2589 18.4698 43.2965 17.0817 43.2965H15.9225C15.766 43.2965 15.5747 43.5277 15.5747 43.7185C15.5735 43.7492 15.5786 43.7799 15.5899 43.8085C15.6011 43.837 15.6181 43.863 15.6399 43.8848C15.6617 43.9065 15.6877 43.9235 15.7164 43.9347C15.7451 43.9459 15.7758 43.951 15.8065 43.9498H20.51C21.6366 43.8542 22.7674 43.8156 23.8979 43.8342H23.9761C24.7064 43.8342 25.4251 43.8342 26.1699 43.7966C26.3252 43.8216 26.4844 43.8087 26.6336 43.759H26.6713C26.7495 43.759 26.8249 43.7185 26.9031 43.7185C27.094 43.7553 27.2886 43.7689 27.4827 43.759C27.6767 43.7526 27.8708 43.7652 28.0623 43.7966H28.1029C28.2542 43.759 28.4124 43.759 28.5637 43.7966H28.6014C28.6796 43.7966 28.7579 43.8342 28.8332 43.8342C30.504 43.7975 32.1756 43.8487 33.841 43.9874L34.7626 44.103C35.6097 44.0587 36.4589 44.0722 37.3042 44.1435H37.3447C37.9591 44.1811 38.5764 44.2186 39.1531 44.2186H39.1937L39.5009 43.9874C39.5368 43.8959 39.5444 43.7957 39.5227 43.6999C39.501 43.604 39.451 43.5169 39.3791 43.4497Z" fill="#D8D8D8"/>
<path d="M31.062 54.1281L31.0996 54.0529L31.062 52.093C31.0298 51.7742 31.0172 51.4536 31.0243 51.1333C31.0387 50.7462 31.0125 50.3586 30.9461 49.977C30.9179 49.4502 30.855 48.9258 30.7577 48.4073L30.6794 48.0604V48.0229L30.6418 47.9824C30.5669 47.8939 30.5142 47.7888 30.4882 47.6759C30.4587 47.5706 30.4199 47.4681 30.3723 47.3696C30.2163 47.121 30.0347 46.8894 29.8303 46.6787C29.7898 46.6006 29.7144 46.6006 29.6738 46.563C29.6333 46.5254 29.6361 46.5226 29.5985 46.5226L29.5608 46.485H29.5202L29.4826 46.4474C29.3451 46.318 29.1691 46.2368 28.9812 46.2161C28.9435 46.141 28.8276 46.141 28.7523 46.141V46.1005H28.674L28.2886 46.0254H28.2132L28.1726 46.0629C28.1349 46.1005 28.1349 46.1005 28.0567 46.0629C27.9785 46.0254 27.9814 46.0254 27.9031 46.0254H27.8596L27.822 46.0629C27.822 46.0629 27.7814 46.0629 27.7814 46.0254L27.5959 45.9849V46.0629C27.5288 46.0524 27.4601 46.0657 27.4018 46.1005H26.8627L26.9033 46.2161C26.7874 46.1786 26.7091 46.2537 26.6338 46.2942H26.5932C26.5224 46.2951 26.4543 46.3218 26.4019 46.3694C26.3643 46.3694 26.3643 46.4098 26.3237 46.4098H26.286L26.2483 46.4474C26.1775 46.5076 26.0997 46.559 26.0165 46.6006L25.8629 46.6787L25.9006 46.7162C25.8629 46.7162 25.8629 46.7538 25.8252 46.7538H25.6688V46.8694L25.5934 46.7914L25.5557 46.8694C25.4775 46.9851 25.3616 47.1007 25.2456 47.2539C25.106 47.3995 24.9772 47.5551 24.8602 47.7193L24.8225 47.7598L24.8602 47.7974C24.8225 47.7974 24.7848 47.8349 24.7472 47.9506C24.7035 48.0066 24.6764 48.0737 24.6689 48.1442V48.1818C24.6331 48.241 24.6068 48.3054 24.5907 48.3726C24.5907 48.4131 24.5907 48.4507 24.553 48.4507L24.4371 48.5663L24.4776 48.6039C24.4455 48.6481 24.431 48.7027 24.4371 48.7571V48.7947L24.3994 48.8351V48.9103C24.4183 49.0377 24.4183 49.1673 24.3994 49.2948C24.3665 49.4329 24.3538 49.5751 24.3617 49.7168C24.3318 49.7901 24.3179 49.869 24.3211 49.9481V50.0319L24.2458 50.0695L24.2835 50.1446C24.3211 50.2227 24.2835 50.3007 24.2458 50.4135C24.1927 50.5076 24.1791 50.6188 24.2081 50.7228L24.1676 50.7604C24.1466 50.7815 24.1334 50.8089 24.1299 50.8384V50.9541L24.0922 51.0668V51.1072L24.1676 51.1824V51.4512L24.1299 51.5669L24.1676 51.6449C24.1676 51.6825 24.1676 51.7981 24.2081 51.8357V51.8733L24.0922 51.9138L24.1676 52.067V52.1046C24.1483 52.1677 24.1483 52.2351 24.1676 52.2982C24.1299 52.3734 24.1676 52.489 24.1676 52.5266V52.5671C24.0516 52.6798 24.1299 52.7954 24.1299 52.8735C24.1027 52.9333 24.0898 52.9986 24.0922 53.0643L23.9386 53.1047L24.0922 53.2579V53.3736C24.0922 53.3836 24.0962 53.3931 24.1033 53.4002C24.1103 53.4072 24.1199 53.4112 24.1299 53.4112H24.0922L24.1299 53.5268C24.12 53.5928 24.1333 53.6602 24.1676 53.7176C24.1473 53.7391 24.1341 53.7664 24.1299 53.7956L24.0922 53.8332L24.1299 53.9112C24.1494 53.9534 24.1595 53.9993 24.1595 54.0457C24.1595 54.0921 24.1494 54.1379 24.1299 54.1801C24.0921 54.2917 24.0921 54.4125 24.1299 54.5241L24.0516 54.6021L24.1299 54.6773C24.1001 54.7085 24.0835 54.7499 24.0835 54.7929C24.0835 54.836 24.1001 54.8774 24.1299 54.9086C24.1676 54.9461 24.1299 55.0242 24.1299 55.1022C24.1066 55.2314 24.1197 55.3645 24.1676 55.4867V55.7556H24.1299L24.1676 55.8307C24.2059 55.9421 24.2197 56.0604 24.2081 56.1776C24.1903 56.3026 24.2016 56.43 24.2414 56.5498C24.2811 56.6697 24.3481 56.7787 24.4371 56.8685L24.4776 56.9061H24.553C24.7066 56.8685 24.7066 56.7153 24.7066 56.5996V56.484C24.6499 56.2445 24.6499 55.9951 24.7066 55.7556V55.4867C24.6756 55.3996 24.6628 55.3072 24.6689 55.215C24.6879 55.1137 24.6879 55.0098 24.6689 54.9086C24.7066 54.4489 24.6689 53.9112 24.6689 53.4632V52.8851C24.7956 52.6921 24.85 52.4607 24.8225 52.2317V51.5929C24.8538 51.3776 24.8664 51.16 24.8602 50.9425V50.6101C24.9008 50.532 24.9384 50.4944 24.9008 50.4164C24.9315 50.3444 24.9444 50.2661 24.9384 50.188V49.7891C24.9384 49.711 24.9761 49.6359 24.9384 49.5578C25.0183 49.3757 25.0579 49.1785 25.0544 48.9797V48.9045C25.0567 48.8837 25.0545 48.8626 25.048 48.8426C25.0415 48.8227 25.0308 48.8044 25.0167 48.7889C25.0281 48.6904 25.0673 48.5972 25.1297 48.5201C25.2271 48.4164 25.2828 48.2805 25.2862 48.1385V48.098L25.3239 48.0604C25.3616 48.0229 25.4398 47.9824 25.4398 47.9072V47.8667C25.5036 47.7999 25.5556 47.7227 25.5934 47.6384C25.6688 47.5227 25.7093 47.4447 25.8252 47.4447H25.9006V47.4071C25.9311 47.3389 25.9858 47.2844 26.0542 47.2539C26.1341 47.2257 26.2024 47.1718 26.2483 47.1007C26.3237 47.1007 26.3643 47.1007 26.4019 47.0602L26.6338 46.9475C26.7497 46.8694 26.7874 46.8319 26.8251 46.8694L26.9033 46.907L26.941 46.8694C26.9786 46.8694 27.0192 46.8319 27.0569 46.7914C27.0946 46.7509 27.0946 46.7914 27.1323 46.7538C27.1699 46.7162 27.2105 46.7162 27.2105 46.7538C27.2105 46.7914 27.2482 46.7914 27.3264 46.7538H27.5177C27.799 46.6902 28.0923 46.7031 28.3668 46.7914L28.4421 46.8319L28.4827 46.7538L28.5204 46.7914C28.5555 46.849 28.6072 46.8946 28.6687 46.9225C28.7302 46.9503 28.7987 46.9591 28.8653 46.9475C28.9058 46.9851 28.9435 46.9851 28.9812 47.0227C29.0189 47.0602 29.0218 47.0227 29.0218 47.0602L29.0594 47.1007C29.0864 47.1366 29.1214 47.1657 29.1617 47.1858C29.2019 47.2059 29.2463 47.2163 29.2913 47.2163C29.4678 47.3719 29.5998 47.5714 29.6738 47.7945V47.9101H29.7521C29.7763 48.0655 29.8424 48.2114 29.9433 48.3322C29.9239 48.3943 29.9239 48.4608 29.9433 48.5229V48.5634L29.9057 48.6386L29.9839 48.7166C29.9928 48.7809 30.0054 48.8446 30.0216 48.9074C30.0216 48.9074 30.0216 48.9479 30.0593 48.9479L30.0216 48.9855C29.9948 49.0434 29.9879 49.1085 30.002 49.1707C30.0162 49.233 30.0506 49.2888 30.0998 49.3294H30.1375C30.0998 49.3699 30.0998 49.4075 30.0998 49.4856V49.5607L30.1375 49.5983C30.14 49.6281 30.1534 49.6558 30.1752 49.6764L30.1375 49.7139L30.0998 49.8296L30.1375 49.9076L30.1752 49.9452C30.1752 49.9827 30.2129 50.0232 30.2129 50.0608V50.0984C30.1808 50.1926 30.1678 50.2923 30.1748 50.3916C30.1818 50.4908 30.2085 50.5877 30.2534 50.6766C30.2241 50.7357 30.2101 50.8013 30.2129 50.8673V51.0205H30.2911V51.0581L30.2534 51.1737H30.2911V51.2894C30.2911 51.3674 30.2911 51.405 30.2534 51.4426C30.2244 51.5466 30.238 51.6578 30.2911 51.7519C30.2911 51.7568 30.2921 51.7617 30.294 51.7663C30.2959 51.7708 30.2986 51.775 30.3021 51.7785C30.3056 51.7819 30.3098 51.7847 30.3144 51.7866C30.3189 51.7885 30.3238 51.7895 30.3288 51.7895C30.2911 51.7895 30.2911 51.8271 30.2911 51.8646V51.9051L30.2534 51.9427L30.2911 52.0207C30.2911 52.0583 30.3288 52.0583 30.3693 52.0959H30.3288V52.2115H30.2534L30.2911 52.2896C30.2911 52.3271 30.2534 52.3647 30.2911 52.4428L30.2534 52.5179C30.2559 52.5477 30.2693 52.5755 30.2911 52.596C30.2823 52.6527 30.2883 52.7107 30.3086 52.7644C30.3289 52.8181 30.3628 52.8656 30.407 52.9024C30.4447 52.9429 30.4447 52.9429 30.4447 52.9804H30.407L30.4447 53.1337C30.4347 53.1337 30.4251 53.1376 30.4181 53.1447C30.411 53.1517 30.407 53.1613 30.407 53.1712L30.3288 53.2117L30.3693 53.3244V53.3649C30.3288 53.4401 30.3693 53.4806 30.3693 53.4806C30.3452 53.4982 30.3255 53.5212 30.3119 53.5479C30.2983 53.5745 30.2912 53.6039 30.2911 53.6337V53.7494H30.3693C30.3693 53.787 30.3693 53.787 30.3288 53.8246C30.2882 53.8621 30.2911 53.9026 30.2911 53.9402L30.4447 54.0182C30.4304 54.0331 30.4197 54.0509 30.4131 54.0704C30.4066 54.0899 30.4045 54.1106 30.407 54.131V54.1714H30.2911V54.9751L30.2129 55.0502L30.3288 55.1658C30.3288 55.2034 30.2911 55.2439 30.2911 55.2815H30.2129L30.3693 55.4751C30.3899 55.4954 30.4031 55.5218 30.407 55.5503C30.3288 55.5879 30.3288 55.7035 30.3288 55.744V55.8134L30.3693 55.8509C30.3288 55.8914 30.3288 55.8914 30.3288 55.929V56.0446H30.1781L30.294 56.1602L30.1781 56.1978L30.2563 56.2759V56.5823C30.2563 56.6199 30.294 56.6574 30.3317 56.6979C30.3781 56.7278 30.4333 56.7411 30.4882 56.7355V56.8511L30.6418 56.8136C30.6838 56.7933 30.7299 56.7828 30.7765 56.7828C30.8232 56.7828 30.8693 56.7933 30.9113 56.8136L31.0272 56.8511V56.7355C31.0649 56.3135 31.0649 55.8914 31.0649 55.4694C31.0396 55.0836 31.0522 54.6964 31.1026 54.3131C31.0923 54.2507 31.0788 54.189 31.062 54.1281Z" fill="#D8D8D8"/>
<path d="M22.7043 54.1281L22.7449 54.0529L22.7043 52.093C22.6722 51.7742 22.6596 51.4536 22.6667 51.1333C22.6811 50.7462 22.6549 50.3586 22.5884 49.977C22.5609 49.4491 22.497 48.9236 22.3971 48.4044L22.3189 48.0575V48.0199L22.2812 47.9795C22.2044 47.8961 22.1629 47.7863 22.1653 47.6731C22.1384 47.5669 22.0995 47.4641 22.0494 47.3666C21.8974 47.1265 21.731 46.8957 21.5509 46.6757C21.5104 46.5977 21.435 46.5977 21.3973 46.5601C21.3596 46.5226 21.3567 46.5197 21.3191 46.5197L21.2814 46.4821H21.2408L21.1945 46.4474C21.057 46.318 20.881 46.2368 20.6931 46.2161C20.6554 46.141 20.5395 46.141 20.4642 46.141V46.1005H20.3859L19.9628 46.0254H19.8845L19.8469 46.0629C19.8469 46.1005 19.8092 46.1005 19.7309 46.0629C19.6527 46.0254 19.6556 46.0254 19.5774 46.0254H19.5397L19.4991 46.0629C19.4891 46.0629 19.4795 46.059 19.4725 46.0519C19.4654 46.0449 19.4614 46.0353 19.4614 46.0254L19.2789 45.9849V46.0629C19.2117 46.0524 19.143 46.0657 19.0847 46.1005H18.5457L18.5862 46.2161C18.4703 46.1786 18.392 46.2537 18.3138 46.2942H18.2761C18.2053 46.2951 18.1373 46.3218 18.0849 46.3694C18.0443 46.3694 18.0443 46.4098 18.0066 46.4098H17.9689L17.9313 46.4474C17.8595 46.5064 17.7818 46.5577 17.6994 46.6006L17.5458 46.6787L17.5835 46.7162C17.5458 46.7162 17.5458 46.7538 17.5053 46.7538H17.3517V46.8694L17.2763 46.8319L17.1981 46.907C17.1227 47.0227 17.0068 47.1383 16.8909 47.2915C16.7507 47.4356 16.6219 47.5902 16.5054 47.754L16.4678 47.7916L16.5054 47.8292C16.4678 47.8292 16.4272 47.8667 16.3895 47.9824C16.3519 47.9824 16.3142 48.0604 16.3142 48.1385V48.1761C16.2879 48.2002 16.2673 48.2298 16.2537 48.2627C16.2402 48.2957 16.2341 48.3312 16.2359 48.3668C16.2359 48.4073 16.2359 48.4449 16.1982 48.4449L16.12 48.5201L16.1577 48.5605C16.1277 48.6057 16.1144 48.6599 16.12 48.7137V48.7513L16.0823 48.7889V48.8756C16.1093 49.0046 16.0961 49.1387 16.0446 49.2601C16.0093 49.3978 15.9956 49.5402 16.0041 49.6821C15.9758 49.7558 15.963 49.8346 15.9664 49.9134V50.0319L16.0041 50.1071C16.0446 50.1851 16.0041 50.2603 15.9664 50.3759C15.9474 50.4781 15.9474 50.583 15.9664 50.6852C15.9564 50.6852 15.9468 50.6892 15.9398 50.6962C15.9327 50.7032 15.9287 50.7128 15.9287 50.7228C15.9071 50.7426 15.8928 50.7691 15.8882 50.7979V50.8991L15.8505 51.0147V51.0523L15.9664 51.0928V51.3616L15.8882 51.4773L15.9664 51.5524C15.9609 51.6192 15.9739 51.6862 16.0041 51.7461V51.7837L15.8882 51.8212L15.9664 51.9745V52.0149C15.947 52.0771 15.947 52.1436 15.9664 52.2057C15.9287 52.2838 15.9664 52.3965 15.9664 52.437V52.4746C15.8882 52.5902 15.9664 52.7434 15.9664 52.8214C15.939 52.8813 15.9261 52.9466 15.9287 53.0122L15.8128 53.0498L15.978 53.2117V53.3244C15.978 53.3649 16.0157 53.3649 16.0562 53.3649H16.0157L16.0562 53.4806C16.0463 53.5466 16.0596 53.614 16.0939 53.6713C16.073 53.6924 16.0597 53.7199 16.0562 53.7494L16.0157 53.787L16.0562 53.8621C16.0755 53.9043 16.0855 53.9502 16.0855 53.9966C16.0855 54.0429 16.0755 54.0887 16.0562 54.131C16.0271 54.1841 16.0118 54.2438 16.0118 54.3044C16.0118 54.365 16.0271 54.4247 16.0562 54.4779L15.978 54.6282L16.0562 54.7062C16.0157 54.7438 15.978 54.8218 16.0562 54.9346C16.0939 54.9751 16.0562 55.0502 16.0562 55.1283C16.0254 55.2599 16.0345 55.3978 16.0823 55.5243L16.0446 55.6775V55.7931H16.0041L16.0446 55.8683C16.0806 55.9802 16.0935 56.0982 16.0823 56.2152C16.0637 56.3404 16.075 56.4683 16.1152 56.5883C16.1555 56.7084 16.2237 56.8173 16.3142 56.9061L16.3519 56.9436H16.4272C16.5837 56.9061 16.5837 56.7529 16.5837 56.6372V56.5216C16.5242 56.2824 16.5242 56.0323 16.5837 55.7931V55.5243C16.5525 55.4313 16.5436 55.3323 16.5576 55.2352C16.5754 55.1397 16.5754 55.0417 16.5576 54.9461C16.5982 54.4865 16.5576 53.9488 16.5576 53.5008C16.5638 53.3073 16.5512 53.1137 16.5199 52.9226C16.4822 52.6939 16.4822 52.4605 16.5199 52.2317V51.5929C16.5512 51.3776 16.5639 51.16 16.5576 50.9425V50.6101C16.5982 50.532 16.6359 50.4944 16.5982 50.4164C16.6289 50.3444 16.6418 50.2661 16.6359 50.188V49.7891C16.6359 49.711 16.6735 49.6359 16.6359 49.5578C16.7144 49.3752 16.7539 49.1783 16.7518 48.9797V48.9045C16.7543 48.8834 16.752 48.8621 16.745 48.842C16.7379 48.8219 16.7264 48.8038 16.7112 48.7889C16.7239 48.6902 16.764 48.5971 16.8271 48.5201C16.9235 48.4159 16.9781 48.2801 16.9807 48.1385V48.098C16.9807 48.098 17.0213 48.098 17.0213 48.0604C17.0213 48.0229 17.1372 47.9824 17.0966 47.9072V47.8667C17.1614 47.8007 17.2135 47.7232 17.2502 47.6384C17.3285 47.5227 17.3662 47.4447 17.4821 47.4447H17.5603V47.4071C17.5603 47.3291 17.6357 47.2915 17.7139 47.2539C17.7926 47.2248 17.8597 47.1711 17.9052 47.1007C17.9834 47.1007 18.0211 47.1007 18.0588 47.0602L18.2906 46.9475C18.3689 46.8694 18.4065 46.8319 18.4848 46.8694L18.5602 46.907L18.6007 46.8694C18.6384 46.8694 18.676 46.8319 18.7137 46.7914C18.7514 46.7509 18.792 46.7914 18.792 46.7538C18.8702 46.7538 18.8702 46.7162 18.8702 46.7538C18.8702 46.7914 18.9456 46.7914 18.9832 46.7538H19.1658C19.4462 46.6903 19.7385 46.7032 20.012 46.7914L20.0903 46.8319L20.128 46.7538L20.1657 46.7914C20.2439 46.8694 20.3192 46.9851 20.5134 46.9475C20.5511 46.9851 20.5888 46.9851 20.6294 47.0227C20.6393 47.0227 20.6489 47.0266 20.656 47.0337C20.663 47.0407 20.667 47.0502 20.667 47.0602L20.7047 47.1007C20.7317 47.1366 20.7667 47.1657 20.8069 47.1858C20.8472 47.2059 20.8915 47.2163 20.9365 47.2163C21.1146 47.3711 21.2477 47.5708 21.322 47.7945V47.9101H21.4002C21.4231 48.0659 21.4894 48.2121 21.5915 48.3322C21.5721 48.3943 21.5721 48.4608 21.5915 48.5229V48.5634L21.5538 48.6386L21.6292 48.7166C21.6388 48.781 21.6523 48.8447 21.6697 48.9074V48.9855C21.6425 49.0431 21.6352 49.108 21.6489 49.1702C21.6625 49.2324 21.6963 49.2884 21.7451 49.3294H21.774C21.7364 49.3699 21.7364 49.4075 21.6987 49.4856V49.5607L21.7364 49.5983C21.7389 49.6281 21.7523 49.6558 21.774 49.6764L21.7364 49.7139L21.6987 49.8296L21.7364 49.9076L21.774 49.9452C21.7715 49.9663 21.7738 49.9877 21.7809 50.0077C21.7879 50.0277 21.7994 50.0459 21.8146 50.0608V50.0984C21.7814 50.1923 21.7677 50.2919 21.7741 50.3913C21.7806 50.4907 21.8072 50.5877 21.8523 50.6766C21.8249 50.7363 21.812 50.8017 21.8146 50.8673V50.9454L21.774 51.0581H21.8523V51.0986L21.8146 51.2142H21.8523V51.3269C21.8523 51.405 21.8523 51.4426 21.8146 51.4831C21.8004 51.5341 21.7963 51.5874 21.8028 51.64C21.8092 51.6926 21.8261 51.7434 21.8523 51.7895C21.8523 51.7944 21.8533 51.7993 21.8552 51.8039C21.8571 51.8084 21.8599 51.8126 21.8634 51.8161C21.8669 51.8195 21.871 51.8223 21.8755 51.8242C21.8801 51.8261 21.885 51.8271 21.89 51.8271C21.8523 51.8271 21.8523 51.8646 21.8523 51.9051V51.9427L21.8146 51.9802L21.8523 52.0583C21.8523 52.0959 21.89 52.0959 21.9305 52.1335V52.2491H21.8523L21.89 52.3271C21.89 52.3647 21.8523 52.4023 21.89 52.4804L21.8523 52.5584C21.855 52.5873 21.8684 52.6141 21.89 52.6336C21.8815 52.6907 21.8877 52.7491 21.9079 52.8031C21.9282 52.8572 21.9619 52.9053 22.0059 52.9429L22.0842 53.018H22.1218L22.1595 53.1712C22.1543 53.1712 22.1492 53.1723 22.1444 53.1744C22.1396 53.1764 22.1353 53.1794 22.1318 53.1832C22.1282 53.1871 22.1255 53.1916 22.1238 53.1964C22.1221 53.2013 22.1214 53.2065 22.1218 53.2117L22.0436 53.2493L22.0842 53.3649V53.4025C22.0436 53.4806 22.0842 53.5181 22.0842 53.5181C22.06 53.5358 22.0403 53.5588 22.0267 53.5854C22.0132 53.6121 22.006 53.6415 22.0059 53.6713V53.7899H22.0842C22.0842 53.8274 22.0842 53.8274 22.0436 53.865C22.003 53.9026 22.0059 53.9431 22.0059 53.9806L22.1595 54.0587C22.145 54.074 22.1341 54.0923 22.1276 54.1123C22.1211 54.1323 22.1191 54.1535 22.1218 54.1743C22.1218 54.1843 22.1179 54.1939 22.1108 54.2009C22.1037 54.2079 22.0941 54.2119 22.0842 54.2119H21.9682V55.0184L21.8523 55.056L21.9682 55.1716C21.9682 55.2092 21.9305 55.2497 21.9305 55.2872H21.8523L22.0059 55.4809C22.0265 55.5011 22.0397 55.5276 22.0436 55.5561C21.9682 55.5937 21.9682 55.7093 21.9682 55.7498V55.8134L22.0059 55.8509L21.9305 55.929V56.0446H21.774L21.89 56.1602L21.774 56.1978L21.8523 56.2759V56.5823C21.8523 56.6199 21.89 56.6574 21.9305 56.6979C21.9894 56.7286 22.0558 56.7416 22.1218 56.7355V56.8511L22.2754 56.8136C22.3174 56.7933 22.3635 56.7828 22.4102 56.7828C22.4568 56.7828 22.5029 56.7933 22.5449 56.8136L22.6609 56.8511V56.7355C22.6985 56.3135 22.6985 55.8914 22.6985 55.4694C22.6727 55.0836 22.6864 54.6961 22.7391 54.3131C22.7485 54.2492 22.7363 54.1841 22.7043 54.1281Z" fill="#D8D8D8"/>
<path d="M39.263 54.2842L39.3006 54.2061L39.263 52.2462C39.2308 51.9274 39.2182 51.6069 39.2253 51.2865C39.2384 50.8994 39.2122 50.512 39.147 50.1302C39.1181 49.6024 39.0542 49.0771 38.9558 48.5576L38.8717 48.2136V48.1761L38.834 48.1356C38.7592 48.0471 38.7065 47.942 38.6805 47.8292C38.6428 47.754 38.6428 47.6384 38.5645 47.5603C38.3967 47.3211 38.2168 47.0905 38.0255 46.8695C37.9878 46.7914 37.9096 46.7914 37.8719 46.7538C37.8342 46.7163 37.8342 46.7163 37.7937 46.6787L37.756 46.6382H37.7125L37.6719 46.6006C37.5352 46.4718 37.3603 46.3906 37.1735 46.3694C37.1329 46.2942 37.017 46.2942 36.9416 46.2942V46.2537H36.8634L36.4403 46.1786H36.3649V46.2161C36.3479 46.228 36.3277 46.2343 36.307 46.2343C36.2862 46.2343 36.266 46.228 36.249 46.2161C36.2084 46.2161 36.1707 46.1786 36.0954 46.1786H36.0549L36.0172 46.2161C36.0072 46.2161 35.9976 46.2122 35.9905 46.2051C35.9835 46.1981 35.9795 46.1885 35.9795 46.1786L35.7853 46.141V46.2161C35.7191 46.2063 35.6515 46.2196 35.594 46.2537H35.0666L35.1043 46.3694C34.9884 46.3318 34.913 46.4098 34.8348 46.4474H34.7971C34.7253 46.4476 34.6561 46.4744 34.6029 46.5226C34.5652 46.5226 34.5652 46.563 34.5276 46.563H34.487L34.4493 46.6006C34.3785 46.6608 34.3007 46.7122 34.2175 46.7538L34.0639 46.8319L34.1045 46.8695C34.0639 46.8695 34.0639 46.907 34.0262 46.907H33.8726V47.0227L33.7944 46.9851L33.7567 47.0603C33.6651 47.185 33.5623 47.3011 33.4495 47.4071C33.3141 47.5513 33.1892 47.7049 33.0757 47.8668L33.038 47.9072L33.0757 47.9448C33.038 47.9448 32.9974 47.9824 32.9597 48.098C32.9239 48.1582 32.8975 48.2235 32.8815 48.2917V48.3293C32.8468 48.3887 32.8214 48.453 32.8061 48.5201C32.8061 48.5605 32.8061 48.5981 32.7656 48.5981L32.6902 48.6762L32.7279 48.7138C32.6979 48.7589 32.6846 48.8131 32.6902 48.867V48.9045L32.6525 48.945V49.0201C32.6801 49.1494 32.6659 49.284 32.612 49.4046C32.612 49.5203 32.5743 49.6735 32.5743 49.8267C32.546 49.9004 32.5332 49.9791 32.5366 50.058V50.1736L32.5743 50.2487C32.612 50.3268 32.5743 50.4019 32.5366 50.5176C32.5008 50.6165 32.4869 50.7221 32.496 50.8269L32.4584 50.8645C32.4374 50.8855 32.4242 50.913 32.4207 50.9425V51.1709L32.496 51.2489V51.5553L32.4207 51.671L32.4584 51.749C32.4584 51.7866 32.4584 51.9022 32.496 51.9398V51.9774L32.383 52.0178L32.4584 52.1711V52.2086C32.4584 52.2462 32.4207 52.3243 32.4584 52.3994C32.4207 52.4775 32.4584 52.5555 32.4584 52.6307V52.6683C32.3425 52.7839 32.4207 52.8995 32.4207 52.9776C32.3933 53.0373 32.3804 53.1027 32.383 53.1684L32.2062 53.2117L32.3627 53.3649V53.4806C32.3627 53.4905 32.3667 53.5001 32.3738 53.5071C32.3809 53.5142 32.3904 53.5181 32.4004 53.5181H32.3627L32.4004 53.6338C32.3905 53.6998 32.4038 53.7672 32.4381 53.8246C32.4172 53.8456 32.4039 53.8731 32.4004 53.9026L32.3627 53.9402L32.4004 54.0182C32.4194 54.0605 32.4292 54.1063 32.4292 54.1526C32.4292 54.199 32.4194 54.2448 32.4004 54.2871C32.3627 54.3986 32.3627 54.5195 32.4004 54.6311L32.5164 54.7843L32.5917 54.8623C32.5637 54.8944 32.5484 54.9355 32.5484 54.978C32.5484 55.0205 32.5637 55.0615 32.5917 55.0936C32.6323 55.1312 32.5917 55.2063 32.5917 55.2844C32.5679 55.4138 32.582 55.5472 32.6323 55.6688L32.5917 55.8221V55.9377H32.554L32.5917 56.0157C32.6302 56.1261 32.644 56.2435 32.6323 56.3597C32.6139 56.4847 32.6251 56.6122 32.6649 56.7322C32.7046 56.8521 32.7718 56.9611 32.8612 57.0506L32.9018 57.0911H32.9771C33.1307 57.0506 33.1307 56.8974 33.1307 56.7818V56.6661C33.0742 56.4139 33.0742 56.1523 33.1307 55.9001C33.1244 55.833 33.1385 55.7655 33.1713 55.7064V55.6313C33.1383 55.5456 33.1245 55.4539 33.1307 55.3624C33.1512 55.2603 33.1512 55.1552 33.1307 55.0531C33.1713 54.5935 33.1307 54.0558 33.1307 53.6078C33.137 53.4143 33.1244 53.2206 33.093 53.0296C33.0554 52.8008 33.0554 52.5675 33.093 52.3387V51.7085C33.1244 51.4923 33.137 51.2737 33.1307 51.0552V50.7112C33.1572 50.6874 33.1754 50.6558 33.1827 50.621C33.19 50.5862 33.186 50.55 33.1713 50.5176C33.202 50.4455 33.2149 50.3672 33.209 50.2892V49.9047C33.209 49.8267 33.2467 49.7515 33.209 49.6735C33.2852 49.4902 33.3246 49.2938 33.3249 49.0953V49.0201C33.3272 48.9993 33.325 48.9782 33.3185 48.9583C33.312 48.9383 33.3014 48.92 33.2872 48.9045C33.2986 48.806 33.3378 48.7128 33.4002 48.6357C33.4919 48.5273 33.5466 48.3926 33.5567 48.2512V48.2136C33.5667 48.2136 33.5763 48.2097 33.5834 48.2026C33.5904 48.1956 33.5944 48.186 33.5944 48.1761C33.6321 48.1356 33.7103 48.098 33.6697 48.0229V47.9824C33.7345 47.9156 33.7874 47.8384 33.8262 47.754C33.9016 47.6384 33.9393 47.5603 34.0552 47.5603H34.1334V47.4852C34.1622 47.4151 34.2173 47.359 34.287 47.3291C34.3667 47.3018 34.4344 47.2476 34.4783 47.1759C34.5565 47.1759 34.5942 47.1759 34.6348 47.1383L34.8637 47.0227C34.9797 46.9475 35.0174 46.907 35.0579 46.9475L35.1333 46.9851L35.1738 46.9475C35.2115 46.9475 35.2492 46.907 35.2897 46.8695C35.3303 46.8319 35.3274 46.8695 35.3651 46.8319C35.4028 46.7943 35.4434 46.7914 35.4434 46.8319C35.4434 46.8723 35.481 46.8695 35.5593 46.8319H35.7505C36.0179 46.7642 36.2993 46.7773 36.5591 46.8695L36.6374 46.907L36.675 46.8319L36.7127 46.8695C36.7487 46.9267 36.801 46.972 36.863 46.9993C36.925 47.0266 36.9938 47.0347 37.0605 47.0227C37.0981 47.0603 37.1358 47.0603 37.1764 47.1007C37.1864 47.1007 37.1959 47.1047 37.203 47.1117C37.2101 47.1188 37.214 47.1283 37.214 47.1383L37.2517 47.1759C37.2775 47.213 37.3123 47.2431 37.3528 47.2633C37.3933 47.2835 37.4383 47.2932 37.4835 47.2915C37.6594 47.4483 37.7921 47.6473 37.869 47.8696V47.9853H37.9444C37.9689 48.142 38.036 48.289 38.1385 48.4102C38.1009 48.4854 38.1385 48.5634 38.1385 48.601V48.6386L38.1009 48.7166L38.1762 48.7918H38.2139C38.2232 48.8571 38.2368 48.9218 38.2544 48.9855C38.2544 48.9955 38.2584 49.005 38.2655 49.012C38.2725 49.0191 38.2821 49.0231 38.2921 49.0231V49.0606C38.2564 49.117 38.2446 49.1852 38.2592 49.2502C38.2739 49.3153 38.3139 49.3718 38.3704 49.4075H38.408C38.3704 49.4451 38.3704 49.4856 38.3704 49.5607V49.6388L38.408 49.6764C38.411 49.706 38.4244 49.7336 38.4457 49.7544L38.408 49.792L38.3704 49.9076L38.408 49.9828L38.4457 50.0233C38.4432 50.0436 38.4453 50.0643 38.4519 50.0838C38.4584 50.1033 38.4691 50.1211 38.4834 50.136V50.1765C38.4508 50.2706 38.4376 50.3703 38.4446 50.4696C38.4515 50.569 38.4785 50.6659 38.524 50.7546C38.4945 50.8148 38.4805 50.8813 38.4834 50.9483V50.9859L38.4457 51.1015H38.524V51.1391L38.4834 51.2547H38.524V51.3703C38.524 51.4455 38.524 51.486 38.4834 51.5235C38.4694 51.5747 38.4657 51.6282 38.4727 51.6808C38.4797 51.7335 38.4971 51.7841 38.524 51.83C38.524 51.8399 38.5279 51.8495 38.535 51.8565C38.542 51.8636 38.5516 51.8675 38.5616 51.8675C38.524 51.8675 38.524 51.908 38.524 51.9456V51.9831L38.4834 52.0236L38.524 52.0988C38.524 52.1364 38.5616 52.1364 38.5993 52.1768H38.5819V52.2925L38.5037 52.33L38.5442 52.4052C38.5442 52.4457 38.5037 52.4833 38.5442 52.5613L38.5037 52.6365C38.5069 52.6666 38.5214 52.6945 38.5442 52.7145C38.5342 52.7713 38.5397 52.8297 38.56 52.8836C38.5805 52.9375 38.615 52.985 38.6602 53.0209C38.6979 53.0585 38.6979 53.0585 38.6979 53.099H38.6602L38.6979 53.2522C38.6879 53.2522 38.6783 53.2561 38.6712 53.2632C38.6641 53.2703 38.6602 53.2798 38.6602 53.2898L38.5819 53.3273L38.6196 53.443V53.4835C38.5819 53.5586 38.6196 53.5962 38.6196 53.5962C38.5965 53.6153 38.5779 53.6391 38.5649 53.666C38.5519 53.693 38.5448 53.7224 38.5442 53.7523V53.865H38.6196C38.6196 53.9055 38.6196 53.9055 38.5819 53.9431C38.5844 53.9639 38.5824 53.9851 38.5759 54.005C38.5694 54.025 38.5586 54.0433 38.5442 54.0587L38.6979 54.1339V54.368H38.5819V55.1745L38.466 55.2121L38.5819 55.3277C38.5819 55.3682 38.5442 55.4058 38.5442 55.4434H38.466L38.6196 55.637C38.6412 55.6568 38.6555 55.6833 38.6602 55.7122C38.5819 55.7527 38.5819 55.8654 38.5819 55.9059V55.9435L38.6196 55.981C38.5819 56.0215 38.5819 56.0215 38.5819 56.0591V56.1747H38.4283L38.5442 56.2903L38.4283 56.3279L38.5037 56.4031V56.7124C38.5037 56.75 38.5442 56.7876 38.5819 56.828C38.5972 56.8543 38.6199 56.8755 38.6472 56.8889C38.6746 56.9023 38.7053 56.9073 38.7355 56.9032V57.0188L38.8717 56.9697C38.9164 56.9461 38.9661 56.9338 39.0166 56.9338C39.0671 56.9338 39.1169 56.9461 39.1615 56.9697L39.2774 57.0073V56.8916C39.3151 56.4696 39.3151 56.0475 39.3151 55.6255C39.2894 55.2397 39.3029 54.8523 39.3557 54.4692C39.3006 54.3969 39.3006 54.3218 39.263 54.2842Z" fill="#D8D8D8"/>
<path d="M40.9587 63.387H14.0794V36.5754H40.9587V63.387ZM12.5 35V65H42.5758V35H12.5Z" fill="#D8D8D8"/>
<path fill-rule="evenodd" clip-rule="evenodd" d="M245.479 47.7917C245.479 43.5654 245.479 42.7965 245.519 41.8772C245.56 40.958 245.789 40.4174 246.56 40.3018C246.814 40.2595 247.07 40.2334 247.327 40.2237C247.559 40.2237 247.713 40.1862 247.713 39.9925C247.713 39.7988 247.522 39.7236 247.133 39.7236C246.171 39.7236 244.438 39.8017 243.745 39.8017C243.053 39.8017 241.317 39.7236 239.854 39.7236C239.43 39.7236 239.239 39.7641 239.239 39.9925C239.239 40.2209 239.393 40.2237 239.7 40.2237C240.061 40.2237 240.421 40.2497 240.778 40.3018C241.702 40.4926 241.937 40.9551 241.972 41.8772C242.007 42.7994 242.012 43.5654 242.012 47.7917V52.7059C242.012 55.2787 242.012 57.4669 241.856 58.6204C241.74 59.4269 241.587 60.0426 241.047 60.1582C240.718 60.2244 240.384 60.263 240.048 60.2739C239.7 60.2739 239.584 60.349 239.584 60.5022C239.584 60.6554 239.778 60.7711 240.164 60.7711C241.279 60.7711 243.062 60.6959 243.667 60.6959C244.36 60.6959 246.13 60.7711 247.672 60.7711C247.98 60.7711 248.211 60.6959 248.211 60.5022C248.211 60.3085 248.058 60.2739 247.864 60.2739C247.412 60.271 246.962 60.2323 246.516 60.1582C245.824 60.0426 245.554 59.4269 245.516 58.6579C245.438 57.4669 245.438 55.2787 245.438 52.7059V50.1736H245.592L245.905 50.6101C246.484 51.4167 251.99 57.837 253.219 58.9441C254.448 60.0513 255.184 60.6352 256.697 60.7508C257.277 60.7884 257.775 60.7884 258.624 60.7884H261.05C261.589 60.7884 261.742 60.7132 261.742 60.5196C261.742 60.3259 261.589 60.2912 261.357 60.2912C260.755 60.2635 260.164 60.1192 259.618 59.8662C258.117 59.2881 256.845 58.0249 255.613 56.8715C254.535 55.8337 249.066 49.9568 248.078 48.6502C249.04 47.6529 253.237 43.4642 254.124 42.6577C255.317 41.5014 256.28 40.8915 257.126 40.5851C257.647 40.4027 258.194 40.2985 258.746 40.2758C259.015 40.2758 259.169 40.2382 259.169 40.0474C259.169 39.8566 258.975 39.7786 258.705 39.7786C257.859 39.7786 256.317 39.8537 255.433 39.8537C254.662 39.8537 253.161 39.7786 252.535 39.7786C252.228 39.7786 252.074 39.8162 252.074 40.0474C252.074 40.2006 252.19 40.2758 252.419 40.3162C252.648 40.3567 252.805 40.5446 252.805 40.8539C252.805 41.3136 252.19 42.0102 251.42 42.9266C250.649 43.8429 246.519 47.9825 245.594 49.0202H245.479V47.7917Z" fill="#D8D8D8"/>
<path fill-rule="evenodd" clip-rule="evenodd" d="M223.723 48.5604C223.645 48.5604 223.57 48.5199 223.57 48.3667V47.7886C223.57 43.5623 223.57 42.7934 223.607 41.8741C223.645 40.9549 223.877 40.4143 224.648 40.2987C224.915 40.2579 225.185 40.2318 225.456 40.2206C225.801 40.2206 225.955 40.183 225.955 39.9894C225.955 39.7957 225.764 39.761 225.375 39.761C224.297 39.761 222.526 39.8361 221.872 39.8361C221.1 39.8361 219.367 39.761 217.866 39.761C217.481 39.761 217.287 39.7986 217.287 39.9894C217.287 40.1801 217.44 40.2206 217.747 40.2206C218.108 40.2206 218.469 40.2468 218.825 40.2987C219.75 40.4894 219.985 40.952 220.02 41.8741C220.054 42.7963 220.057 43.5247 220.057 47.7886V52.6681C220.057 55.2438 220.057 57.432 219.904 58.5854C219.788 59.3919 219.634 60.0048 219.095 60.1204C218.766 60.1879 218.431 60.2266 218.095 60.236C217.747 60.236 217.632 60.3141 217.632 60.4673C217.632 60.6205 217.826 60.7361 218.211 60.7361C219.327 60.7361 221.109 60.6581 221.715 60.6581C222.483 60.6581 224.257 60.7361 226.062 60.7361C226.41 60.7361 226.642 60.6581 226.642 60.4673C226.642 60.2765 226.485 60.236 226.178 60.236C225.7 60.2379 225.223 60.1992 224.752 60.1204C223.906 60.0048 223.752 59.3919 223.677 58.623C223.52 57.432 223.52 55.2438 223.52 52.6681V50.211C223.52 50.0578 223.599 50.0578 223.677 50.0578H234.342C234.362 50.0555 234.384 50.0579 234.403 50.0648C234.423 50.0716 234.44 50.0829 234.455 50.0976C234.47 50.1123 234.481 50.1301 234.488 50.1498C234.495 50.1694 234.497 50.1903 234.495 50.211V52.6681C234.495 55.2438 234.495 57.432 234.342 58.5854C234.226 59.3919 234.072 60.0048 233.533 60.1204C233.204 60.1879 232.869 60.2266 232.533 60.236C232.185 60.236 232.07 60.3141 232.07 60.4673C232.07 60.6205 232.264 60.7361 232.649 60.7361C233.727 60.7361 235.498 60.6581 236.127 60.6581C236.895 60.6581 238.669 60.7361 240.474 60.7361C240.822 60.7361 241.054 60.6581 241.054 60.4673C241.054 60.2765 240.9 60.236 240.593 60.236C240.115 60.2379 239.638 60.1992 239.167 60.1204C238.32 60.0048 238.167 59.3919 238.089 58.623C237.935 57.432 237.935 55.2438 237.935 52.6681V47.7914C237.935 43.5652 237.935 42.7963 237.973 41.877C238.01 40.9578 238.242 40.4172 239.013 40.3016C239.281 40.2609 239.551 40.2348 239.822 40.2235C240.17 40.2235 240.323 40.1859 240.323 39.9923C240.323 39.7986 240.129 39.7639 239.744 39.7639C238.665 39.7639 236.892 39.839 236.237 39.839C235.469 39.839 233.736 39.7639 232.232 39.7639C231.849 39.7639 231.652 39.8014 231.652 39.9923C231.652 40.183 231.806 40.2235 232.116 40.2235C232.477 40.2237 232.837 40.2498 233.194 40.3016C234.115 40.4923 234.353 40.9549 234.388 41.877C234.423 42.7991 234.426 43.5276 234.426 47.7914V48.3696C234.426 48.5228 234.347 48.5633 234.272 48.5633L223.723 48.5604Z" fill="#D8D8D8"/>
<path fill-rule="evenodd" clip-rule="evenodd" d="M195.919 49.2136C194.776 48.9588 193.612 48.8041 192.442 48.7511C191.787 48.7135 191.364 48.676 191.132 48.6355C191.094 48.6355 191.053 48.5979 191.016 48.5979V48.0602C191.016 44.4873 191.016 42.5678 191.595 42.0678C192.056 41.6457 193.059 41.5677 195.253 41.5677C196.754 41.5677 197.832 41.6081 198.525 42.3366C198.923 42.8208 199.177 43.4067 199.258 44.0277C199.296 44.2965 199.333 44.4497 199.565 44.4497C199.797 44.4497 199.797 44.2965 199.797 43.9872C199.738 42.9027 199.596 41.8243 199.374 40.7612C199.22 40.1483 199.064 39.9922 197.603 39.9922C195.598 39.9922 193.865 39.917 192.595 39.9546H192.135C191.285 39.9546 190.323 40.0327 189.129 40.0327C188.59 40.0327 186.811 39.9546 185.362 39.9546C184.939 39.9546 184.745 39.9922 184.745 40.1859C184.745 40.3796 184.898 40.4172 185.208 40.4172C185.569 40.4179 185.929 40.443 186.286 40.4923C187.211 40.686 187.445 41.1456 187.48 42.0678C187.515 42.9899 187.518 43.7183 187.518 47.9446V52.8241C187.518 55.3593 187.518 57.5476 187.364 58.7386C187.248 59.5451 187.095 60.1608 186.556 60.2765C186.225 60.3414 185.89 60.3791 185.553 60.3892C185.208 60.3892 185.092 60.4673 185.092 60.6205C185.092 60.7736 185.283 60.8893 185.672 60.8893C186.211 60.8893 186.944 60.8517 187.599 60.8517C188.254 60.8517 188.868 60.8141 189.176 60.8141C189.602 60.8141 190.41 60.8517 191.257 60.8893C192.103 60.9269 192.873 60.9673 193.181 60.9673C198.305 60.9673 200.614 57.8945 200.614 54.9344C200.733 51.7083 198.192 49.9797 195.919 49.2136ZM193.917 59.7359C193.224 59.761 192.534 59.644 191.888 59.3919C191.002 59.045 190.923 58.5478 190.923 56.7411V50.1733C190.923 50.0201 190.964 49.9797 191.077 49.9797C191.503 49.9797 191.772 49.9797 192.271 50.0201C193.352 50.0577 194.01 50.2485 194.589 50.6735C196.708 52.1188 197.284 54.4748 197.284 56.2034C197.305 59.0855 195.186 59.7359 193.917 59.7359Z" fill="#D8D8D8"/>
<path d="M226.534 60.314L219.289 60.3516V60.1204C219.23 60.153 219.162 60.1671 219.095 60.1608C218.016 60.1608 217.71 59.4671 216.747 57.1631C214.974 52.9398 210.508 41.5676 209.815 40.0702C209.546 39.4169 209.351 39.1857 209.123 39.1857C208.893 39.1857 208.659 39.495 208.351 40.3015L201.347 57.7789C200.768 59.1606 200.269 60.1204 198.962 60.2764C198.797 60.3091 198.629 60.3217 198.461 60.314C198.229 60.314 198.113 60.3892 198.113 60.5453C198.113 60.7736 198.266 60.8141 198.652 60.8141C200.101 60.8141 201.26 60.7361 201.579 60.7361C202.466 60.7361 203.66 60.8141 204.544 60.8141C204.854 60.8141 205.007 60.7736 205.007 60.5453C205.007 60.3892 204.929 60.314 204.584 60.314H204.158C203.312 60.314 203.043 59.9671 203.043 59.4671C203.099 58.8849 203.246 58.3152 203.48 57.7789L204.97 53.7896C205.007 53.6364 205.083 53.5584 205.239 53.5584H211.476C211.629 53.5584 211.708 53.596 211.745 53.7521L213.98 59.6665C214.031 59.7888 214.031 59.9262 213.98 60.0487C213.93 60.1712 213.833 60.2687 213.71 60.3198C213.441 60.3574 213.325 60.395 213.325 60.5511C213.325 60.7072 213.673 60.7419 214.171 60.7794C216.405 60.8199 218.445 60.8199 219.448 60.8199H225.916C226.302 60.8199 226.609 60.7043 226.609 60.473C226.664 60.3892 226.609 60.3516 226.534 60.314ZM210.937 52.1708H205.816C205.7 52.1708 205.662 52.0928 205.7 51.9772L208.279 45.1406C208.32 45.0249 208.358 44.8717 208.433 44.8717C208.508 44.8717 208.549 45.0249 208.589 45.1406L211.09 52.0176C211.131 52.0928 211.09 52.1708 210.937 52.1708Z" fill="#D8D8D8"/>
<path d="M76.8105 47.7914C76.8105 43.6056 76.8105 42.8367 76.7728 41.9521C76.7351 41.0676 76.5032 40.5704 75.579 40.3767C75.2217 40.3274 74.8613 40.3023 74.5009 40.3015C74.1905 40.3015 74.037 40.2611 74.037 40.0703C74.037 39.8795 74.2313 39.839 74.6544 39.839C76.1178 39.839 77.842 39.9171 78.619 39.9171C79.7374 39.9171 81.3547 39.839 82.6267 39.839C86.1044 39.839 87.3248 40.9953 87.7478 41.4145C88.6174 42.2823 89.1144 43.4539 89.1328 44.681C89.1328 48.5979 86.2348 51.3296 82.3544 51.3296C82.1605 51.3361 81.9663 51.3235 81.7747 51.2921C81.6213 51.2545 81.4271 51.2545 81.4271 51.0608C81.4271 50.8671 81.6213 50.7544 82.1978 50.7544C83.7397 50.7544 85.8959 49.0199 85.8959 46.2217C85.8959 45.2996 85.8174 43.4553 84.2786 42.0735C83.524 41.3777 82.5328 40.9933 81.5051 40.9982C81.1424 40.9894 80.7801 41.0283 80.4274 41.1138C80.2736 41.1514 80.1955 41.3451 80.1955 41.6515V52.6681C80.1955 55.2032 80.1955 57.3944 80.349 58.5478C80.4274 59.3139 80.5809 59.9296 81.4271 60.0452C81.8124 60.0828 82.4297 60.1608 82.8528 60.1608C83.1628 60.1608 83.2759 60.236 83.2759 60.3892C83.2759 60.5424 83.0471 60.658 82.7371 60.658C80.9286 60.658 79.1955 60.5829 78.4624 60.5829C77.8478 60.5829 76.0744 60.658 74.9847 60.658C74.6397 60.658 74.4459 60.5829 74.4459 60.3892C74.4459 60.1955 74.5617 60.1608 74.8717 60.1608C75.2086 60.1689 75.5451 60.1299 75.8717 60.0452C76.4105 59.9296 76.5644 59.3139 76.6801 58.5478C76.8336 57.3915 76.8336 55.2032 76.8336 52.6681L76.8105 47.7914Z" fill="#D8D8D8"/>
<path d="M91.5991 53.4371C91.4426 53.4371 91.4049 53.4775 91.3672 53.6683L89.8776 57.5853C89.6433 58.1246 89.496 58.6971 89.4399 59.2821C89.4399 59.7822 89.6718 60.1262 90.5587 60.1262H90.9818C91.3295 60.1262 91.4049 60.1667 91.4049 60.3575C91.4049 60.5483 91.251 60.6263 90.9441 60.6263C90.0572 60.6263 88.8633 60.5511 88.0168 60.5511C87.7099 60.5511 86.7072 60.6263 85.2814 60.6263C84.9364 60.6263 84.7422 60.5887 84.7422 60.3575C84.7422 60.2043 84.858 60.1667 85.0899 60.1262C85.3103 60.0992 85.5287 60.0606 85.7449 60.0106C86.7449 59.8574 87.2083 58.9757 87.7476 57.591L94.6795 40.3074C95.0245 39.5009 95.178 39.1915 95.4476 39.1915C95.7172 39.1915 95.8707 39.4228 96.143 40.0761C96.7953 41.5735 101.226 52.83 102.997 57.0158C104.037 59.5134 104.846 59.9065 105.423 60.0106C105.804 60.0842 106.193 60.1229 106.582 60.1262C106.811 60.1262 106.927 60.1667 106.927 60.3575C106.927 60.5483 106.695 60.6263 105.657 60.6263C104.62 60.6263 102.652 60.6263 100.458 60.5887C99.9568 60.5511 99.6499 60.5511 99.6499 60.3575C99.6499 60.1638 99.7656 60.1262 100.035 60.1262C100.095 60.107 100.15 60.0744 100.196 60.0309C100.241 59.9874 100.277 59.9342 100.299 59.8752C100.321 59.8162 100.329 59.753 100.323 59.6903C100.317 59.6276 100.297 59.5671 100.264 59.5134L98.0703 53.6741C98.0572 53.6146 98.0222 53.5622 97.9722 53.5269C97.9226 53.4917 97.8614 53.4761 97.8006 53.4833H91.5991V53.4371ZM97.221 52.0553C97.3749 52.0553 97.3749 51.9773 97.3749 51.9021L94.871 45.1175C94.8333 45.0019 94.8333 44.8863 94.7172 44.8863C94.6014 44.8863 94.5637 45.0395 94.5637 45.1175L92.0222 51.8616C91.9814 51.9773 92.0222 52.0553 92.138 52.0553H97.221Z" fill="#D8D8D8"/>
<path d="M107.886 47.7914C107.886 43.6056 107.886 42.8367 107.848 41.9521C107.81 41.0676 107.579 40.5704 106.654 40.3767C106.297 40.3273 105.937 40.3021 105.576 40.3015C105.269 40.3015 105.115 40.2611 105.115 40.0703C105.115 39.8795 105.306 39.839 105.729 39.839C107.193 39.839 108.917 39.9171 109.497 39.9171C110.844 39.9171 111.922 39.839 112.885 39.839C117.89 39.839 118.776 42.5274 118.776 43.9872C118.776 46.2535 117.467 47.5977 115.965 48.7887C118.237 49.5576 120.97 51.5176 120.97 54.7436C120.97 57.7008 118.652 60.7361 113.615 60.7361C113.27 60.7361 112.499 60.6985 111.691 60.658C110.882 60.6176 110.033 60.5829 109.61 60.5829C109.303 60.5829 108.686 60.5829 108.033 60.6204C107.381 60.658 106.683 60.658 106.106 60.658C105.761 60.658 105.567 60.5829 105.567 60.3892C105.567 60.1955 105.683 60.1608 105.99 60.1608C106.328 60.169 106.666 60.1301 106.993 60.0452C107.532 59.9296 107.686 59.3139 107.802 58.5478C107.955 57.3915 107.955 55.2032 107.955 52.6681L107.886 47.7914ZM111.198 48.251C111.198 48.4823 111.276 48.5199 111.392 48.5603C111.826 48.6182 112.262 48.6433 112.699 48.6355C113.624 48.6355 114.203 48.5199 114.702 48.0978C115.435 47.5197 115.821 46.5224 115.821 45.1782C115.821 43.3339 114.742 40.9144 112.343 40.9144C112.034 40.9058 111.725 40.9194 111.418 40.9548C111.224 40.9924 111.186 41.108 111.186 41.4145L111.198 48.251ZM114.858 50.4422C114.279 50.0201 113.664 49.8265 112.54 49.7889C112.039 49.7513 111.772 49.7513 111.346 49.7513C111.23 49.7513 111.192 49.7889 111.192 49.9421V56.4723C111.192 58.279 111.271 58.7848 112.154 59.1231C112.791 59.3759 113.473 59.493 114.157 59.4671C115.392 59.4671 117.507 58.8166 117.507 55.9346C117.554 54.2059 116.936 51.902 114.858 50.4422Z" fill="#D8D8D8"/>
<path d="M141.544 48.9825H141.697C142.622 47.9823 146.664 43.8746 147.473 42.9119C148.281 41.9493 148.861 41.2989 148.861 40.8393C148.861 40.53 148.745 40.3392 148.476 40.3016C148.206 40.264 148.128 40.186 148.128 40.0328C148.128 39.8796 148.284 39.8015 148.551 39.8015C149.131 39.8015 150.669 39.8796 151.403 39.8796C152.249 39.8796 153.791 39.8015 154.637 39.8015C154.906 39.8015 155.098 39.8391 155.098 40.0328C155.098 40.2264 154.944 40.2611 154.674 40.2611C154.122 40.2838 153.576 40.3881 153.054 40.5704C151.935 41.0519 150.926 41.7573 150.09 42.6431C149.244 43.4496 145.085 47.5978 144.12 48.598C145.123 49.9046 150.513 55.7034 151.591 56.692C152.785 57.8483 154.058 59.074 155.521 59.6492C156.052 59.8982 156.627 60.0415 157.213 60.0713C157.408 60.0713 157.561 60.1089 157.561 60.3025C157.561 60.4962 157.408 60.5714 156.906 60.5714H154.518C153.709 60.5714 153.208 60.5714 152.594 60.5338C151.09 60.3777 150.359 59.8025 149.166 58.7271C147.971 57.6518 142.5 51.2748 141.92 50.5059L141.613 50.0838H141.463V52.5814C141.463 55.1166 141.463 57.3049 141.538 58.4583C141.576 59.2272 141.845 59.84 142.541 59.9557C142.926 59.9932 143.54 60.0713 143.888 60.0713C144.117 60.0713 144.233 60.1494 144.233 60.3025C144.233 60.4558 144.004 60.5714 143.694 60.5714C142.155 60.5714 140.422 60.4934 139.729 60.4934C139.112 60.4934 137.341 60.5714 136.252 60.5714C135.904 60.5714 135.713 60.4934 135.713 60.3025C135.713 60.1118 135.826 60.0713 136.136 60.0713C136.473 60.0808 136.81 60.0418 137.136 59.9557C137.675 59.84 137.828 59.2272 137.944 58.4583C138.098 57.302 138.098 55.1166 138.098 52.5814V47.7539C138.098 43.5652 138.098 42.7963 138.06 41.9146C138.023 41.033 137.791 40.53 136.866 40.3392C136.509 40.2887 136.149 40.2626 135.788 40.2611C135.481 40.2611 135.328 40.2236 135.328 40.0328C135.328 39.842 135.519 39.8015 135.942 39.8015C137.405 39.8015 139.129 39.8796 139.793 39.8796C140.457 39.8796 142.181 39.8015 143.143 39.8015C143.529 39.8015 143.723 39.8391 143.723 40.0328C143.723 40.2264 143.566 40.2611 143.338 40.2611C143.079 40.2724 142.822 40.2984 142.567 40.3392C141.833 40.4924 141.604 40.9549 141.564 41.9146C141.526 42.7819 141.526 43.5652 141.526 47.7539L141.544 48.9825Z" fill="#D8D8D8"/>
<path d="M159.102 58.0102C156.407 55.6282 155.677 52.5554 155.677 49.9161C155.677 48.0343 156.256 44.8053 158.911 42.4002C160.913 40.5964 163.533 39.4806 167.605 39.4806C168.945 39.4792 170.283 39.569 171.61 39.7494C172.651 39.9055 173.535 40.1339 174.383 40.212C174.691 40.2495 174.807 40.3651 174.807 40.556C174.807 40.7467 174.728 41.0965 174.653 42.0562C174.578 43.016 174.613 44.4758 174.575 45.0135C174.537 45.4355 174.5 45.6263 174.23 45.6263C173.96 45.6263 173.96 45.3979 173.96 45.0135C173.909 44.0687 173.528 43.1716 172.882 42.4783C171.958 41.5186 169.802 40.7872 167.298 40.7872C164.91 40.7872 163.33 41.4029 162.099 42.4783C160.096 44.3226 159.557 46.9329 159.557 49.6213C159.557 56.1919 164.562 59.418 168.251 59.418C170.715 59.418 172.219 59.1491 173.297 57.8801C173.745 57.3614 174.063 56.7427 174.221 56.0763C174.296 55.6542 174.375 55.5386 174.566 55.5386C174.757 55.5386 174.836 55.7294 174.836 55.9606C174.72 57.1765 174.521 58.3828 174.239 59.5712C174.203 59.7601 174.116 59.9356 173.986 60.078C173.857 60.2205 173.691 60.3242 173.505 60.3777C172.39 60.8026 170.318 60.9934 168.538 60.9934C164.765 61.0165 161.606 60.1493 159.102 58.0102Z" fill="#D8D8D8"/>
<path d="M72.9995 60.1205C72.5218 60.1209 72.0449 60.0822 71.5738 60.0048C70.7653 59.8921 70.5711 59.392 70.458 58.6607C70.3422 57.4696 70.3422 55.319 70.3422 52.6306V47.7539C70.3422 43.5652 70.3422 42.7963 70.3799 41.9146C70.4176 40.9549 70.6491 40.4924 71.3795 40.3392C71.6511 40.2978 71.9249 40.2717 72.1995 40.2611C72.4691 40.2611 72.6257 40.2236 72.6257 39.9923C72.6257 39.8391 72.3938 39.7639 72.0461 39.7639H51.7803C51.3572 39.7639 51.1253 39.8015 51.1253 39.9923C51.1253 40.1831 51.2788 40.2611 51.5484 40.2611C51.8861 40.2603 52.2226 40.2991 52.5511 40.3768C53.1653 40.53 53.4349 40.9925 53.4726 41.9146C53.5103 42.8368 53.5134 43.5652 53.5134 47.7539V52.593C53.5134 55.2814 53.5134 57.4321 53.3595 58.5855C53.2815 59.392 53.1276 59.8516 52.5511 59.9672C52.2211 60.0357 51.8853 60.0744 51.5484 60.0829C51.2007 60.0829 51.1253 60.1609 51.1253 60.3142C51.1253 60.4673 51.3165 60.583 51.6642 60.583C52.7799 60.583 54.513 60.5049 55.1418 60.5049C55.8722 60.5049 57.6053 60.583 59.4541 60.583C59.7615 60.583 59.9934 60.5049 59.9934 60.3142C59.9934 60.1233 59.8395 60.0829 59.5699 60.0829C59.0926 60.083 58.6157 60.0444 58.1441 59.9672C57.3357 59.8516 57.1445 59.3544 57.0284 58.6231C56.9126 57.4321 56.9126 55.2814 56.9126 52.593V47.7539C56.9126 43.5652 56.9126 42.99 56.9907 42.1054C57.0284 41.1457 57.2603 40.8393 57.9907 40.6861C58.1849 40.6456 58.3384 40.6456 58.4918 40.608H65.1922C65.388 40.6113 65.5822 40.6375 65.7718 40.6861C66.3891 40.8393 66.6588 41.1457 66.6964 42.0678C66.7341 42.99 66.7368 43.5276 66.7368 47.7135V52.5554C66.7368 55.2438 66.7368 57.3945 66.5803 58.5479C66.5049 59.3544 66.3515 59.814 65.7718 59.9297C65.443 59.9983 65.108 60.037 64.7722 60.0453C64.4241 60.0453 64.3488 60.1205 64.3488 60.2766C64.3488 60.4327 64.5403 60.5454 64.888 60.5454C66.0038 60.5454 67.7368 60.4673 68.3657 60.4673C69.0961 60.4673 70.8288 60.5454 72.678 60.5454C72.9849 60.5454 73.2168 60.4673 73.2168 60.2766C73.4226 60.1985 73.3068 60.1205 72.9995 60.1205Z" fill="#D8D8D8"/>
<path d="M123.674 47.7915C123.674 43.6057 123.674 42.8368 123.637 41.9522C123.599 41.0676 123.367 40.5704 122.443 40.3768C122.085 40.3273 121.725 40.3022 121.365 40.3016C121.057 40.3016 120.904 40.2611 120.904 40.0703C120.904 39.8796 121.095 39.8391 121.518 39.8391C122.251 39.8391 123.06 39.8796 123.752 39.8796C124.445 39.8796 125.1 39.9171 125.491 39.9171C126.378 39.9171 131.847 39.9171 132.386 39.8796C132.785 39.8483 133.183 39.7962 133.577 39.7234C133.715 39.6733 133.858 39.6356 134.003 39.6107C134.157 39.6107 134.157 39.7234 134.157 39.8391C134.044 40.4237 133.967 41.0144 133.925 41.6082C133.887 41.8771 133.846 43.1056 133.771 43.412C133.734 43.5652 133.693 43.7184 133.502 43.7184C133.31 43.7184 133.27 43.5652 133.27 43.334C133.264 42.9961 133.213 42.6606 133.116 42.3367C132.925 41.8366 132.655 41.5302 131.267 41.3394C130.806 41.2989 127.917 41.2238 127.34 41.2238C127.187 41.2238 127.146 41.2989 127.146 41.4926V48.4303C127.146 48.6211 127.187 48.7368 127.34 48.7368C127.958 48.7368 131.108 48.7368 131.769 48.6992C132.429 48.6616 132.847 48.5459 133.079 48.2771C133.31 48.0083 133.385 47.9303 133.502 47.9303C133.617 47.9303 133.693 47.9678 133.693 48.1615C133.693 48.3552 133.577 48.7743 133.464 50.159C133.423 50.6967 133.348 51.8096 133.348 52.0033C133.348 52.1969 133.348 52.5409 133.116 52.5409C133.085 52.5459 133.052 52.5433 133.022 52.5334C132.991 52.5236 132.964 52.5067 132.941 52.4841C132.919 52.4616 132.902 52.434 132.892 52.4037C132.882 52.3734 132.879 52.3412 132.884 52.3097C132.847 52.0409 132.847 51.694 132.768 51.3095C132.615 50.7718 132.229 50.3498 131.229 50.2341C130.69 50.1966 127.995 50.159 127.303 50.159C127.146 50.159 127.146 50.2746 127.146 50.4278V52.5785C127.146 53.5007 127.109 56.0474 127.146 56.8424C127.187 58.7242 127.647 59.1549 130.459 59.1549C131.192 59.1549 132.345 59.1549 133.041 58.8109C133.736 58.4669 134.078 57.8888 134.272 56.7874C134.31 56.481 134.388 56.3654 134.58 56.3654C134.771 56.3654 134.811 56.5966 134.811 56.8655C134.757 57.8833 134.641 58.8969 134.464 59.9007C134.272 60.6292 134.04 60.6292 132.962 60.6292C130.882 60.6292 129.38 60.5916 128.187 60.5541C126.992 60.5165 126.158 60.476 125.338 60.476C125.03 60.476 124.413 60.476 123.758 60.5136C123.104 60.5512 122.411 60.5541 121.872 60.5541C121.524 60.5541 121.333 60.476 121.333 60.2852C121.333 60.0944 121.449 60.0539 121.756 60.0539C122.094 60.0619 122.431 60.023 122.759 59.9383C123.297 59.8227 123.451 59.207 123.567 58.4409C123.721 57.2846 123.721 55.1368 123.721 52.6016L123.674 47.7915Z" fill="#D8D8D8"/>
</svg>
