<svg width="276" height="100" viewBox="0 0 276 100" fill="none" xmlns="http://www.w3.org/2000/svg">
<path d="M64.8717 30.6554C66.639 30.4025 68.4273 30.3465 70.2102 30.3552C123.103 30.3552 175.995 30.3552 228.888 30.3552V47.5352C228.866 47.8585 228.85 48.1823 228.832 48.5057C228.591 52.3012 227.73 56.1074 225.922 59.4756C225.763 59.7529 225.609 60.0321 225.449 60.3082C225.253 60.616 225.057 60.9234 224.859 61.2292C224.645 61.5248 224.434 61.8222 224.218 62.1155C224.003 62.3829 223.786 62.6484 223.57 62.9143C223.318 63.1969 223.062 63.4753 222.806 63.7549C222.622 63.9377 222.429 64.1118 222.245 64.295C221.967 64.578 221.653 64.8202 221.36 65.0861C221.062 65.3333 220.749 65.5622 220.444 65.801C220.146 66.0116 219.842 66.2146 219.54 66.4207C219.262 66.594 218.979 66.7582 218.7 66.9284C215.832 68.5731 212.581 69.4689 209.306 69.8163C207.892 69.9729 206.468 70.0132 205.046 70.0056C152.086 70.0056 99.1265 70.006 46.1667 70.0056C46.1667 65.0347 46.1667 60.0637 46.1667 55.0927C46.1663 54.0392 46.1698 52.9849 46.2391 51.9333C46.4105 48.9684 46.9544 46.0078 48.0334 43.2342C48.1881 42.808 48.3877 42.4004 48.5625 41.9826C48.7327 41.631 48.9106 41.2833 49.0839 40.9336C49.261 40.6179 49.4385 40.3029 49.6191 39.989C49.8137 39.6774 50.016 39.3708 50.2152 39.0623C50.4285 38.7652 50.6425 38.4685 50.8596 38.1745C51.0809 37.9017 51.3022 37.6294 51.5273 37.3601C51.8861 36.9716 52.2301 36.5675 52.6231 36.2125C53.9894 34.8748 55.5815 33.7783 57.2848 32.9155C59.6585 31.7298 62.2463 31.0043 64.8717 30.6554ZM68.3881 32.0921C65.5486 32.1869 62.6984 32.6303 60.0341 33.6408C58.0352 34.3919 56.1521 35.4702 54.5359 36.8692C52.7404 38.4099 51.3022 40.3482 50.2708 42.4732C49.8495 43.3435 49.4911 44.2435 49.1921 45.163C48.372 47.7043 48.0007 50.3731 47.9146 53.0367C47.8738 54.6235 47.8956 56.211 47.8902 57.7982C47.8906 59.9658 47.8895 62.1338 47.891 64.3014C47.8895 65.4224 47.8906 66.543 47.8902 67.6639C47.8929 67.9107 47.8792 68.1583 47.9108 68.404C50.2521 68.3945 52.5938 68.4025 54.9355 68.3998C101.238 68.3998 147.541 68.3998 193.844 68.3998C197.839 68.4028 201.835 68.3941 205.83 68.4044L205.815 68.3609C206.251 68.3766 206.687 68.359 207.124 68.3701L207.112 68.3229C207.465 68.3282 207.821 68.3499 208.172 68.2935C208.229 68.2863 208.299 68.2989 208.349 68.2543C208.487 68.2505 208.625 68.2528 208.765 68.2532L208.748 68.2086C208.89 68.1983 209.056 68.2577 209.186 68.1777C209.273 68.1755 209.362 68.1762 209.452 68.1796L209.436 68.1332C209.568 68.1404 209.703 68.1442 209.837 68.121C209.906 68.0947 209.981 68.0993 210.057 68.0985L210.043 68.0562C210.202 68.0863 210.355 68.0288 210.514 68.0223L210.5 67.9797C210.578 67.9835 210.66 67.9862 210.743 67.99L210.729 67.9404C210.796 67.9443 210.868 67.9488 210.939 67.9538L210.921 67.905C211.069 67.9374 211.208 67.8719 211.355 67.873L211.337 67.8266C211.403 67.83 211.473 67.8342 211.543 67.8387L211.528 67.7904C211.596 67.7839 211.694 67.825 211.747 67.7565C211.791 67.7576 211.838 67.7595 211.887 67.7626L211.872 67.7131C211.936 67.7161 212.006 67.7199 212.075 67.7241L212.061 67.6761C212.128 67.6784 212.208 67.6963 212.27 67.6514C212.359 67.6411 212.443 67.6015 212.537 67.6053L212.519 67.5596C212.573 67.5634 212.629 67.5679 212.687 67.5729L212.671 67.5207C212.724 67.5249 212.779 67.5295 212.837 67.5348L212.823 67.4868C212.879 67.4868 212.951 67.5047 212.995 67.4514C213.024 67.4533 213.081 67.4571 213.11 67.459L213.092 67.4087C213.154 67.4114 213.222 67.4144 213.29 67.4179L213.283 67.3661C213.311 67.3706 213.367 67.379 213.395 67.3832C213.398 67.3695 213.403 67.3417 213.405 67.3276C213.434 67.3322 213.492 67.3417 213.521 67.3466L213.51 67.2903C213.542 67.2945 213.605 67.3036 213.636 67.3078L213.624 67.2522C213.656 67.2568 213.72 67.2659 213.752 67.2705L213.738 67.2141C213.771 67.219 213.836 67.2282 213.868 67.2331L213.852 67.1787C213.891 67.1817 213.971 67.1882 214.01 67.1912C214.011 67.1779 214.012 67.1512 214.012 67.1379C214.036 67.141 214.083 67.1474 214.107 67.1505C214.124 67.0789 214.193 67.1158 214.247 67.1154L214.233 67.0621C214.265 67.0663 214.328 67.0747 214.36 67.0789L214.347 67.0328C214.414 67.0267 214.486 67.0115 214.553 66.9901L214.538 66.9463C214.57 66.9513 214.634 66.9608 214.666 66.9658L214.652 66.9094C214.683 66.9136 214.743 66.9223 214.773 66.9269C214.773 66.9143 214.771 66.8888 214.77 66.8762C214.829 66.8968 214.872 66.8827 214.9 66.8336C214.917 66.8382 214.953 66.8477 214.97 66.8523L214.958 66.7944C214.989 66.7989 215.052 66.8084 215.083 66.813L215.071 66.757C215.1 66.7612 215.157 66.7692 215.185 66.7734C215.188 66.7597 215.193 66.7323 215.195 66.7186C215.223 66.7227 215.279 66.7315 215.307 66.7357L215.302 66.6873C215.363 66.7132 215.413 66.6645 215.439 66.6138C215.467 66.6165 215.523 66.6214 215.551 66.6241L215.528 66.5769C215.594 66.57 215.666 66.5632 215.729 66.5308L215.72 66.4973C215.793 66.4965 215.898 66.4973 215.928 66.4112C215.945 66.418 215.979 66.4314 215.996 66.4382L215.988 66.367C216.012 66.3765 216.059 66.3959 216.082 66.4058L216.064 66.34C216.095 66.3438 216.158 66.3514 216.19 66.3556L216.177 66.2958C216.199 66.3019 216.241 66.3137 216.262 66.3198L216.256 66.2562C216.277 66.2626 216.318 66.2763 216.339 66.2828L216.331 66.2181C216.352 66.2249 216.394 66.239 216.414 66.2459L216.407 66.18C216.428 66.1868 216.471 66.2009 216.492 66.2078L216.483 66.1419C216.504 66.1491 216.547 66.1636 216.568 66.1708L216.559 66.1038C216.581 66.111 216.625 66.1255 216.646 66.1328L216.635 66.0665C216.657 66.0737 216.699 66.0882 216.721 66.095L216.709 66.0402C216.763 66.0372 216.823 66.0231 216.878 66.0033L216.865 65.9515C216.886 65.9591 216.928 65.9743 216.949 65.9819L216.937 65.9252C216.989 65.9396 217.034 65.9286 217.071 65.8928C217.106 65.8779 217.143 65.8627 217.182 65.8478L217.166 65.8124C217.229 65.7861 217.299 65.7823 217.367 65.7614C217.365 65.7439 217.36 65.7092 217.358 65.6917C217.387 65.6951 217.447 65.7023 217.476 65.7058L217.468 65.6544L217.516 65.6692C217.535 65.6578 217.571 65.6349 217.59 65.6235L217.599 65.5702C217.616 65.5774 217.652 65.5923 217.67 65.5995L217.657 65.5355L217.717 65.5656L217.699 65.5031C217.766 65.5309 217.808 65.518 217.823 65.4643L217.867 65.4776L217.855 65.4136C217.877 65.4228 217.919 65.4414 217.941 65.4506L217.929 65.3828C217.949 65.3885 217.99 65.3995 218.011 65.4053L218.002 65.3481L218.059 65.3656L218.045 65.3036L218.112 65.3268C218.116 65.3157 218.125 65.294 218.129 65.2834C218.165 65.2659 218.203 65.2518 218.244 65.2411L218.232 65.192L218.286 65.2213L218.272 65.1539C218.294 65.1592 218.338 65.1706 218.361 65.1763L218.35 65.1127C218.371 65.12 218.411 65.1344 218.431 65.1417L218.423 65.0887C218.493 65.1028 218.521 65.0754 218.506 65.0061C218.536 65.0088 218.595 65.0137 218.625 65.0164C218.622 64.9947 218.617 64.9512 218.614 64.9295C218.645 64.9333 218.706 64.9413 218.737 64.9451L218.723 64.8945L218.785 64.9143L218.769 64.8614C218.809 64.8488 218.85 64.8354 218.894 64.8221L218.884 64.7878C218.922 64.7718 218.963 64.7574 219.006 64.7444L218.994 64.6968L219.056 64.7254L219.031 64.6557C219.053 64.6625 219.095 64.6759 219.117 64.6823L219.108 64.6359C219.169 64.6374 219.199 64.6077 219.198 64.5467C219.217 64.5513 219.254 64.5604 219.272 64.565L219.263 64.5151C219.336 64.5326 219.363 64.5041 219.345 64.4302C219.366 64.4367 219.408 64.45 219.429 64.4565L219.415 64.4077C219.491 64.41 219.557 64.3677 219.62 64.3266L219.639 64.3277C219.757 64.2001 219.904 64.1053 220.036 63.9925C221.527 62.8027 222.8 61.3458 223.812 59.73C225.105 57.6744 225.97 55.3689 226.49 53.0017C226.883 51.2385 227.083 49.4369 227.161 47.633C227.193 46.6934 227.195 45.753 227.193 44.8126C227.193 40.568 227.193 36.3233 227.193 32.0787C175.918 32.0787 124.643 32.0787 73.3689 32.0787C71.7086 32.0837 70.048 32.0669 68.3881 32.0921Z" fill="#D8D8D8"/>
<path d="M121.751 39.2215C122.337 38.7321 123.258 38.718 123.856 39.1933C124.394 39.6077 124.653 40.2979 124.674 40.9614C124.681 41.4032 124.674 41.8451 124.678 42.2869C125.821 42.2854 126.963 42.2865 128.106 42.2861C128.71 42.2888 129.339 42.2785 129.904 42.525C130.28 42.6826 130.601 42.9954 130.71 43.3957C130.809 43.7621 130.793 44.1601 130.681 44.522C130.559 44.907 130.251 45.2144 129.883 45.3702C129.264 45.6418 128.574 45.6033 127.915 45.6052C126.836 45.6052 125.756 45.6048 124.677 45.6052C124.677 47.8406 124.677 50.0761 124.677 52.3119C124.691 52.676 124.693 53.0447 124.78 53.4012C124.86 53.7398 125.007 54.0746 125.26 54.3203C125.519 54.585 125.874 54.7347 126.232 54.809C126.963 54.9667 127.712 54.8429 128.447 54.793C129.001 54.7465 129.591 54.673 130.111 54.916C130.513 55.0973 130.795 55.4946 130.869 55.9254C130.908 56.1783 130.932 56.4396 130.877 56.6925C130.801 57.0684 130.551 57.396 130.227 57.5952C129.694 57.9425 129.053 58.0389 128.446 58.1783C127.508 58.3779 126.539 58.3611 125.59 58.2552C124.684 58.1318 123.772 57.89 123 57.383C122.426 57.0174 121.943 56.507 121.618 55.9078C121.222 55.1944 121.04 54.3805 120.986 53.5715C120.944 52.6322 120.971 51.6922 120.964 50.7525C120.966 47.5401 120.96 44.3273 120.966 41.1149C120.961 40.4171 121.195 39.674 121.751 39.2215Z" fill="#D8D8D8"/>
<path d="M71.778 41.6169C72.1147 41.3751 72.5406 41.2597 72.9535 41.3038C73.6672 41.3606 74.3509 41.863 74.549 42.5627C75.7998 46.5308 77.0461 50.5008 78.2965 54.4685C78.3784 54.6505 78.6599 54.673 78.7852 54.5263C78.8694 54.4395 78.9429 54.3401 78.9791 54.2232C79.7279 52.2563 80.4859 50.2932 81.2359 48.327C81.5962 47.4224 81.9013 46.4942 82.329 45.6178C82.4688 45.3336 82.612 45.0483 82.8024 44.7939C83.1205 44.3075 83.6195 43.9327 84.1919 43.8097C84.7983 43.6836 85.4588 43.7526 85.9989 44.0683C86.4639 44.3418 86.8155 44.7764 87.0608 45.2517C87.2649 45.6143 87.4062 46.0078 87.5456 46.399C88.5538 49.0355 89.5655 51.6705 90.5748 54.3066C90.6373 54.4292 90.7561 54.5153 90.8712 54.5873C91.0022 54.6661 91.1869 54.5877 91.2334 54.4452C92.4915 50.4345 93.7568 46.4256 95.0167 42.4153C95.1238 42.0831 95.3405 41.7868 95.63 41.5907C96.2272 41.1846 97.0663 41.1823 97.6738 41.5697C98.2844 41.9883 98.6116 42.7874 98.4436 43.5126C98.3724 43.7945 98.2768 44.0695 98.1922 44.3475C97.0473 48.0257 95.9031 51.7047 94.7585 55.383C94.5761 56.0248 94.255 56.6319 93.7869 57.1114C92.7924 58.1532 91.2193 58.5714 89.8321 58.2042C89.1145 58.0176 88.4571 57.6241 87.9391 57.0958C87.5228 56.6631 87.196 56.1455 86.9766 55.5871C86.1946 53.5871 85.4096 51.5882 84.6288 49.5878C83.9215 51.603 83.2248 53.6221 82.5214 55.6385C82.2589 56.2952 81.8415 56.8913 81.3044 57.3525C80.5712 57.9882 79.6022 58.3505 78.6302 58.3318C77.5512 58.3413 76.458 57.9239 75.7164 57.129C75.286 56.6696 74.9794 56.1021 74.7992 55.501C73.6257 51.736 72.4564 47.9698 71.2833 44.2043C71.1675 43.8063 70.9911 43.4063 71.0391 42.982C71.073 42.4476 71.3579 41.9445 71.778 41.6169Z" fill="#D8D8D8"/>
<path d="M107.352 41.4482C108.375 41.3217 109.412 41.3488 110.435 41.4539C112.04 41.6322 113.646 42.1106 114.977 43.0475C116.164 43.8729 117.076 45.0735 117.577 46.4268C117.911 47.2971 118.087 48.2227 118.151 49.1509C118.188 49.6331 118.179 50.1172 118.179 50.6005C118.179 52.2128 118.179 53.8247 118.179 55.4367C118.173 55.9215 118.211 56.4152 118.086 56.8894C117.987 57.2337 117.85 57.5792 117.599 57.8423C117.354 58.1139 117.007 58.2876 116.643 58.3234C116.262 58.3554 115.858 58.3135 115.524 58.1147C115.246 57.9459 115.002 57.7136 114.839 57.4302C114.614 57.0204 114.607 56.5367 114.602 56.0815C113.537 57.0303 112.269 57.7639 110.887 58.1372C109.062 58.6281 107.089 58.5744 105.296 57.9738C103.875 57.4961 102.575 56.6525 101.583 55.5254C100.577 54.3877 99.8955 52.9689 99.6296 51.4735C99.3066 49.6879 99.5115 47.7907 100.307 46.1518C100.893 44.9379 101.799 43.8866 102.899 43.1096C104.206 42.1803 105.765 41.6367 107.352 41.4482ZM107.978 44.7219C106.548 44.8659 105.126 45.4932 104.2 46.6161C103.668 47.24 103.32 48.0067 103.162 48.8088C102.997 49.7542 103.024 50.751 103.354 51.6594C103.816 52.9754 104.909 54.019 106.194 54.5313C107.038 54.8844 107.958 55.0287 108.87 55.0196C109.696 55.0074 110.526 54.8813 111.307 54.6033C112.015 54.3428 112.685 53.9565 113.228 53.4298C113.715 52.9647 114.096 52.393 114.347 51.7691C114.695 50.9071 114.784 49.9565 114.694 49.0362C114.614 48.2668 114.381 47.5028 113.945 46.8587C113.514 46.2112 112.896 45.6981 112.197 45.3633C111.329 44.9405 110.363 44.7562 109.404 44.696C108.929 44.6781 108.451 44.6648 107.978 44.7219Z" fill="#D8D8D8"/>
<path d="M158.1 41.4096C159.888 41.2527 161.727 41.4904 163.377 42.2148C164.717 42.7995 165.925 43.7087 166.806 44.8799C167.74 46.1018 168.295 47.5994 168.412 49.1302C168.546 50.8054 168.22 52.5354 167.378 53.9991C166.664 55.2644 165.589 56.3168 164.328 57.034C162.975 57.8183 161.424 58.2205 159.869 58.3142C158.048 58.4212 156.182 58.1154 154.542 57.2965C153.237 56.6554 152.084 55.6884 151.27 54.4798C150.42 53.2404 149.95 51.7538 149.887 50.255C149.812 48.6168 150.181 46.9413 151.038 45.5343C151.768 44.3109 152.84 43.3015 154.084 42.6117C155.312 41.9185 156.7 41.5388 158.1 41.4096ZM158.369 44.7226C157.464 44.8182 156.571 45.0924 155.797 45.5762C155.202 45.9418 154.682 46.432 154.295 47.0136C153.844 47.668 153.585 48.4416 153.493 49.2281C153.392 50.186 153.517 51.1786 153.918 52.0589C154.222 52.7338 154.69 53.3348 155.272 53.7927C155.851 54.2551 156.534 54.58 157.248 54.7746C158.224 55.0351 159.254 55.0854 160.253 54.938C160.93 54.8314 161.599 54.6333 162.203 54.305C162.907 53.9408 163.52 53.4045 163.976 52.7574C164.966 51.3485 165.106 49.4403 164.493 47.8512C164.216 47.1568 163.774 46.5276 163.207 46.0386C162.683 45.5819 162.059 45.2471 161.403 45.0235C160.429 44.7058 159.386 44.6156 158.369 44.7226Z" fill="#D8D8D8"/>
<path d="M195.62 41.527C196.64 41.4691 197.662 41.5034 198.684 41.5114C199.694 41.5388 200.709 41.5396 201.713 41.6725C202.304 41.7631 202.924 41.9486 203.347 42.3954C203.796 42.8658 203.826 43.6367 203.501 44.1829C203.307 44.5017 202.969 44.7066 202.62 44.8152C202.149 44.9676 201.647 44.9443 201.159 44.9363C200.041 44.899 198.924 44.8422 197.807 44.8125C196.81 44.8042 195.805 44.7931 194.821 44.9771C194.428 45.0578 194.019 45.1649 193.707 45.4319C193.509 45.5975 193.4 45.8497 193.383 46.1041C193.355 46.4229 193.399 46.7711 193.608 47.027C193.854 47.3321 194.231 47.4883 194.594 47.609C195.377 47.8558 196.194 47.967 197.005 48.0817C198.588 48.2767 200.181 48.5266 201.68 49.0895C202.373 49.3626 203.052 49.7054 203.605 50.2116C204.127 50.6721 204.494 51.2971 204.656 51.9728C204.844 52.7887 204.807 53.6499 204.595 54.4577C204.395 55.1955 203.968 55.8701 203.381 56.3603C203.213 56.5005 203.033 56.6246 202.868 56.7663C202.291 57.2161 201.604 57.5014 200.903 57.6926C199.893 57.9524 198.848 58.0514 197.807 58.0644C195.825 58.0644 193.83 58.0983 191.867 57.7871C191.418 57.6877 190.943 57.666 190.525 57.4591C190.178 57.2877 189.901 56.9823 189.773 56.617C189.671 56.3264 189.644 56.0118 189.678 55.7067C189.722 55.3144 189.93 54.932 190.269 54.7198C190.603 54.4939 191.008 54.3934 191.406 54.3717C191.718 54.3298 192.014 54.4589 192.32 54.4993C193.353 54.6832 194.4 54.783 195.448 54.8436C196.5 54.8939 197.557 54.9167 198.608 54.8272C199.269 54.7602 199.945 54.665 200.545 54.3625C200.851 54.2003 201.137 53.9565 201.255 53.6217C201.366 53.2995 201.372 52.9079 201.15 52.6303C200.863 52.2642 200.403 52.1027 199.976 51.966C198.398 51.523 196.742 51.5367 195.139 51.2328C194.246 51.069 193.356 50.8458 192.528 50.4672C191.917 50.1796 191.333 49.8075 190.889 49.2918C190.341 48.6763 190.049 47.8669 189.965 47.0544C189.876 46.1521 189.961 45.2136 190.331 44.3779C190.634 43.7034 191.128 43.1206 191.735 42.699C192.869 41.9117 194.265 41.623 195.62 41.527Z" fill="#D8D8D8"/>
<path d="M178.022 41.6786C179.818 41.5282 181.674 41.7007 183.346 42.4031C183.684 42.5668 184.031 42.7135 184.344 42.9234C185.624 43.6684 186.629 44.8758 187.121 46.274C187.411 47.0724 187.537 47.924 187.539 48.7715C187.539 50.9799 187.538 53.1887 187.538 55.397C187.527 55.8686 187.572 56.3447 187.489 56.8117C187.406 57.3072 187.177 57.797 186.771 58.1074C186.109 58.6224 185.067 58.5893 184.459 58.0038C184.012 57.5673 183.842 56.9225 183.83 56.3142C183.828 54.2182 183.829 52.1222 183.829 50.0262C183.832 49.0899 183.858 48.1194 183.501 47.2354C183.253 46.562 182.771 45.9804 182.153 45.6139C181.41 45.1668 180.533 45.0068 179.677 44.9573C178.728 44.9196 177.753 44.9718 176.855 45.307C176.157 45.5629 175.532 46.0348 175.134 46.6667C174.616 47.4693 174.45 48.4417 174.412 49.3809C174.411 51.5009 174.412 53.621 174.412 55.741C174.406 56.2003 174.44 56.6677 174.323 57.1175C174.215 57.6039 173.938 58.0682 173.508 58.3337C172.805 58.7763 171.769 58.6723 171.224 58.0252C170.824 57.5544 170.694 56.916 170.698 56.3131C170.698 54.0278 170.698 51.7424 170.698 49.4571C170.686 48.615 170.702 47.7629 170.916 46.9429C171.242 45.5755 172.035 44.3231 173.142 43.4551C173.715 42.9885 174.372 42.6404 175.051 42.3551C175.999 41.9784 177.007 41.7636 178.022 41.6786Z" fill="#D8D8D8"/>
<path d="M139.051 41.791C140.201 41.7346 141.353 41.7719 142.503 41.7849C143.158 41.8001 143.813 41.8176 144.467 41.8675C145.113 41.9269 145.787 41.9936 146.361 42.3219C146.729 42.5288 147.009 42.8986 147.065 43.3221C147.173 43.8782 146.948 44.4991 146.465 44.811C146.037 45.1165 145.498 45.2254 144.979 45.2056C143.188 45.1832 141.398 45.0201 139.606 45.0917C138.942 45.1237 138.268 45.1771 137.634 45.3888C137.326 45.5012 137.007 45.6749 136.857 45.9819C136.715 46.2839 136.719 46.6408 136.806 46.9581C136.896 47.2788 137.158 47.5146 137.446 47.6624C137.835 47.8581 138.261 47.9705 138.685 48.0634C139.774 48.303 140.888 48.3891 141.988 48.5719C143.031 48.7437 144.073 48.9646 145.068 49.3314C145.978 49.6742 146.883 50.1625 147.469 50.9643C148.034 51.7279 148.198 52.7179 148.133 53.6484C148.071 54.5042 147.781 55.3529 147.257 56.0373C146.871 56.5538 146.367 56.9762 145.804 57.287C145.206 57.6169 144.557 57.8492 143.892 57.9996C142.852 58.2499 141.779 58.3398 140.712 58.3314C139.582 58.3341 138.452 58.3344 137.323 58.2731C136.505 58.2255 135.686 58.1569 134.883 57.9882C134.53 57.9166 134.16 57.8774 133.842 57.6957C133.628 57.5784 133.439 57.4127 133.308 57.2066C133.097 56.8897 133.025 56.4997 133.036 56.1242C133.053 55.7376 133.24 55.3662 133.531 55.1133C133.774 54.9129 134.064 54.7777 134.368 54.697C134.938 54.5618 135.527 54.6452 136.104 54.6825C137.554 54.8112 138.998 54.999 140.445 55.1487C141.379 55.1495 142.327 55.1163 143.236 54.8821C143.73 54.748 144.255 54.5328 144.534 54.0773C144.751 53.7059 144.782 53.1822 144.482 52.8455C144.166 52.4935 143.7 52.3351 143.259 52.2063C142.196 51.9252 141.096 51.8296 140.006 51.7139C138.908 51.6198 137.809 51.4587 136.756 51.1242C135.829 50.8222 134.92 50.3575 134.274 49.6102C133.781 49.0484 133.486 48.3327 133.374 47.598C133.255 46.8118 133.279 45.996 133.506 45.2311C133.697 44.5718 134.064 43.9674 134.55 43.4844C135.307 42.7356 136.311 42.2838 137.338 42.0443C137.899 41.9022 138.475 41.8348 139.051 41.791Z" fill="#D8D8D8"/>
</svg>
