<svg width="276" height="100" viewBox="0 0 276 100" fill="none" xmlns="http://www.w3.org/2000/svg">
<path fill-rule="evenodd" clip-rule="evenodd" d="M64.5818 63.7979L58.7691 63.7919L58.7905 43.5348L79.7161 43.5559L79.6957 63.8127L73.8831 63.8067L73.8999 47.4852L64.5989 47.4764L64.5818 63.7979Z" fill="#D8D8D8"/>
<path fill-rule="evenodd" clip-rule="evenodd" d="M87.6299 56.4411C87.6342 52.3337 90.2057 51.5238 91.8267 51.5255C93.4122 51.5269 95.9827 52.3428 95.9781 56.4499C95.9756 58.9969 94.8817 61.4267 91.8159 61.4232C88.6809 61.42 87.627 58.9877 87.6299 56.4411ZM82.5279 49.1137L82.5068 69.1673L87.8624 69.1723L87.8695 62.3127C89.664 64.2289 92.5884 64.3746 93.2929 64.3753C98.401 64.381 101.54 61.174 101.544 56.5111C101.549 51.6501 98.4535 48.5807 93.4158 48.5758C92.1466 48.5737 89.6801 48.775 87.636 50.8863H87.5292L87.5678 49.1189L82.5279 49.1137Z" fill="#D8D8D8"/>
<path fill-rule="evenodd" clip-rule="evenodd" d="M114.821 62.0817C112.847 63.9043 110.943 64.3943 108.83 64.3925C103.052 64.3862 102.845 60.1035 102.847 58.3382L102.856 49.1361L108.212 49.141L108.203 57.6497C108.199 60.5723 109.22 61.4407 111.192 61.4425C114.574 61.446 114.825 58.4646 114.826 57.3953L114.834 49.1477L120.189 49.1534L120.174 63.854L114.819 63.8487L114.821 62.0817Z" fill="#D8D8D8"/>
<path fill-rule="evenodd" clip-rule="evenodd" d="M127.865 52.1134L130.754 52.1162C132.269 52.118 133.572 52.3496 133.571 53.564C133.569 54.8948 131.526 54.9237 130.647 54.923L127.863 54.9202L127.865 52.1134ZM122.515 49.1549L122.499 63.8576L133.139 63.8682C137.015 63.8717 139.692 63.1181 139.695 60.1124C139.697 57.7974 138.395 56.7833 135.435 56.2585V56.1715C137.373 55.9135 139.064 54.7291 139.066 52.7315C139.07 49.1718 134.844 49.1672 133.188 49.1655L122.515 49.1549ZM127.86 57.6692L131.137 57.6728C133.672 57.6752 134.199 58.4267 134.199 59.4102C134.198 60.0466 133.845 60.9146 131.203 60.9121L127.856 60.9086L127.86 57.6692Z" fill="#D8D8D8"/>
<path fill-rule="evenodd" clip-rule="evenodd" d="M152.661 57.8106C152.657 60.762 150.051 61.4819 148.746 61.4811C147.761 61.4801 145.999 61.1619 146 59.7698C146.002 58.1189 148.01 57.8064 149.139 57.6624C151.215 57.3734 151.041 57.4603 152.662 56.8834L152.661 57.8106ZM146.463 53.9267C146.466 51.7545 148.79 51.5845 149.742 51.5852C150.342 51.5863 152.562 51.6176 152.63 53.5254L152.63 53.933C152.522 55.3797 151.112 55.0865 147.166 55.5765C143.925 56.0059 140.508 56.8148 140.504 60.1686C140.503 61.3861 141.027 64.4252 146.734 64.4312C148.92 64.433 151.315 63.886 152.726 62.4382H152.833L153.29 63.8877L158.924 63.8937V63.6346C157.905 63.4294 157.833 62.4428 157.872 60.8542L157.985 54.1389C158.02 52.4342 157.847 48.6419 149.782 48.6334C147.844 48.6317 141.609 48.7989 141.357 53.9214L146.463 53.9267Z" fill="#D8D8D8"/>
<path fill-rule="evenodd" clip-rule="evenodd" d="M158.585 52.1441L158.589 49.1909L175.779 49.2085L175.776 52.1617L169.857 52.1557L169.845 63.9049L164.491 63.8996L164.502 52.1505L158.585 52.1441Z" fill="#D8D8D8"/>
<path fill-rule="evenodd" clip-rule="evenodd" d="M182.609 55.1189L187.435 55.1242C188.842 55.1252 191.66 55.2741 191.658 57.7053C191.656 59.6163 189.612 59.9873 187.323 59.9852L182.604 59.9803L182.609 55.1189ZM182.618 47.5961L195.967 47.6099L195.971 43.6742L176.806 43.6542L176.786 63.9113L188.552 63.9236C194.261 63.9296 197.925 61.9655 197.93 57.8282C197.936 51.3459 190.609 51.1935 188.566 51.1917L182.613 51.1857L182.618 47.5961Z" fill="#D8D8D8"/>
<path fill-rule="evenodd" clip-rule="evenodd" d="M211.104 57.8702C211.1 60.8216 208.494 61.5414 207.191 61.5407C206.203 61.539 204.445 61.2204 204.446 59.8286C204.448 58.1778 206.455 57.8659 207.582 57.722C209.66 57.4319 209.485 57.5192 211.104 56.943L211.104 57.8702ZM204.909 53.9863C204.911 51.8141 207.235 51.6438 208.185 51.6448C208.787 51.6448 211.007 51.6772 211.075 53.585L211.074 53.9926C210.967 55.4393 209.558 55.1454 205.611 55.6361C202.37 56.0655 198.954 56.8744 198.951 60.2282C198.948 61.446 199.473 64.4848 205.18 64.4901C207.365 64.4922 209.761 63.9455 211.17 62.4971H211.278L211.734 63.9473L217.371 63.9526V63.6935C216.347 63.4879 216.277 62.5024 216.314 60.9131L216.429 54.1978C216.465 52.4931 216.291 48.7015 208.224 48.6934C206.288 48.6913 200.052 48.8574 199.799 53.981L204.909 53.9863Z" fill="#D8D8D8"/>
<path fill-rule="evenodd" clip-rule="evenodd" d="M224.063 63.9596L218.709 63.9543L218.724 49.2523L224.078 49.2576L224.072 54.787L230.519 54.7941L230.525 49.265L235.881 49.2703L235.865 63.9716L230.51 63.9666L230.516 57.7455L224.069 57.7385L224.063 63.9596Z" fill="#D8D8D8"/>
<path fill-rule="evenodd" clip-rule="evenodd" d="M249.408 49.2832L255.363 49.2895L247.992 56.1688L255.696 63.9929L249.426 63.9869L243.656 57.5543H243.552L243.546 63.9806L238.189 63.9753L238.206 49.2729L243.561 49.2779L243.555 55.1811H243.658L249.408 49.2832Z" fill="#D8D8D8"/>
<path fill-rule="evenodd" clip-rule="evenodd" d="M19.8333 63.8014L33.2478 63.8144L33.2617 50.5964L19.8469 50.5834L19.8333 63.8014Z" fill="#D8D8D8"/>
<path fill-rule="evenodd" clip-rule="evenodd" d="M19.8865 29.9944L19.8694 46.4486L23.4155 46.4521C32.7485 46.4616 37.4763 51.1315 37.4663 60.3301L37.4627 63.8233L54.1572 63.8398L54.1929 30.0289L19.8865 29.9944ZM47.0929 37.0117L47.0722 56.8436L44.3353 56.8412C43.1647 47.0326 36.9174 40.8639 26.9683 39.6911L26.9708 36.9916L47.0929 37.0117Z" fill="#D8D8D8"/>
</svg>
