<svg width="275" height="100" viewBox="0 0 275 100" fill="none" xmlns="http://www.w3.org/2000/svg">
<path fill-rule="evenodd" clip-rule="evenodd" d="M102.507 37.9052C102.507 38.0516 102.699 38.3064 103.257 38.9047C103.395 39.0519 103.507 39.1959 103.507 39.2251C103.507 39.2539 103.612 39.3799 103.74 39.5043C103.869 39.6291 103.974 39.7551 103.974 39.7843C103.974 39.8135 104.071 39.9335 104.19 40.0511C104.46 40.3175 104.707 40.6286 104.707 40.7026C104.707 40.7334 104.732 40.7434 104.762 40.725C104.792 40.7066 104.868 40.7798 104.932 40.8878C104.996 40.9958 105.076 41.0842 105.111 41.0842C105.146 41.0842 105.174 41.1114 105.174 41.1446C105.174 41.2062 105.418 41.501 105.857 41.9718C105.995 42.1189 106.107 42.2661 106.107 42.2993C106.107 42.3325 106.212 42.4589 106.34 42.5797C106.469 42.7009 106.574 42.8213 106.574 42.8477C106.574 42.8737 106.679 42.9973 106.807 43.1217C106.935 43.2465 107.041 43.3713 107.041 43.3997C107.041 43.4277 107.169 43.5877 107.324 43.7552C107.48 43.9228 107.727 44.204 107.874 44.38C108.02 44.5564 108.2 44.7684 108.274 44.8516C108.347 44.9352 108.512 45.1312 108.64 45.2871C108.769 45.4435 108.941 45.6459 109.024 45.7375C109.106 45.8287 109.174 45.9307 109.174 45.9643C109.174 45.9979 109.204 46.0067 109.24 45.9839C109.277 45.9611 109.307 45.9839 109.307 46.0347C109.307 46.0851 109.375 46.1875 109.457 46.2623C109.539 46.3371 109.663 46.4763 109.731 46.5715C109.854 46.7439 110.128 47.0574 110.508 47.4614C110.618 47.5774 110.707 47.7034 110.707 47.741C110.707 47.7786 110.759 47.8486 110.824 47.8966C110.888 47.9446 111.029 48.1038 111.138 48.2506C111.247 48.397 111.419 48.5913 111.521 48.6817C111.623 48.7725 111.707 48.8709 111.707 48.9009C111.707 48.9305 111.804 49.0537 111.924 49.1745C112.276 49.5325 112.707 50.0684 112.707 50.1496C112.707 50.1908 112.737 50.2064 112.774 50.1836C112.81 50.1608 112.84 50.1676 112.84 50.198C112.84 50.2288 112.923 50.348 113.024 50.4628C113.631 51.1552 113.813 51.3716 113.867 51.4672C113.9 51.5264 114.012 51.6579 114.117 51.7599C114.221 51.8623 114.307 51.9751 114.307 52.0111C114.307 52.0475 114.344 52.1007 114.39 52.1303C114.477 52.1859 114.82 52.5675 115.273 53.1135C115.644 53.5594 115.737 53.6702 116.059 54.0454C116.213 54.2262 116.468 54.5262 116.626 54.7122C116.784 54.8981 117.029 55.1849 117.172 55.3501C117.315 55.5149 117.538 55.7737 117.669 55.9249C117.8 56.0757 117.906 56.2161 117.906 56.2365C117.906 56.2769 118.332 56.7604 118.723 57.1636C118.86 57.3056 118.973 57.4468 118.973 57.478C118.973 57.5088 119.093 57.654 119.24 57.8008C119.386 57.9475 119.506 58.0887 119.506 58.1143C119.506 58.1939 119.917 58.6251 120.762 59.4339C120.848 59.5159 121.208 59.9278 121.562 60.349C121.917 60.7702 122.566 61.5377 123.006 62.0545C123.446 62.5713 124.016 63.2432 124.273 63.548C124.529 63.8524 125.035 64.4499 125.397 64.8755C125.758 65.3011 126.178 65.7975 126.33 65.9782C126.482 66.159 126.726 66.4462 126.873 66.6162C127.019 66.7866 127.529 67.3886 128.006 67.9541C128.482 68.5197 128.937 69.0577 129.016 69.1492C129.094 69.2408 129.616 69.8556 130.174 70.5156C130.732 71.1755 131.327 71.8783 131.497 72.0767C132.323 73.0438 132.661 73.469 132.773 73.687C132.961 74.0501 133.172 74.7201 133.172 74.9505C133.172 75.0689 133.2 75.1393 133.238 75.1161C133.344 75.0501 133.329 59.5023 133.223 59.4667C133.159 59.4455 133.131 58.9239 133.105 57.2444L133.072 55.0501L132.847 54.5294C132.666 54.1078 132.243 53.4534 132.042 53.2834C132.02 53.265 131.853 53.0711 131.671 52.8519C131.171 52.2527 131.033 52.0907 130.706 51.7187C130.541 51.5316 130.27 51.216 130.106 51.018C129.941 50.8196 129.581 50.3992 129.306 50.0836C129.031 49.7681 128.671 49.3489 128.506 49.1525C128.341 48.9557 127.911 48.4509 127.552 48.031C127.188 47.6054 126.913 47.2274 126.932 47.1778C126.951 47.1286 126.9 47.035 126.819 46.9694C126.739 46.9042 126.583 46.7315 126.475 46.5863C126.248 46.2835 126.195 46.2195 125.855 45.8411C125.718 45.6891 125.539 45.4791 125.458 45.3743C125.376 45.2695 125.216 45.0788 125.103 44.9508C124.989 44.8224 124.771 44.5712 124.618 44.3924C124.465 44.214 124.212 43.9288 124.056 43.7592C123.901 43.5897 123.773 43.4313 123.773 43.4073C123.773 43.3837 123.668 43.2589 123.539 43.1309C123.411 43.0025 123.306 42.8817 123.306 42.8629C123.306 42.8437 123.194 42.7077 123.056 42.5605C122.727 42.2081 122.508 41.9306 122.507 41.8634C122.506 41.8338 122.482 41.8242 122.454 41.8418C122.425 41.8598 122.328 41.7666 122.238 41.6354C122.148 41.5038 121.984 41.3002 121.874 41.183C121.763 41.0658 121.615 40.8982 121.545 40.8102C121.475 40.7226 121.341 40.5594 121.245 40.4475C121.151 40.3359 120.938 40.0851 120.773 39.8903C120.608 39.6955 120.363 39.4195 120.228 39.2767C120.093 39.1343 119.996 39.0175 120.012 39.0175C120.028 39.0175 119.96 38.9275 119.862 38.8176C119.764 38.7076 119.647 38.6176 119.602 38.6176C119.557 38.6176 119.505 38.5784 119.487 38.5308C119.469 38.4828 119.308 38.3704 119.13 38.2808C118.952 38.1912 118.791 38.1 118.773 38.0788C118.732 38.0308 118.245 37.894 117.84 37.8164C117.675 37.7848 114.157 37.7572 110.024 37.7552L102.507 37.7512V37.9052ZM151.273 37.9056C151.169 38.0644 151.075 74.8153 151.179 74.8153C151.201 74.8153 151.236 74.9569 151.256 75.1301C151.275 75.3029 151.324 75.4552 151.364 75.4688C151.405 75.482 151.437 75.5212 151.437 75.5552C151.437 75.6676 151.736 76.0804 151.817 76.0812C151.861 76.0816 151.921 76.124 151.951 76.1752C152.119 76.4676 152.418 76.482 158.316 76.482H163.903V57.8488C163.903 46.1847 163.88 39.1727 163.84 39.0999C163.805 39.0363 163.729 38.8759 163.67 38.7436C163.488 38.3324 163.162 38.0516 162.661 37.8752C162.326 37.758 162.004 37.7512 156.84 37.7512H151.374L151.273 37.9056ZM202.068 37.8204C201.958 37.8508 201.763 37.9044 201.634 37.9392C201.4 38.0036 201.104 38.1352 200.734 38.3404C200.539 38.4492 199.701 39.2359 199.701 39.3107C199.701 39.3315 199.596 39.4567 199.468 39.5887C199.34 39.7211 199.234 39.8499 199.234 39.8751C199.234 39.9003 199.084 40.0759 198.901 40.2651C198.718 40.4543 198.568 40.629 198.568 40.6538C198.568 40.6982 198.471 40.8142 198.059 41.2622C197.943 41.3874 197.793 41.5658 197.725 41.6586C197.657 41.7518 197.541 41.8978 197.468 41.983C197.395 42.0681 197.29 42.1965 197.235 42.2677C197.056 42.4997 196.472 43.1701 196.318 43.3201C196.235 43.4001 196.168 43.4933 196.168 43.5269C196.168 43.5605 196.115 43.6344 196.051 43.6916C195.987 43.7484 195.83 43.9244 195.701 44.0828C195.573 44.2408 195.422 44.4184 195.364 44.4772C195.308 44.536 195.159 44.7188 195.034 44.884C194.909 45.0488 194.712 45.2751 194.598 45.3863C194.483 45.4979 194.377 45.6211 194.362 45.6607C194.328 45.7499 193.971 46.1823 193.287 46.9594C193.114 47.1562 192.83 47.497 192.656 47.717C192.482 47.937 192.256 48.207 192.154 48.317C191.701 48.8069 191.435 49.1381 191.435 49.2117C191.435 49.2557 191.405 49.2729 191.369 49.2505C191.332 49.2277 191.302 49.2365 191.302 49.2701C191.302 49.3037 191.227 49.4117 191.135 49.5109C191.043 49.6097 190.969 49.7209 190.969 49.7577C190.969 49.7945 190.939 49.8065 190.902 49.7837C190.865 49.7609 190.835 49.7877 190.835 49.8433C190.835 49.8985 190.797 49.9677 190.749 49.9968C190.702 50.0264 190.499 50.2552 190.299 50.5056C189.584 51.4004 189.517 51.4768 189.483 51.442C189.463 51.4228 189.429 51.466 189.405 51.5384C189.383 51.6107 189.258 51.7855 189.13 51.9267C189.001 52.0679 188.799 52.2883 188.682 52.4159C188.565 52.5439 188.475 52.6691 188.484 52.6939C188.492 52.7191 188.393 52.8319 188.264 52.9447C188.136 53.0579 188.049 53.1503 188.071 53.1503C188.093 53.1503 188.072 53.1939 188.024 53.2474C187.975 53.301 187.83 53.4666 187.702 53.6154C187.574 53.7642 187.371 53.9878 187.252 54.1126C187.133 54.237 187.035 54.3638 187.035 54.3946C187.034 54.425 186.904 54.5914 186.744 54.7646C186.584 54.9373 186.382 55.1741 186.295 55.2901C186.207 55.4065 186.008 55.6369 185.852 55.8021C185.696 55.9673 185.569 56.1209 185.569 56.1429C185.568 56.1653 185.478 56.2793 185.369 56.3964L185.169 56.6092V66.5178C185.169 71.9675 185.195 76.4164 185.226 76.4044C185.316 76.3688 185.902 75.6248 185.902 75.5456C185.902 75.5064 185.932 75.4928 185.969 75.5152C186.005 75.538 186.035 75.526 186.035 75.4888C186.035 75.4512 186.148 75.3005 186.285 75.1533C186.632 74.7829 186.99 74.3569 187.063 74.2289C187.096 74.1701 187.209 74.0505 187.313 73.9629C187.417 73.8753 187.502 73.7738 187.502 73.737C187.502 73.6714 187.58 73.5782 188.152 72.9566C188.307 72.7874 188.435 72.627 188.435 72.6006C188.435 72.5738 188.54 72.4566 188.669 72.3398C188.797 72.223 188.902 72.0983 188.902 72.0627C188.902 72.0271 189.007 71.8991 189.135 71.7779C189.263 71.6571 189.369 71.5327 189.369 71.5015C189.369 71.4707 189.487 71.3263 189.633 71.1807C189.779 71.0347 189.899 70.8939 189.9 70.8679C189.902 70.8231 190.009 70.6971 190.552 70.1068C190.671 69.9772 190.769 69.8512 190.77 69.8268C190.771 69.8024 190.884 69.6596 191.02 69.5096C191.157 69.36 191.373 69.1104 191.502 68.9557C191.63 68.8013 191.791 68.6089 191.859 68.5285C191.926 68.4481 192.076 68.2657 192.192 68.1229C192.451 67.8021 192.744 67.4602 192.985 67.1966C193.086 67.0862 193.168 66.9782 193.169 66.9562C193.169 66.9338 193.296 66.7778 193.452 66.609C193.608 66.4402 193.825 66.1862 193.935 66.0442C194.045 65.9026 194.21 65.7083 194.302 65.6127C194.393 65.5171 194.558 65.3215 194.667 65.1775C194.776 65.0339 194.949 64.8347 195.05 64.7351C195.152 64.6355 195.235 64.5247 195.235 64.4887C195.235 64.4531 195.29 64.3843 195.357 64.3363C195.424 64.2888 195.506 64.2004 195.54 64.1408C195.574 64.0808 195.743 63.8708 195.917 63.674C196.268 63.2764 196.562 62.9348 196.771 62.6829C196.847 62.5913 196.968 62.4485 197.039 62.3657C197.11 62.2829 197.168 62.1997 197.168 62.1805C197.168 62.1613 197.273 62.0489 197.401 61.9313C197.53 61.8137 197.635 61.6905 197.635 61.6573C197.635 61.6245 197.757 61.4593 197.908 61.2905C198.209 60.9514 198.401 60.727 198.801 60.2498C198.948 60.075 199.15 59.845 199.251 59.7386C199.352 59.6322 199.435 59.5239 199.436 59.4975C199.436 59.4711 199.572 59.2999 199.736 59.1163C200.107 58.7035 200.356 58.4127 200.709 57.9831C200.86 57.8 201.06 57.5608 201.155 57.452C201.25 57.3432 201.518 57.0204 201.751 56.7344C201.984 56.4484 202.255 56.1265 202.354 56.0189C202.453 55.9109 202.594 55.7449 202.668 55.6497C202.88 55.3745 203.087 55.1325 203.302 54.9093C203.411 54.7957 203.501 54.6806 203.501 54.6534C203.501 54.6082 203.579 54.515 204.042 54.007C204.138 53.9018 204.273 53.739 204.342 53.6454C204.411 53.5518 204.573 53.3618 204.701 53.2234C204.829 53.0851 204.979 52.9107 205.034 52.8355C205.206 52.6007 205.662 52.0675 205.784 51.9583C205.848 51.9007 205.901 51.8295 205.901 51.7999C205.901 51.7699 205.991 51.6575 206.101 51.5504C206.211 51.4428 206.301 51.3312 206.301 51.302C206.301 51.2732 206.406 51.1528 206.534 51.0352C206.662 50.9176 206.768 50.7976 206.768 50.7688C206.769 50.7404 206.897 50.5768 207.052 50.4056C207.342 50.086 207.676 49.6949 208.01 49.2837C208.114 49.1553 208.23 49.0161 208.267 48.9741C208.304 48.9321 208.409 48.8021 208.501 48.6853C208.592 48.5685 208.78 48.3514 208.917 48.2034C209.055 48.0554 209.167 47.915 209.168 47.8922C209.168 47.8694 209.295 47.711 209.451 47.5406C209.607 47.3702 209.824 47.1214 209.934 46.9878C210.044 46.8542 210.209 46.6619 210.301 46.5611C210.392 46.4599 210.557 46.2587 210.666 46.1139C210.775 45.9691 210.948 45.7691 211.049 45.6695C211.151 45.5699 211.234 45.4591 211.234 45.4231C211.234 45.3875 211.287 45.3187 211.35 45.2707C211.448 45.198 211.67 44.9404 212.133 44.3664C212.17 44.3204 212.305 44.1632 212.434 44.0172C212.804 43.5973 212.841 43.5509 212.808 43.5509C212.791 43.5509 212.858 43.4665 212.956 43.3633C213.418 42.8777 213.634 42.6241 213.634 42.5673C213.634 42.5333 213.739 42.4101 213.867 42.2933C213.996 42.1765 214.1 42.0566 214.1 42.0266C214.1 41.9966 214.213 41.851 214.35 41.7026C214.488 41.5546 214.699 41.3174 214.819 41.1754C214.939 41.0334 215.142 40.801 215.269 40.6582C215.396 40.5154 215.5 40.3807 215.501 40.3583C215.501 40.3359 215.628 40.1783 215.784 40.0079C216.051 39.7159 216.26 39.4707 216.573 39.0843C216.839 38.756 217.135 38.406 217.241 38.296C217.368 38.1644 217.5 37.9224 217.5 37.822C217.5 37.7356 202.379 37.734 202.068 37.8204ZM77.9633 47.3726C77.8785 47.487 77.6965 47.6998 77.5589 47.8458C77.4213 47.9914 77.3089 48.1334 77.3089 48.1614C77.3089 48.189 77.1965 48.3258 77.0589 48.4645C76.9213 48.6033 76.7189 48.8345 76.609 48.9777C76.499 49.1213 76.3274 49.3237 76.2278 49.4277C76.1282 49.5321 76.061 49.6169 76.0778 49.6169C76.095 49.6169 76.0566 49.6717 75.9922 49.7385C75.9282 49.8053 75.7858 49.9737 75.6758 50.1132C75.5658 50.2524 75.363 50.484 75.2258 50.6276C75.0883 50.7712 74.9751 50.9104 74.9743 50.9364C74.9735 50.9624 74.8683 51.0996 74.7407 51.2408C74.6135 51.3824 74.5091 51.5268 74.5091 51.5616C74.5091 51.5963 74.4791 51.6063 74.4423 51.5836C74.4059 51.5608 74.3759 51.5732 74.3759 51.6107C74.3759 51.6483 74.2727 51.7819 74.1467 51.9079C74.0211 52.0339 73.9295 52.1483 73.9435 52.1623C73.9571 52.1763 73.8351 52.3191 73.6723 52.4795C73.5092 52.6403 73.376 52.7955 73.376 52.8243C73.376 52.8535 73.2708 52.9791 73.1424 53.1035C73.014 53.2282 72.9092 53.3542 72.9092 53.3834C72.9092 53.4126 72.804 53.5386 72.676 53.6634C72.5476 53.7878 72.4424 53.9138 72.4424 53.943C72.4424 53.9722 72.3452 54.101 72.226 54.229C72.1068 54.357 71.9041 54.589 71.7761 54.745C71.6477 54.9009 71.4461 55.1305 71.3281 55.2557C71.2101 55.3809 71.1353 55.4841 71.1617 55.4853C71.1877 55.4865 71.1569 55.5181 71.0925 55.5553C71.0285 55.5925 70.9761 55.6505 70.9761 55.6833C70.9761 55.7165 70.8709 55.8457 70.7425 55.9701C70.6141 56.0949 70.5093 56.2177 70.5093 56.2429C70.5093 56.2685 70.4345 56.37 70.3426 56.4688C70.1362 56.6916 70.1314 56.8008 70.3262 56.8284C70.4529 56.8468 71.1677 57.6288 72.2968 58.9851C73.176 60.0414 73.7475 60.7226 73.7763 60.7498C73.7959 60.7678 73.9615 60.9622 74.1439 61.1809C74.6639 61.8045 74.7923 61.9565 75.0455 62.2461C75.175 62.3945 75.4146 62.6813 75.5778 62.8828C75.7406 63.0844 75.8918 63.2644 75.9134 63.2828C75.9354 63.3012 76.1926 63.6012 76.485 63.9496C76.7773 64.2975 77.2061 64.8079 77.4377 65.0827C77.6693 65.3579 78.0053 65.7567 78.1841 65.9694C78.3624 66.1822 78.5088 66.4222 78.5088 66.503C78.5088 66.5858 78.6108 66.7438 78.742 66.8642C78.8704 66.9822 78.9756 67.1034 78.9756 67.1334C78.9756 67.1638 79.088 67.313 79.2256 67.4658C79.3628 67.6181 79.5804 67.8649 79.7088 68.0145C79.8372 68.1641 80.0547 68.4093 80.1919 68.5593C80.3295 68.7093 80.4419 68.8549 80.4419 68.8829C80.4419 68.9105 80.5619 69.0569 80.7087 69.2076C80.8555 69.3588 80.9755 69.5144 80.9755 69.5532C80.9755 69.592 81.0055 69.6052 81.0419 69.5824C81.0787 69.5596 81.1087 69.5864 81.1087 69.642C81.1087 69.6972 81.1479 69.7664 81.1959 69.7956C81.2443 69.8252 81.3267 69.9124 81.3795 69.99C81.4323 70.0672 81.6166 70.2924 81.7894 70.49C81.9622 70.6871 82.1422 70.8959 82.1894 70.9531C82.2366 71.0103 82.4098 71.2203 82.5742 71.4199C82.7386 71.6191 82.9038 71.8223 82.941 71.8715C82.9782 71.9203 83.1285 72.0935 83.2753 72.2559C83.6661 72.6894 83.9501 73.0226 84.1217 73.249C84.2049 73.359 84.3429 73.5046 84.4277 73.573C84.5125 73.6414 84.5685 73.711 84.5517 73.7278C84.5349 73.7446 84.6532 73.8901 84.8148 74.0517C84.9764 74.2133 85.1084 74.3693 85.1084 74.3989C85.1084 74.4285 85.1608 74.4985 85.2252 74.5545C85.2892 74.6105 85.4016 74.7397 85.4752 74.8417C85.6004 75.0165 86.1888 75.6244 86.3939 75.7916C86.7031 76.0432 87.4227 76.356 87.8278 76.4148C88.5398 76.5176 103.445 76.5036 103.424 76.4C103.415 76.3548 103.333 76.2372 103.241 76.1384C102.927 75.8 102.474 75.2625 102.413 75.1557C102.379 75.0969 102.289 74.9869 102.213 74.9113C102.029 74.7285 101.566 74.1717 101.439 73.9797C101.384 73.8953 101.257 73.7502 101.156 73.6574C101.056 73.5646 100.974 73.471 100.974 73.4498C100.974 73.4282 100.856 73.2846 100.711 73.1298C100.312 72.7022 99.9743 72.3038 99.9743 72.2594C99.9743 72.2206 99.9195 72.1575 99.246 71.4199C99.064 71.2203 98.9332 71.0255 98.9552 70.9867C98.9776 70.9475 98.9724 70.9367 98.9436 70.9623C98.9152 70.9883 98.7896 70.8831 98.6644 70.7291C98.3784 70.3764 98.286 70.2652 97.8749 69.7772C97.6917 69.56 97.5193 69.3524 97.4916 69.3156C97.3676 69.1496 96.9829 68.7009 96.7253 68.4217C96.5701 68.2537 96.4429 68.0909 96.4421 68.0601C96.4417 68.0297 96.3437 67.9061 96.2245 67.7853C96.1053 67.6645 95.9025 67.4394 95.7745 67.2846C95.3358 66.7558 95.2446 66.649 95.1262 66.5278C95.061 66.461 95.0078 66.3862 95.0078 66.361C95.0078 66.3362 94.883 66.181 94.731 66.0158C94.2654 65.5115 94.1343 65.3603 94.0019 65.1751C93.9319 65.0771 93.8071 64.9359 93.7247 64.8611C93.6419 64.7863 93.5747 64.6839 93.5747 64.6335C93.5747 64.5827 93.5447 64.5599 93.5079 64.5827C93.4711 64.6055 93.4411 64.5935 93.4411 64.5567C93.4411 64.5199 93.3663 64.4087 93.2747 64.3099C93.1831 64.2108 93.1079 64.1028 93.1079 64.0692C93.1079 64.0356 93.0779 64.0268 93.0411 64.0496C93.0047 64.072 92.9747 64.0564 92.9747 64.0148C92.9747 63.9324 92.6243 63.4948 92.2248 63.0772C92.0872 62.9336 91.9744 62.7936 91.974 62.766C91.974 62.7388 91.8556 62.5961 91.7108 62.4497C91.566 62.3029 91.4464 62.1613 91.4448 62.1353C91.4428 62.1089 91.3588 61.9993 91.258 61.8921C91.1572 61.7845 90.9697 61.5701 90.8413 61.4157C90.7129 61.2613 90.4805 60.9978 90.3249 60.8302C90.1689 60.663 90.0401 60.4938 90.0385 60.4546C90.0369 60.415 89.9469 60.3094 89.8385 60.2194C89.7301 60.1294 89.6413 60.0238 89.6413 59.9842C89.6413 59.945 89.5889 59.8662 89.5249 59.8094C89.4605 59.7526 89.303 59.5786 89.175 59.4231C89.0466 59.2671 88.8742 59.0711 88.7914 58.9871C88.709 58.9031 88.6414 58.8179 88.6414 58.7979C88.6414 58.7775 88.5442 58.6575 88.425 58.5311C88.3058 58.4043 88.0582 58.1151 87.875 57.888C87.6915 57.6612 87.4443 57.3748 87.3251 57.2516C87.2059 57.1284 87.1083 57.006 87.1083 56.98C87.1083 56.9096 86.8331 56.6832 86.7475 56.6832C86.7071 56.6832 86.4047 56.3608 86.0756 55.9665C85.5692 55.3609 85.1612 54.8769 84.1501 53.683C84.0721 53.5914 83.8585 53.3366 83.6753 53.1175C83.3969 52.7843 82.9134 52.2107 82.0166 51.1496C81.939 51.0576 81.5754 50.6228 81.2087 50.1828C80.8419 49.7433 80.5255 49.3685 80.5051 49.3505C80.4847 49.3321 80.0843 48.8593 79.6152 48.3002C78.654 47.1546 78.6984 47.1946 78.3644 47.1774C78.1585 47.167 78.0925 47.199 77.9633 47.3726Z" fill="#D8D8D8"/>
<path fill-rule="evenodd" clip-rule="evenodd" d="M175.669 16.7369C175.633 16.7637 175.557 16.8757 175.503 16.9857C175.448 17.0957 175.388 17.2005 175.369 17.2189C175.303 17.2833 174.97 17.9885 174.97 18.0629C174.97 18.1041 174.927 18.154 174.876 18.174C174.824 18.1936 174.762 18.2992 174.738 18.4084C174.695 18.606 174.692 18.6072 173.999 18.6892C173.616 18.7344 173.303 18.7972 173.303 18.8288C173.303 18.86 173.19 18.886 173.053 18.8864C172.328 18.8892 172.342 19.006 173.17 19.8319C173.536 20.1979 173.836 20.5215 173.836 20.5511C173.836 20.5803 173.884 20.6231 173.944 20.6459C174.019 20.6747 174.032 20.7115 173.984 20.7695C173.948 20.8151 173.896 21.1371 173.869 21.4854C173.842 21.8338 173.798 22.1786 173.771 22.2522C173.648 22.5878 173.918 23.1517 174.047 22.8301C174.072 22.7693 174.79 22.4186 174.89 22.4186C174.925 22.4186 174.99 22.3742 175.036 22.3194C175.081 22.265 175.139 22.2334 175.165 22.2494C175.191 22.2654 175.308 22.2202 175.426 22.1486C175.741 21.9566 176.033 22.051 177.518 22.8249C177.747 22.9441 177.836 22.8969 177.836 22.6562C177.836 22.5298 177.81 22.4106 177.779 22.3914C177.748 22.3722 177.702 22.1078 177.677 21.8042C177.653 21.5006 177.616 21.1159 177.594 20.9491C177.56 20.6807 177.576 20.6271 177.733 20.4823C177.893 20.3351 178.185 20.0371 178.819 19.376C179.121 19.0612 179.1 18.9692 178.719 18.9184C178.545 18.8952 178.343 18.8512 178.269 18.8204C178.196 18.7892 177.866 18.7296 177.536 18.6872C177.206 18.6448 176.926 18.5816 176.913 18.5468C176.901 18.5116 176.85 18.4424 176.8 18.3924C176.75 18.3424 176.689 18.2232 176.665 18.1268C176.641 18.0309 176.597 17.9525 176.566 17.9525C176.536 17.9525 176.473 17.8473 176.427 17.7189C176.381 17.5905 176.321 17.4857 176.295 17.4857C176.268 17.4857 176.227 17.3957 176.203 17.2857C176.179 17.1757 176.134 17.0857 176.104 17.0857C176.074 17.0857 176.018 16.9957 175.979 16.8857C175.911 16.6901 175.803 16.6385 175.669 16.7369ZM188.247 17.1401C188.099 17.3897 187.957 17.6749 187.932 17.7733C187.908 17.8717 187.867 17.9525 187.841 17.9525C187.816 17.9525 187.722 18.0993 187.632 18.2788L187.469 18.6056L186.869 18.6816C186.539 18.7236 186.179 18.7844 186.069 18.8172C185.959 18.8496 185.751 18.9008 185.607 18.9308C185.218 19.0124 185.238 19.0572 186.035 19.8759L186.769 20.6303V21.0247C186.769 21.2414 186.744 21.4186 186.713 21.4186C186.682 21.4186 186.656 21.4562 186.653 21.5022C186.651 21.5478 186.626 21.8778 186.599 22.2354C186.55 22.8713 186.552 22.8853 186.692 22.8853C186.771 22.8853 186.835 22.8553 186.835 22.8185C186.835 22.7821 186.872 22.7522 186.918 22.7522C187.001 22.7522 187.707 22.4178 187.769 22.3494C187.787 22.329 187.93 22.275 188.085 22.2294C188.241 22.1838 188.369 22.1178 188.369 22.0826C188.369 22.0474 188.473 22.0186 188.602 22.0186C188.73 22.0186 188.835 22.0438 188.835 22.0746C188.835 22.1054 188.955 22.1702 189.102 22.2186C189.249 22.267 189.369 22.3318 189.369 22.3626C189.369 22.3934 189.406 22.4194 189.452 22.4198C189.498 22.4206 189.745 22.5254 190.002 22.653C190.637 22.9689 190.663 22.9637 190.613 22.5354C190.591 22.343 190.553 21.937 190.527 21.6334C190.503 21.3298 190.457 21.0655 190.425 21.0463C190.247 20.9359 190.397 20.6651 190.952 20.0975C192.083 18.94 192.099 18.8856 191.297 18.8856C191.194 18.8856 191.094 18.8608 191.075 18.83C191.057 18.7996 190.745 18.7368 190.382 18.6904L189.723 18.6064L189.503 18.1772C189.381 17.9413 189.259 17.7337 189.231 17.7161C189.202 17.6985 189.159 17.5945 189.135 17.4849C189.111 17.3753 189.067 17.2857 189.037 17.2857C189.007 17.2857 188.965 17.2161 188.944 17.1313C188.899 16.9525 188.684 16.6857 188.585 16.6857C188.547 16.6857 188.395 16.8901 188.247 17.1401ZM201.254 16.7825C201.209 16.8329 201.154 16.9517 201.13 17.0465C201.106 17.1413 201.065 17.2189 201.038 17.2189C201.011 17.2189 200.949 17.3389 200.901 17.4857C200.853 17.6325 200.792 17.7525 200.767 17.7525C200.741 17.7525 200.633 17.9425 200.527 18.1752L200.334 18.5976L199.634 18.7044C197.9 18.9688 197.936 18.9308 198.687 19.6796C198.973 19.9643 199.297 20.3147 199.408 20.4579L199.609 20.7187L199.526 21.4522C199.426 22.3362 199.414 22.8853 199.493 22.8853C199.526 22.8853 199.758 22.7809 200.01 22.6534C200.262 22.5258 200.505 22.4206 200.551 22.4198C200.597 22.4194 200.634 22.3898 200.634 22.3546C200.634 22.3194 200.753 22.2586 200.898 22.2194C201.043 22.1806 201.18 22.1194 201.202 22.0834C201.255 21.9982 201.634 21.9998 201.634 22.0854C201.634 22.1222 201.672 22.1522 201.718 22.1526C201.763 22.1526 202.071 22.287 202.401 22.4514C202.731 22.6154 203.039 22.7502 203.084 22.751C203.13 22.7514 203.168 22.7821 203.168 22.8185C203.168 22.8553 203.244 22.8853 203.337 22.8853H203.507L203.462 22.3686C203.437 22.0846 203.395 21.8222 203.368 21.7854C203.341 21.7486 203.298 21.485 203.273 21.1994L203.228 20.6799L203.594 20.2995C203.795 20.0903 204.083 19.7839 204.233 19.6188C204.384 19.454 204.55 19.2716 204.604 19.2132C204.8 19 204.658 18.8884 204.188 18.8864C204.071 18.886 203.96 18.8608 203.941 18.83C203.922 18.7996 203.607 18.7364 203.239 18.6896C202.687 18.6192 202.565 18.5828 202.532 18.4784C202.51 18.4092 202.464 18.3524 202.43 18.3524C202.396 18.3524 202.368 18.3096 202.368 18.2572C202.368 18.2048 202.329 18.1221 202.281 18.0737C202.234 18.0253 202.153 17.8805 202.102 17.7525C202.051 17.6241 201.992 17.5041 201.971 17.4857C201.951 17.4673 201.844 17.2801 201.734 17.0693C201.534 16.6861 201.406 16.6093 201.254 16.7825ZM214.061 16.8525C214.038 16.9441 213.997 17.0189 213.97 17.0189C213.943 17.0189 213.885 17.1389 213.841 17.2857C213.797 17.4325 213.733 17.5525 213.697 17.5525C213.662 17.5525 213.633 17.5933 213.633 17.6433C213.633 17.6933 213.575 17.8081 213.504 17.8985C213.434 17.9889 213.355 18.1428 213.331 18.2408C213.306 18.3388 213.259 18.4188 213.226 18.4188C213.194 18.4188 213.167 18.4588 213.167 18.5076C213.167 18.5692 212.972 18.6216 212.524 18.68C212.17 18.7264 211.818 18.7896 211.74 18.8208C211.664 18.852 211.458 18.896 211.284 18.9188C210.854 18.9752 210.874 19.0396 211.517 19.6972C212.536 20.7383 212.456 20.5915 212.401 21.3378C212.375 21.6938 212.33 22.0154 212.302 22.0522C212.153 22.2442 212.186 22.8853 212.345 22.8853C212.43 22.8853 212.5 22.8553 212.5 22.8185C212.5 22.7821 212.538 22.7522 212.583 22.7522C212.663 22.7522 213.367 22.421 213.434 22.3522C213.605 22.1738 214.5 21.9478 214.5 22.0826C214.5 22.1178 214.62 22.1826 214.767 22.2266C214.913 22.2706 215.033 22.3294 215.033 22.3574C215.033 22.3854 215.123 22.4278 215.233 22.4522C215.343 22.4762 215.433 22.5238 215.433 22.5574C215.433 22.591 215.464 22.6186 215.501 22.6186C215.538 22.6186 215.703 22.6818 215.867 22.7594C216.24 22.9345 216.632 22.7238 216.307 22.5234C216.275 22.503 216.227 22.1858 216.2 21.8186C216.174 21.4514 216.126 21.1347 216.093 21.1143C215.89 20.9891 216.046 20.6759 216.583 20.1287C217.679 19.0128 217.718 18.8896 216.983 18.8864C216.864 18.886 216.767 18.8612 216.767 18.8316C216.767 18.8016 216.457 18.7396 216.078 18.6932L215.389 18.6088L215.164 18.164C215.039 17.9193 214.922 17.7041 214.903 17.6857C214.883 17.6673 214.777 17.4725 214.667 17.2525C214.365 16.6481 214.148 16.5054 214.061 16.8525ZM152.675 22.8109C152.655 22.8437 152.541 22.8893 152.422 22.9129C152.125 22.9705 151.607 23.3633 151.496 23.6137C151.446 23.7265 151.385 23.8185 151.359 23.8185C151.334 23.8185 151.276 23.9913 151.23 24.2021C151.183 24.4128 151.14 24.6076 151.133 24.6352C151.127 24.6628 151.117 27.6242 151.113 31.2168L151.104 37.7484L143.382 37.7664C137.643 37.7796 135.635 37.8044 135.566 37.8616C135.514 37.9044 135.359 37.96 135.222 37.986C135.084 38.0116 134.972 38.0568 134.972 38.0864C134.972 38.116 134.88 38.1608 134.767 38.1852C134.655 38.21 134.547 38.2724 134.527 38.324C134.507 38.3756 134.454 38.4176 134.409 38.4176C134.319 38.4176 133.522 39.2027 133.417 39.3955C133.38 39.4627 133.287 39.5791 133.211 39.6547C133.075 39.7891 132.798 40.1215 132.493 40.5174C132.408 40.6274 132.257 40.799 132.155 40.8986C132.055 40.9982 131.972 41.1034 131.972 41.1322C131.972 41.1614 131.867 41.2726 131.739 41.3794C131.61 41.4866 131.505 41.6122 131.505 41.659C131.505 41.7058 131.467 41.7682 131.421 41.7973C131.375 41.8269 131.254 41.9557 131.153 42.0841C130.891 42.4161 130.578 42.7837 130.289 43.0997C130.152 43.2497 130.039 43.3917 130.039 43.4148C130.039 43.438 129.935 43.5608 129.808 43.6872C129.68 43.8136 129.576 43.9392 129.574 43.966C129.573 43.9928 129.475 44.12 129.356 44.2484C129.006 44.6244 128.63 45.0751 128.646 45.0971C128.654 45.1083 128.544 45.2391 128.4 45.3879C128.112 45.6867 127.664 46.2175 127.511 46.4407C127.457 46.5195 127.359 46.623 127.293 46.671C127.227 46.719 127.173 46.8014 127.173 46.8542C127.173 46.907 127.145 46.9506 127.11 46.9506C126.999 46.9506 126.962 47.2126 127.055 47.3458C127.143 47.4706 127.504 47.899 128.073 48.5509C128.219 48.7193 128.474 49.0189 128.639 49.2169C128.804 49.4145 129.175 49.848 129.464 50.18C129.752 50.512 130.052 50.8588 130.13 50.9508C130.268 51.1132 131.261 52.2791 131.548 52.6163C131.627 52.7083 131.861 52.9782 132.068 53.2166C133.062 54.357 133.172 54.7653 133.172 57.3211C133.172 59.2014 133.223 59.7626 133.358 59.3574C133.373 59.3122 133.517 59.1362 133.677 58.9666C133.838 58.7966 133.959 58.647 133.945 58.6342C133.932 58.621 134.031 58.4975 134.163 58.3591C134.297 58.2211 134.525 57.9619 134.672 57.7835C134.818 57.6051 135.044 57.3351 135.172 57.1831C135.3 57.0311 135.525 56.762 135.672 56.5852C135.818 56.408 136.051 56.1404 136.188 55.9901C136.325 55.8397 136.437 55.6985 136.438 55.6765C136.438 55.6545 136.521 55.5457 136.622 55.4349C136.723 55.3245 136.925 55.0909 137.072 54.9165C137.218 54.7421 137.401 54.5289 137.478 54.4434C137.554 54.3574 137.674 54.2082 137.744 54.1122C137.814 54.0162 137.969 53.8382 138.088 53.717C138.207 53.5958 138.305 53.4742 138.305 53.4462C138.305 53.4186 138.425 53.2782 138.572 53.1346C138.718 52.9906 138.838 52.8515 138.838 52.8251C138.838 52.7987 138.942 52.6735 139.069 52.5471C139.197 52.4203 139.302 52.2947 139.303 52.2679C139.304 52.2411 139.403 52.1147 139.522 51.9871C139.817 51.6707 140.2 51.2112 140.227 51.1412C140.239 51.1096 140.345 50.9844 140.461 50.8628C140.577 50.7412 140.792 50.496 140.938 50.3172C141.085 50.1384 141.317 49.8672 141.455 49.7141C141.592 49.5609 141.705 49.4173 141.705 49.3953C141.705 49.3729 141.802 49.2517 141.922 49.1257C142.217 48.8133 142.599 48.3477 142.632 48.2597C142.647 48.2197 142.76 48.0982 142.882 47.9898C143.004 47.8814 143.105 47.7642 143.105 47.729C143.105 47.6942 143.172 47.6014 143.255 47.523C143.381 47.403 143.902 46.7978 144.137 46.4987C144.175 46.4519 144.302 46.3087 144.421 46.1807C144.541 46.0527 144.638 45.9295 144.638 45.9071C144.638 45.8843 144.705 45.7995 144.788 45.7183C144.871 45.6367 145.088 45.3807 145.271 45.1487C145.455 44.9172 145.717 44.6092 145.855 44.4644C145.992 44.3196 146.105 44.1756 146.105 44.1444C146.105 44.1128 146.209 43.9916 146.338 43.8748C146.466 43.758 146.571 43.6336 146.571 43.598C146.571 43.5624 146.676 43.434 146.805 43.3133C146.933 43.1921 147.038 43.0725 147.038 43.0473C147.038 43.0221 147.158 42.8817 147.304 42.7349C147.451 42.5885 147.571 42.4425 147.571 42.4109C147.571 42.3793 147.668 42.2497 147.788 42.1237C147.907 41.9973 148.109 41.7694 148.238 41.617C148.366 41.465 148.583 41.215 148.719 41.0622C148.856 40.9094 148.968 40.7626 148.969 40.7366C148.97 40.7102 149.068 40.5846 149.188 40.4574C149.578 40.0407 149.922 39.6347 149.93 39.5807C149.934 39.5515 150.043 39.4179 150.171 39.2839C150.657 38.7751 150.974 38.3748 151.112 38.0964C151.19 37.938 151.318 37.7828 151.396 37.752C151.474 37.7208 151.627 37.5832 151.737 37.4456C151.847 37.3084 152.05 37.0732 152.187 36.9237C152.324 36.7737 152.436 36.6313 152.437 36.6069C152.437 36.5825 152.543 36.4545 152.671 36.3225C152.799 36.1901 152.904 36.0637 152.904 36.0409C152.904 36.0185 152.972 35.9349 153.054 35.8553C153.195 35.7193 153.481 35.381 153.752 35.0306C153.817 34.9454 153.968 34.7762 154.087 34.6538C154.206 34.5314 154.304 34.4086 154.304 34.381C154.304 34.353 154.424 34.213 154.571 34.069C154.717 33.9254 154.837 33.7863 154.837 33.7595C154.837 33.7331 154.941 33.6079 155.068 33.4815C155.196 33.3551 155.301 33.2299 155.302 33.2035C155.304 33.1575 155.365 33.0863 155.969 32.4239C156.116 32.262 156.237 32.1072 156.237 32.0796C156.237 32.052 156.335 31.9276 156.454 31.8032C156.573 31.6784 156.791 31.4304 156.937 31.2516C157.084 31.0732 157.316 30.8016 157.454 30.6485C157.591 30.4953 157.704 30.3517 157.704 30.3297C157.704 30.3073 157.801 30.1861 157.921 30.0605C158.216 29.7477 158.598 29.2825 158.631 29.1941C158.646 29.1541 158.759 29.033 158.881 28.9242C159.003 28.8158 159.104 28.6986 159.104 28.6638C159.104 28.629 159.178 28.5314 159.269 28.4478C159.359 28.3638 159.575 28.1202 159.748 27.9066C159.922 27.693 160.095 27.4839 160.134 27.4419C160.172 27.3999 160.294 27.2515 160.404 27.1127C160.514 26.9739 160.679 26.7771 160.77 26.6759C160.862 26.5747 161.087 26.3051 161.27 26.0767C161.454 25.8488 161.716 25.5436 161.854 25.3988C161.991 25.254 162.104 25.11 162.104 25.0788C162.104 25.0476 162.208 24.9264 162.337 24.8096C162.465 24.6928 162.57 24.568 162.57 24.5324C162.57 24.4968 162.675 24.3684 162.804 24.2477C162.932 24.1265 163.037 24.0061 163.037 23.9797C163.037 23.9537 163.142 23.8301 163.27 23.7053C163.398 23.5809 163.503 23.4517 163.503 23.4189C163.503 23.3857 163.598 23.2705 163.713 23.1625C164.174 22.7318 164.442 22.7522 158.277 22.7522C155.113 22.7522 152.696 22.7773 152.675 22.8109ZM57.5106 56.3984C57.511 75.3624 57.5126 75.4988 57.7505 75.6352C57.8017 75.6648 57.8441 75.7248 57.8445 75.7688C57.8457 75.856 58.1305 76.1487 58.2141 76.1487C58.2429 76.1487 58.3137 76.1903 58.3717 76.2411C58.6233 76.4623 59.1393 76.4819 64.6817 76.4819H70.1806L70.3617 76.2847C70.4613 76.1767 70.6325 75.9788 70.7425 75.8452C70.8525 75.7116 71.0241 75.5108 71.1241 75.3992C71.2237 75.2872 71.3585 75.1216 71.4241 75.0308C71.4893 74.94 71.6401 74.7688 71.7593 74.6504C71.8785 74.532 71.9768 74.4085 71.978 74.3753C71.9792 74.3425 72.084 74.2117 72.2112 74.0853C72.3384 73.9589 72.4424 73.8321 72.4424 73.8037C72.4424 73.7753 72.5476 73.6565 72.676 73.5397C72.8044 73.4229 72.9092 73.2997 72.9092 73.2661C72.9092 73.2325 73.0216 73.0933 73.1592 72.9565C73.2968 72.8202 73.4604 72.635 73.5231 72.5454C73.7355 72.2406 73.8751 72.073 74.1259 71.821C74.2631 71.6826 74.3759 71.5498 74.3759 71.5258C74.3759 71.5018 74.4283 71.429 74.4923 71.3638C74.5567 71.2986 74.7139 71.1159 74.8423 70.9583C74.9707 70.8003 75.1358 70.6023 75.209 70.5187C75.4442 70.2499 75.827 69.7939 76.1894 69.3508C76.3834 69.1132 76.5874 68.868 76.6422 68.8052C76.8361 68.5848 77.6101 67.6665 78.0089 67.1833C78.1557 67.0057 78.3312 66.8021 78.3996 66.7309C78.5896 66.5318 78.54 66.4614 76.6758 64.2795C76.3458 63.8935 75.9406 63.4143 75.7758 63.2152C75.6106 63.016 75.3694 62.732 75.2394 62.5844C75.1094 62.4368 74.8699 62.1512 74.7071 61.9496C74.5443 61.7477 74.3943 61.5677 74.3735 61.5497C74.3531 61.5313 73.9347 61.0361 73.444 60.4497C72.9532 59.863 72.4444 59.261 72.3136 59.1118C72.1828 58.963 71.956 58.6946 71.8093 58.5159C70.8521 57.3487 70.4173 56.8832 70.285 56.8832H70.1426L70.1602 48.1337C70.1778 39.5479 70.1606 38.6843 69.9714 38.6843C69.9374 38.6843 69.9094 38.6495 69.9094 38.6072C69.9094 38.504 69.4606 38.0836 69.1734 37.9176C68.9482 37.7876 68.8042 37.784 63.2266 37.7664L57.5102 37.748L57.5106 56.3984ZM87.0083 37.7996C86.8983 37.8152 86.7799 37.8556 86.7451 37.8896C86.7103 37.9232 86.6351 37.952 86.5783 37.9532C86.4623 37.9556 85.978 38.1868 85.6752 38.3848C85.4272 38.5468 84.802 39.1699 84.5389 39.5175C84.4305 39.6607 84.2669 39.8603 84.1753 39.9615C84.0837 40.0623 83.9281 40.2438 83.8297 40.3646C83.5713 40.6818 83.0022 41.3486 82.7726 41.603C82.6642 41.7234 82.5742 41.8433 82.573 41.8697C82.5718 41.8957 82.467 42.0209 82.3398 42.1477C82.2126 42.2741 82.1086 42.3985 82.1086 42.4241C82.1086 42.4497 82.0034 42.5757 81.8754 42.7041C81.747 42.8325 81.6418 42.9593 81.6418 42.9865C81.6418 43.0133 81.5746 43.1001 81.4918 43.1793C81.2911 43.3716 80.6815 44.0864 80.6515 44.1648C80.6383 44.1992 80.5259 44.3292 80.4015 44.4536C80.2771 44.578 80.1755 44.708 80.1755 44.7428C80.1755 44.7776 80.1527 44.8164 80.1251 44.8284C80.0975 44.8408 79.9251 45.0307 79.742 45.2507C79.5588 45.4707 79.3712 45.6747 79.3256 45.7039C79.2796 45.7331 79.242 45.7883 79.242 45.8259C79.242 45.8639 79.124 46.0199 78.9796 46.1727C78.6708 46.4991 78.1757 47.081 78.1757 47.117C78.1757 47.1306 78.2728 47.127 78.392 47.1082C78.658 47.0666 78.6832 47.0874 79.3476 47.8838C79.638 48.2321 79.8903 48.5321 79.9087 48.5505C79.9271 48.5685 80.0915 48.7637 80.2739 48.9837C80.4563 49.2037 80.6215 49.3985 80.6407 49.4169C80.6595 49.4353 80.9751 49.8104 81.3411 50.2504C81.707 50.6904 82.0226 51.0652 82.0418 51.0836C82.0614 51.102 82.3766 51.4767 82.743 51.9167C83.1089 52.3567 83.4241 52.7319 83.4429 52.7503C83.4617 52.7683 83.7765 53.143 84.1429 53.583C84.5089 54.0226 84.8712 54.4522 84.948 54.5373C85.0248 54.6229 85.4448 55.1241 85.8812 55.6509C86.8311 56.7976 86.8251 56.7964 87.4235 55.9649C87.4883 55.8745 87.6391 55.7037 87.7582 55.5853C87.8774 55.4669 87.9758 55.3429 87.977 55.3097C87.9782 55.2769 88.083 55.1465 88.2102 55.0197C88.3374 54.8933 88.4414 54.7665 88.4414 54.7381C88.4414 54.7097 88.5466 54.5909 88.675 54.4741C88.803 54.3574 88.9082 54.2346 88.9082 54.2006C88.9082 54.167 89.0206 54.0278 89.1582 53.891C89.2958 53.7546 89.4681 53.5562 89.5413 53.4502C89.6149 53.3442 89.7273 53.2118 89.7913 53.1558C89.8557 53.0998 89.9081 53.0294 89.9081 52.9998C89.9081 52.9702 90.0129 52.8495 90.1413 52.7319C90.2697 52.6143 90.3749 52.4955 90.3749 52.4687C90.3749 52.4415 90.4721 52.3167 90.5913 52.1919C90.7105 52.0667 90.8653 51.8851 90.9352 51.7887C91.0056 51.6923 91.1256 51.5435 91.202 51.4579C91.3392 51.3055 91.4744 51.144 92.1844 50.2852C92.3808 50.048 92.5863 49.8052 92.6411 49.7464C92.8463 49.5261 93.2319 49.0489 93.2403 49.0041C93.2451 48.9789 93.3599 48.8441 93.4951 48.7041C93.6303 48.5645 93.8611 48.3033 94.0079 48.1237C94.1546 47.9442 94.3866 47.6742 94.5238 47.5238C94.6606 47.3734 94.773 47.231 94.7738 47.207C94.7742 47.1834 94.8794 47.0586 95.0078 46.9306C95.1362 46.8022 95.241 46.675 95.241 46.6482C95.241 46.6214 95.3462 46.5007 95.4746 46.3795C95.6026 46.2587 95.7077 46.1343 95.7077 46.1031C95.7077 46.0723 95.7601 45.9983 95.8245 45.9387C96.0061 45.7699 96.2409 45.5023 96.2409 45.4635C96.2409 45.4443 96.3385 45.3235 96.4577 45.1951C96.7049 44.9284 97.0201 44.5572 97.288 44.2172C97.3892 44.0888 97.51 43.96 97.5564 43.9308C97.6028 43.9012 97.6408 43.8452 97.6408 43.806C97.6408 43.7672 97.7608 43.6148 97.9076 43.4684C98.0544 43.3217 98.1744 43.1653 98.1744 43.1209C98.1744 43.0765 98.246 43.0017 98.3336 42.9545C98.4212 42.9077 98.5336 42.7917 98.5836 42.6969C98.6336 42.6021 98.7644 42.4281 98.8743 42.3101C99.2187 41.9405 99.5399 41.553 99.5663 41.4738C99.5803 41.4322 99.6927 41.3094 99.8163 41.201C99.9399 41.0926 100.041 40.9774 100.041 40.945C100.041 40.913 100.138 40.785 100.257 40.661C100.472 40.4374 100.76 40.0967 101.048 39.7259C101.13 39.6203 101.259 39.4687 101.335 39.3883C101.519 39.1963 101.978 38.6415 102.104 38.4612C102.159 38.3824 102.275 38.252 102.361 38.1716C102.472 38.0688 102.506 37.9844 102.475 37.888L102.432 37.7512L94.8198 37.7612C90.6337 37.7664 87.1183 37.784 87.0083 37.7996ZM172.452 56.4316C172.468 74.0613 172.476 75.1268 172.586 75.3152C172.65 75.4252 172.702 75.5432 172.702 75.5768C172.703 75.6696 173.37 76.2835 173.565 76.3715C173.689 76.4275 175.308 76.4539 179.436 76.4671L185.135 76.4859V57.7019C185.135 39.1991 185.133 38.9147 185.006 38.7175C184.811 38.4168 184.3 37.9512 184.165 37.9512C184.1 37.9512 184.034 37.9136 184.019 37.8676C183.997 37.802 182.763 37.7804 178.213 37.7664L172.434 37.748L172.452 56.4316ZM120.454 67.2517C120.468 73.0217 120.493 75.2332 120.547 75.2676C120.588 75.294 120.645 75.3904 120.673 75.482C120.725 75.6468 121.372 76.3447 121.374 76.2375C121.375 76.2067 121.399 76.2191 121.427 76.2643C121.549 76.4563 122.282 76.4819 127.681 76.4819H133.172V75.7852C133.172 74.488 132.87 73.7473 131.885 72.6274C131.731 72.4522 131.481 72.1602 131.329 71.979C130.851 71.407 129.04 69.2636 128.741 68.9156C128.462 68.5908 127.612 67.5857 126.716 66.5218C126.472 66.2318 125.977 65.6466 125.615 65.2218C125.254 64.7971 124.834 64.3015 124.682 64.1207C124.53 63.9399 124.286 63.6527 124.139 63.4831C123.993 63.3132 123.513 62.7456 123.073 62.2216C122.633 61.6981 122.213 61.2025 122.139 61.1205C122.066 61.0385 121.691 60.5933 121.306 60.131C120.921 59.6686 120.568 59.2886 120.521 59.2866C120.452 59.2838 120.439 60.8193 120.454 67.2517Z" fill="#D8D8D8"/>
<path fill-rule="evenodd" clip-rule="evenodd" d="M185.134 66.5494C185.134 71.9207 185.142 74.1182 185.152 71.4323C185.162 68.7465 185.162 64.352 185.152 61.6661C185.142 58.9807 185.134 61.1778 185.134 66.5494Z" fill="#D8D8D8"/>
<path fill-rule="evenodd" clip-rule="evenodd" d="M151.137 56.3832C151.137 66.4657 151.145 70.5807 151.154 65.5274C151.164 60.4737 151.164 52.2243 151.154 47.195C151.145 42.1658 151.137 46.3007 151.137 56.3832ZM74.9759 62.3036C74.9759 62.3152 75.0731 62.4128 75.1922 62.5204L75.409 62.716L75.213 62.4996C75.0307 62.2976 74.9759 62.252 74.9759 62.3036Z" fill="#D8D8D8"/>
<path fill-rule="evenodd" clip-rule="evenodd" d="M133.135 57.5164C133.135 58.5431 133.144 58.9539 133.155 58.4291C133.167 57.9044 133.167 57.0644 133.155 56.5624C133.144 56.0606 133.135 56.4901 133.135 57.5164Z" fill="#D8D8D8"/>
</svg>
