<svg width="275" height="100" viewBox="0 0 275 100" fill="none" xmlns="http://www.w3.org/2000/svg">
<g clip-path="url(#clip0_1818_7404)">
<path d="M143.811 29.9901C143.811 33.0311 141.299 35.5052 138.212 35.5052C135.125 35.5052 132.613 33.0311 132.613 29.9901C132.613 26.9491 135.125 24.4751 138.212 24.4751C141.299 24.4751 143.811 26.9491 143.811 29.9901Z" fill="#D8D8D8"/>
<path d="M83.2182 84.4711V81.9971C83.2182 81.9971 81.4915 85.1928 77.2008 85.1928C74.3753 85.1928 71.0788 84.3681 71.0788 78.9045C71.0788 71.534 83.2182 72.1525 83.2182 72.1525C83.2182 72.1525 83.4799 69.1115 79.4508 69.1115C75.0032 69.1115 72.8578 71.1731 72.8578 71.1731V66.5859C72.8578 66.5859 73.7997 64.9365 80.288 64.9365C88.503 64.9365 88.817 71.1731 88.817 71.1731C88.817 73.9565 88.817 84.5743 88.817 84.5743H83.2182V84.4711ZM83.2182 75.3481C83.2182 75.3481 80.3927 75.1935 78.4566 75.9666C76.3113 76.7914 75.9973 79.2138 77.3578 80.2446C79.9217 82.2549 83.2182 78.9561 83.2182 78.9561V75.3481Z" fill="#D8D8D8"/>
<path d="M144.177 84.4711V81.9971C144.177 81.9971 142.45 85.1928 138.16 85.1928C135.334 85.1928 132.038 84.3681 132.038 78.9045C132.038 71.534 144.177 72.1525 144.177 72.1525C144.177 72.1525 144.439 69.1115 140.41 69.1115C135.962 69.1115 133.817 71.1731 133.817 71.1731V66.5859C133.817 66.5859 134.759 64.9365 141.247 64.9365C149.462 64.9365 149.776 71.1731 149.776 71.1731C149.776 73.9565 149.776 84.5743 149.776 84.5743H144.177V84.4711ZM144.177 75.3481C144.177 75.3481 141.351 75.1935 139.415 75.9666C137.27 76.7914 136.956 79.2138 138.317 80.2446C140.881 82.2549 144.177 78.9561 144.177 78.9561V75.3481Z" fill="#D8D8D8"/>
<path d="M108.073 70.8143V65.4023C108.073 65.4023 106.869 64.8354 103.049 64.8354C96.8226 64.8354 92.2704 68.7011 92.2704 74.6284C92.2704 81.6383 97.189 85.1432 102.578 85.1432C106.66 85.1432 108.02 83.7516 108.02 83.7516V78.4942C108.02 78.4942 106.607 80.4012 103.73 80.4012C100.852 80.4012 97.8692 78.7519 97.8692 75.0408C97.8692 71.4844 100.172 69.3196 103.52 69.3196C106.921 69.2681 108.073 70.8143 108.073 70.8143Z" fill="#D8D8D8"/>
<path d="M183.997 65.4016H177.822V84.4724H183.997V65.4016Z" fill="#D8D8D8"/>
<path d="M131.2 84.4724L124.084 74.6792L130.886 65.4016H123.875L118.119 73.8546V65.4016H111.944V84.4724H118.119V75.1947L123.875 84.4724H131.2Z" fill="#D8D8D8"/>
<path d="M183.997 59.3191C183.997 61.02 182.636 62.3601 180.909 62.3601C179.183 62.3601 177.822 61.02 177.822 59.3191C177.822 57.6181 179.183 56.2781 180.909 56.2781C182.636 56.2781 183.997 57.6181 183.997 59.3191Z" fill="#D8D8D8"/>
<path d="M201.682 65.4016H199.747C199.171 65.4016 198.385 65.4016 197.496 65.4016C194.566 65.4016 188.339 65.4016 188.339 70.762C188.339 75.2462 192.368 76.1225 192.368 76.1225C192.368 76.1225 191.165 77.3079 189.648 79.7304C188.078 82.1014 186.927 84.4724 186.927 84.4724H193.31C193.31 84.4724 194.252 82.3075 195.351 80.4005C196.503 78.4934 197.654 77.2049 197.654 77.2049H199.694V84.5239H205.868V65.4531H201.682V65.4016ZM199.747 74.1122C199.747 74.1122 194.461 74.1122 194.461 71.1229C194.461 68.1334 199.747 68.7519 199.747 68.7519V74.1122Z" fill="#D8D8D8"/>
<path d="M166.729 65.4016V72.6176H160.345V65.4016H154.171V84.4724H160.345V76.2771H166.729V84.4724H172.903V65.4016H166.729Z" fill="#D8D8D8"/>
<path d="M97.4502 24.5796C119.113 11.2816 141.613 8.29211 147.735 17.9306C150.822 22.8271 149.095 29.9915 143.81 37.6714C152.706 27.8782 156.421 18.0852 152.549 11.9001C146.479 2.26163 123.927 5.19956 102.264 18.5491C91.5899 25.095 83.1132 32.981 77.9854 40.4031C82.9563 34.8881 89.6015 29.373 97.4502 24.5796Z" fill="#D8D8D8"/>
<path d="M179.601 34.8872C157.938 48.1852 135.386 51.1747 129.316 41.5362C126.229 36.6397 127.956 29.4753 133.241 21.7955C124.345 31.5886 120.63 41.3816 124.502 47.5667C130.625 57.2052 153.124 54.2157 174.787 40.9177C185.461 34.3718 193.938 26.4858 199.065 19.0637C194.095 24.5787 187.449 30.0422 179.601 34.8872Z" fill="#D8D8D8"/>
</g>
<defs>
<clipPath id="clip0_1818_7404">
<rect width="136" height="80" fill="white" transform="translate(70 5)"/>
</clipPath>
</defs>
</svg>
