<svg width="275" height="100" viewBox="0 0 275 100" fill="none" xmlns="http://www.w3.org/2000/svg">
<path d="M57.4989 40.9113C57.4989 40.9113 40.4082 39.9069 39.0483 43.6674C37.6884 47.4278 52.9904 48.7385 62.0075 49.6082C71.0245 50.4779 77.2727 52.7562 77.2727 52.7562C77.2727 52.7562 77.3707 52.7807 77.5545 52.8174C77.6525 51.8988 77.7015 50.9556 77.7015 50.0001C77.7015 47.7463 77.4075 45.5537 76.8684 43.4591C71.3553 41.7688 57.4989 40.9113 57.4989 40.9113Z" fill="#D8D8D8"/>
<path d="M75.4716 39.5149C71.4531 30.475 62.3871 24.1667 51.8508 24.1667C40.6163 24.1667 31.0602 31.3325 27.5073 41.34C43.8139 35.3379 74.9693 39.5026 75.4716 39.5149Z" fill="#D8D8D8"/>
<path d="M74.8468 61.1959C56.4942 66.5243 29.0755 62.0656 29.0755 62.0656L28.9775 62.0044C33.3022 70.2235 41.9272 75.8336 51.8631 75.8336C62.1666 75.8336 71.0611 69.807 75.2021 61.0857C75.0796 61.1224 74.9693 61.1592 74.8468 61.1959Z" fill="#D8D8D8"/>
<path d="M49.2782 60.6199C49.2782 60.6199 69.7748 61.0853 68.3659 57.0676C66.9692 53.0499 41.5598 50.9676 41.5598 50.9676C41.5598 50.9676 38.2887 50.8819 30.0679 48.383C28.0955 47.7828 26.9193 47.0601 26.27 46.3252C26.0985 47.5256 26.0127 48.7505 26.0127 49.9999C26.0127 52.413 26.3435 54.7648 26.9683 56.9819C32.3467 60.0442 49.2782 60.6199 49.2782 60.6199Z" fill="#D8D8D8"/>
<path d="M98.921 70.3458C96.5687 70.3458 94.6085 69.8926 93.0403 68.9739C91.4599 68.0553 90.2715 66.7201 89.4752 64.944C88.6666 63.1801 88.2255 61.012 88.1275 58.4397L94.2532 57.2393C94.3145 58.746 94.4982 60.0811 94.8045 61.2448C95.1108 62.3962 95.5764 63.2904 96.2012 63.9151C96.826 64.5398 97.6591 64.8582 98.6882 64.8582C99.8399 64.8582 100.661 64.5153 101.151 63.8171C101.629 63.1311 101.874 62.2492 101.874 61.1958C101.874 59.4931 101.494 58.0968 100.722 57.0066C99.9501 55.9164 98.921 54.8262 97.6346 53.7238L92.7218 49.3877C91.3374 48.1995 90.2347 46.8766 89.4139 45.4067C88.5931 43.9491 88.1888 42.1362 88.1888 39.9804C88.1888 36.8936 89.0831 34.5173 90.8841 32.8514C92.685 31.1855 95.1476 30.3403 98.2594 30.3403C100.097 30.3403 101.616 30.6221 102.841 31.1855C104.067 31.749 105.034 32.5329 105.757 33.5251C106.48 34.5173 107.019 35.6564 107.374 36.9181C107.73 38.192 107.95 39.5271 108.048 40.948L101.972 42.0137C101.91 40.7888 101.776 39.6986 101.567 38.731C101.359 37.7633 100.992 37.0161 100.465 36.4649C99.9379 35.9137 99.1538 35.6442 98.1247 35.6442C97.0588 35.6442 96.2502 35.9872 95.6866 36.6854C95.1231 37.3713 94.8413 38.241 94.8413 39.2699C94.8413 40.5928 95.1108 41.6707 95.6621 42.5282C96.2134 43.3856 96.9975 44.2553 98.0267 45.1495L102.89 49.4366C104.495 50.784 105.868 52.3642 107.007 54.1893C108.146 56.0022 108.722 58.1947 108.722 60.767C108.722 62.6289 108.318 64.2825 107.497 65.7279C106.676 67.1733 105.537 68.3125 104.079 69.1209C102.596 69.9294 100.881 70.3458 98.921 70.3458Z" fill="#D8D8D8"/>
<path d="M117.237 69.8066V54.924L109.335 30.7688H115.987L120.802 46.2394L125.335 30.7688H131.84L124.036 54.9117V69.8066H117.237Z" fill="#D8D8D8"/>
<path d="M134.156 69.8066V30.7688H139.118L148.613 53.0376V30.7688H154.493V69.8066H149.764L140.221 46.4844V69.8066H134.156V69.8066Z" fill="#D8D8D8"/>
<path d="M159.517 69.8066V30.7688H175.909V35.7787H166.659V47.0111H173.936V51.972H166.659V64.8947H176.007V69.8066H159.517Z" fill="#D8D8D8"/>
<path d="M176.779 69.8066L184.632 49.0812L177.011 30.7688H183.664L188.724 42.8709L193.159 30.7688H199.334L191.811 50.4286L199.909 69.8066H193.257L187.707 56.7001L182.892 69.8066H176.779Z" fill="#D8D8D8"/>
<path d="M213.08 70.3456C210.188 70.3456 207.934 69.8189 206.329 68.7532C204.724 67.6875 203.609 66.1809 203.009 64.221C202.397 62.2612 202.09 59.9216 202.09 57.1901V30.7688H209.037V57.9985C209.037 59.2234 209.123 60.3626 209.282 61.4405C209.441 62.5184 209.821 63.3881 210.409 64.0373C211.009 64.6988 211.891 65.0295 213.08 65.0295C214.329 65.0295 215.236 64.6988 215.8 64.0373C216.363 63.3759 216.731 62.5062 216.902 61.4405C217.074 60.3626 217.172 59.2112 217.172 57.9985V30.7688H224.069V57.1778C224.069 59.9094 223.763 62.2612 223.15 64.2088C222.538 66.1687 221.435 67.6753 219.842 68.741C218.262 69.8066 215.996 70.3456 213.08 70.3456Z" fill="#D8D8D8"/>
<path d="M238.575 70.3456C236.222 70.3456 234.262 69.8924 232.694 68.9737C231.114 68.055 229.925 66.7199 229.129 64.9437C228.32 63.1799 227.879 61.0118 227.781 58.4395L233.907 57.2391C233.968 58.7457 234.152 60.0809 234.458 61.2445C234.765 62.3959 235.23 63.2901 235.855 63.9148C236.48 64.5395 237.313 64.858 238.342 64.858C239.494 64.858 240.314 64.515 240.805 63.8168C241.282 63.1309 241.527 62.2489 241.527 61.1955C241.527 59.4929 241.148 58.0965 240.376 57.0063C239.604 55.9162 238.575 54.826 237.288 53.7236L232.376 49.3874C230.991 48.1992 229.889 46.8763 229.068 45.4065C228.247 43.9488 227.843 42.136 227.843 39.9801C227.843 36.8933 228.737 34.517 230.538 32.8511C232.339 31.1853 234.801 30.3401 237.913 30.3401C239.751 30.3401 241.27 30.6218 242.495 31.1853C243.72 31.7487 244.688 32.5327 245.411 33.5248C246.134 34.517 246.673 35.6562 247.028 36.9178C247.384 38.1917 247.604 39.5269 247.702 40.9478L241.625 42.0135C241.564 40.7886 241.429 39.6984 241.221 38.7307C241.013 37.763 240.645 37.0158 240.118 36.4646C239.592 35.9134 238.808 35.6439 237.778 35.6439C236.713 35.6439 235.904 35.9869 235.34 36.6851C234.777 37.3711 234.495 38.2407 234.495 39.2697C234.495 40.5926 234.765 41.6705 235.316 42.5279C235.867 43.3854 236.651 44.255 237.68 45.1492L242.544 49.4364C244.149 50.7838 245.521 52.3639 246.661 54.1891C247.8 56.0019 248.376 58.1945 248.376 60.7668C248.376 62.6287 247.972 64.2823 247.151 65.7277C246.33 67.1731 245.191 68.3122 243.733 69.1207C242.25 69.9291 240.535 70.3456 238.575 70.3456Z" fill="#D8D8D8"/>
</svg>
