<svg width="275" height="100" viewBox="0 0 275 100" fill="none" xmlns="http://www.w3.org/2000/svg">
<path d="M116.146 78.0063H118.129V77.8638L117.506 77.762V75.5187L117.913 75.1116L119.68 77.7742L119.065 77.8679V78.0104H121.052V77.8679L120.596 77.7661L118.438 74.5864L119.969 73.0475L120.523 72.7625V72.6159H118.964V72.7625L119.7 73.0475L117.506 75.2867V72.8439L118.129 72.7462V72.5996H116.146V72.7462L116.765 72.8439V77.7294L116.146 77.8312V77.9737V78.0063ZM130.933 78.0063H132.916V77.8638L132.289 77.762V75.4902L133.693 73.0922L134.21 72.7584V72.6118H132.7V72.7584L133.514 73.0841L132.211 75.3029L130.803 72.8439L131.434 72.7462V72.5996H129.398V72.7462L129.932 72.8439L131.56 75.6938V77.7294L130.933 77.8312V77.9737V78.0063ZM143.074 78.0063H145.052V77.8638L144.429 77.762V72.8439L145.052 72.7462V72.5996H143.07V72.7462L143.688 72.8439V77.7294L143.07 77.8312V77.9737L143.074 78.0063ZM156.37 78.1406H156.423L158.353 73.0556L158.846 72.7584V72.6118H157.396V72.7584L158.17 73.0637L156.717 76.8785L155.231 72.8439L155.866 72.7625V72.6159H153.891V72.7625L154.416 72.8439L156.358 78.1366L156.37 78.1406Z" fill="#D8D8D8"/>
<path d="M5 75.1401H106.945V75.6124H5V75.1401Z" fill="#D8D8D8"/>
<path d="M165.954 75.1401H270V75.6124H165.954V75.1401Z" fill="#D8D8D8"/>
<path d="M5 59.2092H13.9772V58.57L11.168 58.11V47.7282H16.3304L18.134 52.2066H18.9482V42.5658H18.134L16.3304 46.9954H11.168V35.5428H20.2103L22.5595 41.7719H23.3737V34.7774H5V35.4492L7.80919 35.8767V58.11L5 58.57V59.2092ZM43.2701 59.5146C44.6747 59.5146 45.9286 59.026 47.15 57.654L46.6289 57.1044C45.9571 57.8046 45.1022 58.2321 44.4304 58.11C43.6976 57.9593 43.4248 57.1939 43.1194 55.2112L42.7123 52.5812C42.2238 49.5888 40.2695 47.7567 37.155 47.3292V47.146C41.552 46.5679 43.5062 44.4305 43.5062 41.0676C43.5062 36.9149 40.8517 34.7774 34.069 34.7774H25.5193V35.4492L28.3285 35.8767V58.11L25.5193 58.57V59.2092H34.4761V58.57L31.6669 58.11V47.3618H34.0486C37.4074 47.3618 38.5718 49.316 38.9342 51.7873L39.5123 55.883C39.9194 58.57 40.978 59.5146 43.2375 59.5146H43.2701ZM31.6913 46.629V35.5428H34.0731C37.5703 35.5428 39.8176 36.9759 39.8176 40.6116V41.2508C39.8176 44.8864 38.0141 46.629 35.1112 46.629H31.6913ZM47.7485 59.2092H66.8021V51.7588H65.9879L63.484 58.4764H53.8961V47.2681H57.8331L59.6692 51.7466H60.4631V42.1058H59.6692L57.8656 46.5353H53.8961V35.5428H62.9344L65.2876 41.7719H66.1019V34.7774H47.7485V35.4492L50.5577 35.8767V58.11L47.7485 58.57V59.2092ZM69.766 59.2092H88.8237V51.7588H88.0094L85.5056 58.4764H75.9137V47.2681H79.8547L81.6867 51.7466H82.4806V42.1058H81.6867L79.8872 46.5353H75.9137V35.5428H84.956L87.3051 41.7719H88.1194V34.7774H69.7334V35.4492L72.5426 35.8767V58.11L69.7334 58.57V59.2092H69.766ZM91.7876 59.2092H103.484C110.202 59.2092 114.998 54.4133 114.998 46.9954C114.998 39.5775 110.202 34.7815 103.484 34.7815H91.7672V35.4492L94.5683 35.8767V58.11L91.7591 58.57V59.2092H91.7876ZM97.9556 58.4764V35.5428H103.484C107.849 35.5428 111.118 38.5963 111.118 44.6422V49.3445C111.118 55.3944 107.861 58.4764 103.484 58.4764H97.9556ZM129.789 59.8159C136.507 59.8159 141.303 54.5924 141.303 46.9913C141.303 39.3902 136.503 34.1667 129.789 34.1667C123.075 34.1667 118.275 39.3576 118.275 46.9954C118.275 54.6331 123.039 59.8159 129.789 59.8159ZM129.789 59.1156C125.392 59.1156 122.054 55.5736 122.054 49.3445V44.6422C122.054 38.4131 125.384 34.8711 129.789 34.8711C134.194 34.8711 137.524 38.4131 137.524 44.6422V49.3445C137.524 55.5776 134.166 59.1156 129.789 59.1156ZM156.879 59.5227H157.429L166.467 36.7927V58.11L163.658 58.57V59.2092H172.635V58.57L169.826 58.11V35.8767L172.635 35.4492V34.7774H166.467L158.65 54.3848L150.984 34.7774H144.238V35.4492L147.047 35.8767V57.3487L144.177 58.57V59.2092H150.711V58.57L147.78 57.3487V35.8767L156.883 59.5146L156.879 59.5227ZM182.378 59.2174H191.359V58.57L188.55 58.11V46.6575H200.153V58.11L197.303 58.57V59.2092H206.341V58.57L203.491 58.11V35.8767L206.341 35.4492V34.7774H197.303V35.4492L200.153 35.8767V45.8961H188.55V35.8767L191.359 35.4492V34.7774H182.378V35.4492L185.187 35.8767V58.11L182.378 58.57V59.2092V59.2174ZM206.72 59.2174H213.234V58.57L210.486 57.3487L212.961 50.9323H221.104L223.701 58.1873L221.197 58.5945V59.2337H230.175V58.57L227.365 58.11L219.027 34.1667H218.539L209.712 57.3487L206.72 58.57V59.2092V59.2174ZM213.234 50.3013L217.232 39.549L220.896 50.3013H213.234ZM230.765 59.2174H249.391V51.7588H248.577L246.073 58.4764H236.925V35.8767L239.734 35.4492V34.7774H230.777V35.4492L233.586 35.8767V58.11L230.777 58.57V59.2092L230.765 59.2174ZM251.378 59.2174H270V51.7588H269.186L266.682 58.4764H257.538V35.8767L260.351 35.4492V34.7774H251.37V35.4492L254.163 35.8767V58.11L251.353 58.57V59.2092L251.378 59.2174Z" fill="#D8D8D8"/>
</svg>
