<svg width="276" height="100" viewBox="0 0 276 100" fill="none" xmlns="http://www.w3.org/2000/svg">
<path d="M48.5326 27.9395V73.978H94.571V27.9395H48.5326ZM93.2778 72.6848H49.8627V29.2696H93.2409V72.6848H93.2778Z" fill="#D8D8D8"/>
<path fill-rule="evenodd" clip-rule="evenodd" d="M49.8627 29.2698H93.2408V72.648H49.8627V29.2698ZM85.3337 70.3201L71.4778 56.5012L57.7328 70.1723L52.3012 64.7778L66.0463 51.0697L63.349 48.3724V42.9778L61.4277 41.0565V45.4903L59.5433 47.3747L52.7816 40.6131L51.045 42.4236C51.045 41.2412 51.3036 37.2507 54.5182 34.11C58.1392 30.5999 61.7233 32.6321 62.9795 33.8883L69.5195 40.4283L67.8937 42.0541L71.4778 45.6381L75.0619 42.0541L73.4361 40.4283L79.9761 33.8514C81.2324 32.5951 84.8164 30.5629 88.4375 34.0731C91.652 37.2138 91.9846 41.2412 91.9846 42.3866L90.1741 40.5761L83.4124 47.3378L81.528 45.4903V41.0195L79.6066 42.9409V48.3354L76.9093 51.0327L90.7653 64.8886L85.3337 70.3201Z" fill="#D8D8D8"/>
<path fill-rule="evenodd" clip-rule="evenodd" d="M107.208 31.7083H107.688C109.277 31.7083 111.087 32.0039 111.087 34.0731C111.087 36.1053 109.277 36.4378 107.688 36.4378H107.208V31.7083ZM112.048 39.0981C114.708 38.6178 116.186 36.3639 116.186 33.7775C116.186 29.75 113.378 27.9764 109.646 27.9764H102.33V46.8205H107.245V39.5785H107.281L111.9 46.8205H117.997L112.048 39.0981Z" fill="#D8D8D8"/>
<path fill-rule="evenodd" clip-rule="evenodd" d="M125.904 37.5094C127.751 37.5094 128.823 38.8395 128.823 40.3914C128.823 42.0172 127.751 43.2734 125.904 43.2734C124.056 43.2734 122.985 42.0172 122.985 40.3914C122.985 38.8395 124.056 37.5094 125.904 37.5094ZM133.22 33.9992H128.675V35.2555C127.714 34.147 126.162 33.5928 124.685 33.5928C120.879 33.5928 118.255 36.7334 118.255 40.4283C118.255 44.0863 120.916 47.2639 124.721 47.2639C126.236 47.2639 127.788 46.6727 128.601 45.4165H128.638V46.8575H133.183V33.9992H133.22Z" fill="#D8D8D8"/>
<path fill-rule="evenodd" clip-rule="evenodd" d="M140.794 46.8205H136.25V33.9992H140.794V46.8205ZM141.053 29.048C141.053 30.4521 139.907 31.5975 138.503 31.5975C137.099 31.5975 135.954 30.4521 135.954 29.048C135.954 27.644 137.099 26.4985 138.503 26.4985C139.907 26.4985 141.053 27.6809 141.053 29.048Z" fill="#D8D8D8"/>
<path fill-rule="evenodd" clip-rule="evenodd" d="M148.775 46.8204H144.231V37.731H142.642V33.9991H144.231V32.3734C144.231 30.5998 144.268 29.3066 145.524 27.8656C146.632 26.5354 148.258 25.8334 149.995 25.8334C150.697 25.8334 151.325 25.9442 151.953 26.2768V30.1934C151.436 29.9717 150.955 29.7869 150.364 29.7869C149.182 29.7869 148.775 30.489 148.775 31.93V33.9991H151.953V37.731H148.775V46.8204Z" fill="#D8D8D8"/>
<path fill-rule="evenodd" clip-rule="evenodd" d="M158.456 46.8204H153.911V37.731H152.322V33.9991H153.911V32.3734C153.911 30.5998 153.948 29.3066 155.204 27.8656C156.313 26.5354 157.939 25.8334 159.675 25.8334C160.377 25.8334 161.005 25.9442 161.634 26.2768V30.1934C161.116 29.9717 160.636 29.7869 160.045 29.7869C158.862 29.7869 158.456 30.489 158.456 31.93V33.9991H161.634V37.731H158.456V46.8204Z" fill="#D8D8D8"/>
<path fill-rule="evenodd" clip-rule="evenodd" d="M166.843 38.5439C167.102 37.2137 168.211 36.5117 169.541 36.5117C170.76 36.5117 171.905 37.3246 172.127 38.5439H166.843ZM176.339 40.687C176.339 36.327 173.753 33.5558 169.319 33.5558C165.144 33.5558 162.225 36.1422 162.225 40.3914C162.225 44.8253 165.402 47.2269 169.652 47.2269C172.571 47.2269 175.453 45.8598 176.155 42.83H171.795C171.277 43.6798 170.612 44.0124 169.615 44.0124C167.73 44.0124 166.77 43.0147 166.77 41.1673H176.339V40.687Z" fill="#D8D8D8"/>
<path fill-rule="evenodd" clip-rule="evenodd" d="M182.953 46.8205H178.408V33.9992H182.953V46.8205ZM183.249 29.048C183.249 30.4521 182.103 31.5975 180.699 31.5975C179.295 31.5975 178.15 30.4521 178.15 29.048C178.15 27.644 179.295 26.4985 180.699 26.4985C182.103 26.4985 183.249 27.6809 183.249 29.048Z" fill="#D8D8D8"/>
<path fill-rule="evenodd" clip-rule="evenodd" d="M194.444 37.2876C193.742 36.9182 192.782 36.6595 192.006 36.6595C191.488 36.6595 190.565 36.8812 190.565 37.5463C190.565 38.4331 192.006 38.5439 192.597 38.6548C194.703 39.0612 196.329 40.0958 196.329 42.4605C196.329 45.8229 193.262 47.2269 190.269 47.2269C188.459 47.2269 186.648 46.7097 185.096 45.749L186.759 42.5714C187.683 43.2364 189.235 43.8646 190.343 43.8646C190.934 43.8646 191.784 43.6059 191.784 42.9039C191.784 41.9063 190.343 41.8693 188.939 41.4629C187.535 41.0564 186.094 40.3914 186.094 38.1005C186.094 34.9599 188.939 33.5558 191.747 33.5558C193.188 33.5558 194.629 33.7775 195.959 34.3687L194.444 37.2876Z" fill="#D8D8D8"/>
<path fill-rule="evenodd" clip-rule="evenodd" d="M202.462 38.5439C202.721 37.2137 203.829 36.5117 205.16 36.5117C206.379 36.5117 207.524 37.3246 207.746 38.5439H202.462ZM211.958 40.687C211.958 36.327 209.372 33.5558 204.938 33.5558C200.763 33.5558 197.844 36.1422 197.844 40.3914C197.844 44.8253 201.021 47.2269 205.27 47.2269C208.189 47.2269 211.071 45.8598 211.81 42.83H207.45C206.933 43.6798 206.268 44.0124 205.27 44.0124C203.386 44.0124 202.425 43.0147 202.425 41.1673H211.995V40.687H211.958Z" fill="#D8D8D8"/>
<path fill-rule="evenodd" clip-rule="evenodd" d="M218.572 35.6249H218.609C219.644 34.0731 220.937 33.5558 222.71 33.5558C226.147 33.5558 227.551 35.7358 227.551 38.8764V46.7835H223.006V40.5392C223.006 39.3198 223.191 37.1768 220.937 37.1768C219.089 37.1768 218.572 38.5439 218.572 40.1327V46.7835H214.027V33.9992H218.572V35.6249Z" fill="#D8D8D8"/>
<path fill-rule="evenodd" clip-rule="evenodd" d="M108.575 66.2188H109.092C110.681 66.2188 113.156 65.9971 112.787 68.288C112.454 70.3571 110.016 70.2832 108.575 70.2832H107.947L108.575 66.2188ZM110.016 74.0151C113.452 74.0151 117.036 72.7219 117.664 68.7683C118.071 66.1449 117.221 64.2975 114.56 63.9649V63.928C116.223 63.1521 116.962 61.7849 117.258 60.0852C117.812 56.4642 115.78 55.171 112.417 55.171H105.397L102.404 74.052H110.016V74.0151ZM109.757 58.9029H110.09C111.42 58.9029 112.935 59.0137 112.639 60.7134C112.38 62.3022 111.013 62.5239 109.683 62.5239H109.129L109.757 58.9029Z" fill="#D8D8D8"/>
<path fill-rule="evenodd" clip-rule="evenodd" d="M130.744 66.9948H126.68L129.673 61.009H129.71L130.744 66.9948ZM131.483 70.7636L132.185 74.052H137.432L133.294 55.171H127.936L117.701 74.052H122.911L124.722 70.7636H131.483Z" fill="#D8D8D8"/>
<path fill-rule="evenodd" clip-rule="evenodd" d="M141.903 55.171H146.817L153.985 66.6992H154.022L155.87 55.171H160.747L157.754 74.0151H152.877L145.709 62.45H145.672L143.824 74.0151H138.947L141.903 55.171Z" fill="#D8D8D8"/>
<path fill-rule="evenodd" clip-rule="evenodd" d="M174.861 55.171H180.921L172.016 64.1127L178.63 74.0151H172.275L167.213 65.8493H167.176L165.883 74.0151H160.968L163.961 55.171H168.876L167.619 62.9304H167.693L174.861 55.171Z" fill="#D8D8D8"/>
</svg>
