<svg width="275" height="100" viewBox="0 0 275 100" fill="none" xmlns="http://www.w3.org/2000/svg">
<path d="M44.6905 13.7452C43.4874 15.1165 42.7501 16.9018 42.7501 18.8681C42.8277 23.1889 43.3451 27.4968 43.3969 31.8047C43.4874 35.828 42.2843 39.6054 40.8225 43.2924C40.3309 44.3143 39.8005 45.3105 39.2701 46.3066L37.7177 45.9961C36.3206 45.7115 35.4021 44.3532 35.6867 42.956C35.9325 41.727 37.0062 40.8732 38.2093 40.8732L38.7785 40.9379L37.5107 30.3817C37.0968 25.6857 34.6776 21.5589 31.1071 18.8811C30.4991 18.4153 29.8394 18.0014 29.1667 17.6262V55.1034H37.8212C38.468 58.6093 40.3956 61.6752 43.1123 63.7709C43.7591 64.2108 44.3024 64.8059 44.6905 65.4915C45.0786 64.8059 45.622 64.2237 46.2688 63.7709C48.9855 61.6752 50.913 58.6093 51.5599 55.1034H60.2144V17.6262C59.5417 18.0014 58.8819 18.4153 58.2739 18.8811C54.7034 21.5589 52.2843 25.6857 51.8703 30.3817L50.6025 40.9379L51.1718 40.8732C52.3749 40.8732 53.4486 41.727 53.6944 42.956C53.979 44.3532 53.0605 45.7244 51.6633 45.9961L50.111 46.3066C49.5806 45.3105 49.0502 44.3143 48.5586 43.2924C47.0838 39.6054 45.8807 35.828 45.9842 31.8047C46.0359 27.4839 46.5534 23.176 46.631 18.8681C46.631 16.9018 45.8936 15.1165 44.6905 13.7452V13.7452ZM31.754 23.0208C33.4228 24.9871 34.5483 27.4321 34.8846 30.1229L35.9195 38.8292C34.6 39.489 33.591 40.705 33.2158 42.1669H31.754V23.0208V23.0208ZM57.6271 23.0208V42.1669H56.1653C55.7901 40.705 54.7811 39.489 53.4615 38.8292L54.4965 30.1229C54.8328 27.4321 55.9583 24.9871 57.6271 23.0208V23.0208ZM44.6905 40.5239C45.3891 42.8008 46.3464 44.9612 47.5366 46.9663C46.4111 47.3027 45.4279 47.9754 44.6905 48.881C43.9661 47.9754 42.9829 47.3156 41.8445 46.9663C43.0347 44.9612 43.992 42.8008 44.6905 40.5239ZM31.754 44.7542H33.2158C33.6815 46.5394 35.0787 47.9495 36.838 48.4411L38.08 48.7257C37.7436 49.9288 37.5625 51.1966 37.5625 52.5161H31.741V44.7542H31.754ZM56.1653 44.7542H57.6271V52.5161H51.8056C51.8056 51.2095 51.6245 49.9288 51.2882 48.7257L52.5301 48.4411C54.3024 47.9495 55.6996 46.5394 56.1523 44.7542H56.1653ZM40.6155 49.3208C42.1808 49.5407 43.3969 50.8861 43.3969 52.5161H40.1627C40.1627 51.4036 40.3309 50.3428 40.6155 49.3208ZM48.7656 49.3208C49.0502 50.3299 49.2183 51.4036 49.2183 52.5161H45.9842C45.9842 50.8861 47.2002 49.5407 48.7656 49.3208ZM40.4603 55.1034H43.3969V60.5497C41.9739 59.0491 40.9389 57.1862 40.4603 55.1034ZM45.9842 55.1034H48.9208C48.4421 57.1862 47.4072 59.062 45.9842 60.5497V55.1034Z" fill="#D8D8D8"/>
<path d="M71.0812 13.6158H67.0385V49.9999H71.0812V13.6158Z" fill="#D8D8D8"/>
<path d="M71.0812 50H67.0385V86.3841H71.0812V50Z" fill="#D8D8D8"/>
<path d="M76.741 13.6158H79.9751L85.6349 25.7439L91.2946 13.6158H94.5288V32.2122H91.2946V20.0841L86.8477 29.7866H84.4221L79.9751 20.0841V32.2122H76.741V13.6158Z" fill="#D8D8D8"/>
<path d="M100.997 13.6158H97.7629V32.2122H100.997V13.6158Z" fill="#D8D8D8"/>
<path d="M79.9751 41.1061H76.7409V59.7024H79.9751V41.1061Z" fill="#D8D8D8"/>
<path d="M166.488 41.1061H163.254V59.7024H166.488V41.1061Z" fill="#D8D8D8"/>
<path d="M173.765 41.1061H170.531V59.7024H173.765V41.1061Z" fill="#D8D8D8"/>
<path d="M125.253 13.6158H122.019V32.2122H125.253V13.6158Z" fill="#D8D8D8"/>
<path d="M104.231 13.6158H107.465V21.7012H115.551V13.6158H118.785V32.2122H115.551V24.9353H107.465V32.2122H104.231V13.6158Z" fill="#D8D8D8"/>
<path d="M139.815 15.6292C138.854 14.6682 137.629 14.0137 136.296 13.7486C134.963 13.4835 133.581 13.6196 132.326 14.1397C131.07 14.6598 129.997 15.5406 129.241 16.6706C128.486 17.8007 128.083 19.1293 128.083 20.4885V25.3397C128.083 26.6989 128.486 28.0275 129.241 29.1575C129.997 30.2876 131.07 31.1684 132.326 31.6885C133.581 32.2086 134.963 32.3447 136.296 32.0796C137.629 31.8144 138.854 31.16 139.815 30.199L137.528 27.9124C137.015 28.4265 136.359 28.7749 135.645 28.9129C134.932 29.0508 134.193 28.972 133.525 28.6865C132.857 28.401 132.289 27.9219 131.896 27.311C131.502 26.7001 131.301 25.9853 131.317 25.2588V20.4076C131.301 19.6811 131.502 18.9664 131.896 18.3554C132.289 17.7445 132.857 17.2655 133.525 16.98C134.193 16.6945 134.932 16.6156 135.645 16.7536C136.359 16.8915 137.015 17.24 137.528 17.754L139.815 15.4675V15.6292Z" fill="#D8D8D8"/>
<path d="M109.495 43.1187C108.534 42.1577 107.309 41.5032 105.976 41.2381C104.643 40.973 103.261 41.1091 102.006 41.6292C100.75 42.1493 99.6765 43.0301 98.9213 44.1601C98.1661 45.2902 97.763 46.6188 97.7629 47.978V52.8292C97.763 54.1883 98.1661 55.517 98.9213 56.647C99.6765 57.7771 100.75 58.6579 102.006 59.178C103.261 59.6981 104.643 59.8342 105.976 59.5691C107.309 59.3039 108.534 58.6495 109.495 57.6885L107.208 55.4019C106.695 55.916 106.039 56.2644 105.325 56.4024C104.612 56.5403 103.873 56.4615 103.205 56.176C102.537 55.8905 101.969 55.4114 101.576 54.8005C101.182 54.1896 100.981 53.4748 100.997 52.7483V47.8971C100.981 47.1706 101.182 46.4559 101.576 45.8449C101.969 45.234 102.537 44.755 103.205 44.4695C103.873 44.184 104.612 44.1051 105.325 44.2431C106.039 44.381 106.695 44.7295 107.208 45.2435L109.495 42.957V43.1187Z" fill="#D8D8D8"/>
<path d="M200.051 15.6292C199.09 14.6682 197.865 14.0137 196.532 13.7486C195.199 13.4835 193.817 13.6196 192.561 14.1397C191.306 14.6598 190.232 15.5406 189.477 16.6706C188.722 17.8007 188.319 19.1293 188.319 20.4885V25.3397C188.319 26.6989 188.722 28.0275 189.477 29.1575C190.232 30.2876 191.306 31.1684 192.561 31.6885C193.817 32.2086 195.199 32.3447 196.532 32.0796C197.865 31.8144 199.09 31.16 200.051 30.199L197.764 27.9124C197.251 28.4265 196.595 28.7749 195.881 28.9129C195.168 29.0508 194.429 28.972 193.761 28.6865C193.093 28.401 192.525 27.9219 192.132 27.311C191.738 26.7001 191.537 25.9853 191.553 25.2588V20.4076C191.537 19.6811 191.738 18.9664 192.132 18.3554C192.525 17.7445 193.093 17.2655 193.761 16.98C194.429 16.6945 195.168 16.6156 195.881 16.7536C196.595 16.8915 197.251 17.24 197.764 17.754L200.051 15.4675V15.6292Z" fill="#D8D8D8"/>
<path d="M142.232 13.6158H155.169V16.85H150.318V32.2122H147.084V16.85H142.232V13.6158Z" fill="#D8D8D8"/>
<path d="M111.508 41.1061H124.445V44.3402H119.593V59.7024H116.359V44.3402H111.508V41.1061Z" fill="#D8D8D8"/>
<path d="M202.064 13.6158H215.001V16.85H210.149V32.2122H206.915V16.85H202.064V13.6158Z" fill="#D8D8D8"/>
<path d="M157.594 13.6158H170.531V16.85H160.829V21.7012H168.914V24.9353H160.829V28.978H170.531V32.2122H157.594V13.6158Z" fill="#D8D8D8"/>
<path d="M172.957 13.6158H180.233C181.735 13.6158 183.174 14.2121 184.236 15.2735C185.297 16.335 185.893 17.7745 185.893 19.2756C185.893 20.7767 185.297 22.2162 184.236 23.2776C183.174 24.339 181.735 24.9353 180.233 24.9353H176.191V32.2122H172.957V13.6158ZM176.191 21.7012H180.233C180.877 21.7012 181.494 21.4456 181.949 20.9908C182.404 20.5359 182.659 19.9189 182.659 19.2756C182.659 18.6323 182.404 18.0153 181.949 17.5604C181.494 17.1055 180.877 16.85 180.233 16.85H176.191V21.7012Z" fill="#D8D8D8"/>
<path fill-rule="evenodd" clip-rule="evenodd" d="M217.426 13.6158H224.905C226.353 13.6158 227.741 14.1908 228.764 15.2143C229.788 16.2378 230.363 17.626 230.363 19.0735C230.363 20.5122 229.795 21.8923 228.783 22.914C229.795 23.9357 230.363 25.3158 230.363 26.7545C230.363 28.202 229.788 29.5902 228.764 30.6137C227.741 31.6372 226.353 32.2122 224.905 32.2122H217.426V13.6158ZM220.66 16.85V21.2969H224.905C225.495 21.2969 226.06 21.0627 226.477 20.6457C226.894 20.2287 227.129 19.6632 227.129 19.0735C227.129 18.4838 226.894 17.9182 226.477 17.5012C226.06 17.0842 225.495 16.85 224.905 16.85H220.66ZM220.66 24.5311V28.978H224.905C225.495 28.978 226.06 28.7438 226.477 28.3268C226.894 27.9098 227.129 27.3443 227.129 26.7545C227.129 26.1648 226.894 25.5993 226.477 25.1823C226.06 24.7653 225.495 24.5311 224.905 24.5311H220.66Z" fill="#D8D8D8"/>
<path d="M232.788 20.4884C232.788 18.6657 233.512 16.9176 234.801 15.6288C236.09 14.3399 237.838 13.6158 239.661 13.6158C241.484 13.6158 243.232 14.3399 244.52 15.6288C245.809 16.9176 246.533 18.6657 246.533 20.4884V25.3396C246.533 27.1623 245.809 28.9104 244.52 30.1992C243.232 31.4881 241.484 32.2122 239.661 32.2122C237.838 32.2122 236.09 31.4881 234.801 30.1992C233.512 28.9104 232.788 27.1623 232.788 25.3396V20.4884ZM236.022 20.4884V25.3396C236.022 26.3046 236.406 27.23 237.088 27.9124C237.77 28.5947 238.696 28.978 239.661 28.978C240.626 28.978 241.551 28.5947 242.234 27.9124C242.916 27.23 243.299 26.3046 243.299 25.3396V20.4884C243.299 19.5234 242.916 18.598 242.234 17.9157C241.551 17.2333 240.626 16.85 239.661 16.85C238.696 16.85 237.77 17.2333 237.088 17.9157C236.406 18.598 236.022 19.5234 236.022 20.4884Z" fill="#D8D8D8"/>
<path d="M83.2093 49.1914H79.9751V52.4255H83.2093V49.1914Z" fill="#D8D8D8"/>
<path d="M82.4007 47.5744C82.4007 45.8589 83.0822 44.2136 84.2952 43.0006C85.5083 41.7876 87.1535 41.1061 88.869 41.1061C90.5845 41.1061 92.2297 41.7876 93.4428 43.0006C94.6558 44.2136 95.3373 45.8589 95.3373 47.5744V53.2341C95.3373 54.9496 94.6558 56.5948 93.4428 57.8079C92.2297 59.0209 90.5845 59.7024 88.869 59.7024C87.1535 59.7024 85.5083 59.0209 84.2952 57.8079C83.0822 56.5948 82.4007 54.9496 82.4007 53.2341V47.5744ZM85.6349 47.5744V53.2341C85.6349 54.0919 85.9756 54.9145 86.5821 55.521C87.1886 56.1275 88.0113 56.4683 88.869 56.4683C89.7268 56.4683 90.5494 56.1275 91.1559 55.521C91.7624 54.9145 92.1032 54.0919 92.1032 53.2341V47.5744C92.1032 46.7166 91.7624 45.894 91.1559 45.2875C90.5494 44.681 89.7268 44.3402 88.869 44.3402C88.0113 44.3402 87.1886 44.681 86.5821 45.2875C85.9756 45.894 85.6349 46.7166 85.6349 47.5744Z" fill="#D8D8D8"/>
<path d="M126.87 41.1061V59.7024H130.104L138.998 46.7658V59.7024H142.232V41.1061H138.998L130.104 54.0427V41.1061H126.87Z" fill="#D8D8D8"/>
<path d="M144.658 41.1061H147.892V56.4682H155.169V41.1061H158.403V56.4682H160.829V63.7451H157.595V59.7024H144.658V41.1061Z" fill="#D8D8D8"/>
<path d="M169.723 38.6804C170.616 38.6804 171.34 37.9564 171.34 37.0634C171.34 36.1703 170.616 35.4463 169.723 35.4463C168.829 35.4463 168.105 36.1703 168.105 37.0634C168.105 37.9564 168.829 38.6804 169.723 38.6804Z" fill="#D8D8D8"/>
<path d="M174.574 38.6804C175.467 38.6804 176.191 37.9564 176.191 37.0634C176.191 36.1703 175.467 35.4463 174.574 35.4463C173.681 35.4463 172.957 36.1703 172.957 37.0634C172.957 37.9564 173.681 38.6804 174.574 38.6804Z" fill="#D8D8D8"/>
</svg>
