<!-- Generated by IcoMoon.io -->
<svg version="1.1" xmlns="http://www.w3.org/2000/svg" width="1024" height="1024" viewBox="0 0 1024 1024">
<title></title>
<g id="icomoon-ignore">
</g>
<path d="M664.932 164.096c-37.044 42.992-96.313 76.901-155.583 72.057-7.41-58.13 21.609-119.893 55.566-158.041 37.041-44.203 101.868-75.69 154.347-78.112 6.174 60.552-17.905 119.893-54.329 164.096zM718.645 247.659c-85.819-4.844-159.287 47.835-200.035 47.835-41.367 0-103.724-45.413-171.635-44.202-88.288 1.211-170.402 50.258-215.471 128.37-92.609 156.225-24.078 387.534 65.444 514.695 43.835 62.974 96.313 132.004 165.46 129.581 65.446-2.423 91.376-41.782 170.401-41.782 79.645 0 102.487 41.782 171.635 40.57 71.618-1.211 116.689-62.974 160.523-125.947 50.009-71.453 70.384-141.087 71.618-144.721-1.234-1.211-138.295-52.681-139.531-207.695-1.234-129.581 108.044-191.343 112.982-194.977-61.737-89.617-158.051-99.306-191.391-101.728z"></path>
</svg>
