<!-- Generated by IcoMoon.io -->
<svg version="1.1" xmlns="http://www.w3.org/2000/svg" width="1024" height="1024" viewBox="0 0 1024 1024">
<title></title>
<g id="icomoon-ignore">
</g>
<path d="M1018.449 45.145c-3.54-8.563-8.784-16.59-15.718-23.567-0.102-0.104-0.205-0.207-0.307-0.31-13.224-13.145-31.444-21.268-51.566-21.268h-713.143c-40.395 0-73.143 32.747-73.143 73.143s32.748 73.143 73.143 73.143h536.561l-752.853 752.852c-28.564 28.562-28.564 74.876 0 103.439s74.875 28.562 103.44 0l752.851-752.851v536.561c0 40.397 32.746 73.143 73.143 73.143s73.143-32.746 73.143-73.143v-713.143c0-0.073 0-0.146 0-0.219-0.029-9.837-1.997-19.218-5.552-27.779z"></path>
</svg>
