<!-- Generated by IcoMoon.io -->
<svg version="1.1" xmlns="http://www.w3.org/2000/svg" width="1024" height="1024" viewBox="0 0 1024 1024">
<title></title>
<g id="icomoon-ignore">
</g>
<path d="M0 512c0-34.017 27.576-61.594 61.594-61.594h800.723c34.018 0 61.594 27.577 61.594 61.594s-27.575 61.594-61.594 61.594h-800.723c-34.017 0-61.594-27.577-61.594-61.594z"></path>
<path d="M572.387 121.98c24.055-24.054 63.054-24.054 87.107 0l346.467 346.466c24.053 24.055 24.053 63.053 0 87.108l-346.467 346.466c-24.053 24.053-63.053 24.053-87.107 0s-24.054-63.054 0-87.107l302.914-302.913-302.914-302.913c-24.054-24.055-24.054-63.053 0-87.108z"></path>
</svg>
