<!-- Generated by IcoMoon.io -->
<svg version="1.1" xmlns="http://www.w3.org/2000/svg" width="1024" height="1024" viewBox="0 0 1024 1024">
<title></title>
<g id="icomoon-ignore">
</g>
<path d="M70.696 261.736c-5.275 0-9.552 4.277-9.552 9.552v641.9c0 5.275 4.277 9.552 9.552 9.552h882.612c5.275 0 9.552-4.276 9.552-9.552v-641.9c0-5.275-4.276-9.552-9.552-9.552h-882.612zM0.011 271.288c0-39.038 31.647-70.685 70.685-70.685h882.612c39.036 0 70.685 31.647 70.685 70.685v641.9c0 39.039-31.649 70.685-70.685 70.685h-882.612c-39.038 0-70.685-31.646-70.685-70.685v-641.9z"></path>
<path d="M313.255 72.582c20.782-20.78 48.964-32.454 78.352-32.454h240.712c29.387 0 57.57 11.673 78.352 32.454 20.779 20.78 32.453 48.963 32.453 78.35v80.238c0 16.881-13.685 30.567-30.567 30.567s-30.567-13.685-30.567-30.567v-80.238c0-13.173-5.233-25.807-14.55-35.123-9.314-9.315-21.946-14.548-35.121-14.548h-240.712c-13.175 0-25.807 5.233-35.121 14.548-9.317 9.315-14.55 21.949-14.55 35.123v80.238c0 16.881-13.685 30.567-30.567 30.567s-30.567-13.685-30.567-30.567v-80.238c0-29.387 11.674-57.571 32.453-78.35z"></path>
<path d="M1019.885 488.216c8.455 14.614 3.463 33.311-11.151 41.766-150.969 87.344-322.356 133.21-496.772 132.944-174.385 0.266-345.742-45.584-496.696-132.901-14.613-8.452-19.607-27.149-11.154-41.763s27.151-19.608 41.764-11.154c141.634 81.924 302.416 124.941 466.039 124.684h0.094c163.651 0.257 324.459-42.772 466.11-124.727 14.611-8.452 33.311-3.46 41.763 11.151z"></path>
<path d="M421.217 471.882c0-16.882 13.688-30.567 30.567-30.567h120.359c16.879 0 30.567 13.685 30.567 30.567s-13.688 30.567-30.567 30.567h-120.359c-16.879 0-30.567-13.685-30.567-30.567z"></path>
</svg>
