<!-- Generated by IcoMoon.io -->
<svg version="1.1" xmlns="http://www.w3.org/2000/svg" width="1024" height="1024" viewBox="0 0 1024 1024">
<title></title>
<g id="icomoon-ignore">
</g>
<path d="M110.806 141.373c-5.275 0-9.552 4.276-9.552 9.552v802.388c0 5.276 4.276 9.552 9.552 9.552h802.388c5.276 0 9.552-4.276 9.552-9.552v-802.388c0-5.275-4.276-9.552-9.552-9.552h-802.388zM40.119 150.925c0-39.039 31.647-70.686 70.686-70.686h802.388c39.040 0 70.686 31.647 70.686 70.686v802.388c0 39.040-31.646 70.686-70.686 70.686h-802.388c-39.039 0-70.686-31.646-70.686-70.686v-802.388z"></path>
<path d="M752.717 0c16.883 0 30.567 13.686 30.567 30.567v160.478c0 16.881-13.684 30.567-30.567 30.567s-30.567-13.686-30.567-30.567v-160.478c0-16.881 13.684-30.567 30.567-30.567z"></path>
<path d="M271.283 0c16.881 0 30.567 13.686 30.567 30.567v160.478c0 16.881-13.686 30.567-30.567 30.567s-30.567-13.686-30.567-30.567v-160.478c0-16.881 13.686-30.567 30.567-30.567z"></path>
<path d="M40.119 351.522c0-16.883 13.686-30.567 30.567-30.567h882.627c16.883 0 30.567 13.684 30.567 30.567s-13.684 30.567-30.567 30.567h-882.627c-16.881 0-30.567-13.684-30.567-30.567z"></path>
<path d="M300.896 552.104c0-16.883 13.686-30.567 30.569-30.567h140.417c11.75 0 22.461 6.734 27.55 17.326 5.089 10.589 3.659 23.161-3.681 32.334l-51.249 64.059c15.797 8.574 29.272 20.862 39.264 35.81 10.124 15.146 16.356 32.557 18.148 50.689 1.789 18.129-0.92 36.424-7.886 53.257s-17.98 31.692-32.059 43.256c-14.079 11.564-30.791 19.478-48.659 23.038-17.867 3.564-36.338 2.665-53.774-2.613-17.438-5.279-33.305-14.779-46.196-27.654-11.945-11.93-11.956-31.283-0.026-43.228s31.285-11.954 43.23-0.027c5.778 5.774 12.89 10.032 20.706 12.398s16.097 2.77 24.105 1.171c8.011-1.595 15.503-5.144 21.816-10.326 6.309-5.184 11.246-11.845 14.37-19.392s4.338-15.745 3.533-23.873c-0.801-8.127-3.595-15.935-8.134-22.724s-10.68-12.356-17.884-16.207c-7.202-3.848-15.244-5.863-23.411-5.863-11.75 0-22.461-6.734-27.55-17.326s-3.659-23.161 3.681-32.337l40.51-50.634h-76.818c-16.884 0-30.569-13.688-30.569-30.567z"></path>
<path d="M686.151 524.764c10.356 5.178 16.897 15.76 16.897 27.34v260.777c0 16.883-13.688 30.567-30.567 30.567-16.883 0-30.567-13.684-30.567-30.567v-199.643l-31.332 23.5c-13.508 10.127-32.667 7.391-42.794-6.113-10.13-13.508-7.394-32.667 6.113-42.794l80.239-60.18c9.262-6.945 21.654-8.064 32.010-2.886z"></path>
</svg>
