<!-- Generated by IcoMoon.io -->
<svg version="1.1" xmlns="http://www.w3.org/2000/svg" width="1024" height="1024" viewBox="0 0 1024 1024">
<title></title>
<g id="icomoon-ignore">
</g>
<path d="M0 49.353c0-27.254 22.094-49.348 49.348-49.348h83.511c20.225 0 39.807 7.098 55.336 20.057s26.014 30.957 29.632 50.855l121.695 669.322h487.072c27.255 0 49.348 22.093 49.348 49.348s-22.093 49.348-49.348 49.348h-528.258c-23.849 0-44.286-17.055-48.553-40.52l-127.22-699.713h-73.214c-27.254 0-49.348-22.094-49.348-49.348z"></path>
<path d="M345.442 838.936c-23.848 0-43.18 19.335-43.18 43.18s19.332 43.18 43.18 43.18c23.848 0 43.18-19.335 43.18-43.18s-19.332-43.18-43.18-43.18zM203.564 882.116c0-78.356 63.521-141.878 141.878-141.878s141.878 63.522 141.878 141.878c0 78.356-63.521 141.878-141.878 141.878s-141.878-63.522-141.878-141.878z"></path>
<path d="M826.594 838.936c-23.846 0-43.18 19.335-43.18 43.18s19.335 43.18 43.18 43.18c23.846 0 43.18-19.335 43.18-43.18s-19.335-43.18-43.18-43.18zM684.716 882.116c0-78.356 63.522-141.878 141.878-141.878s141.878 63.522 141.878 141.878c0 78.356-63.522 141.878-141.878 141.878s-141.878-63.522-141.878-141.878z"></path>
<path d="M983.469 185.858c26.816 4.876 44.602 30.565 39.726 57.381l-56.243 309.335c-5.167 28.425-20.15 54.135-42.332 72.651-22.182 18.511-50.158 28.652-79.052 28.652h-580.879c-27.255 0-49.348-22.093-49.348-49.348s22.094-49.348 49.348-49.348h580.879c5.778 0 11.375-2.028 15.811-5.729 4.436-3.707 7.432-8.849 8.464-14.534l56.243-309.334c4.876-26.814 30.566-44.601 57.383-39.725zM385.886 198.248c19.972-18.546 51.196-17.389 69.742 2.583l124.222 133.777 124.221-133.777c18.546-19.972 49.768-21.128 69.745-2.583 19.972 18.546 21.126 49.769 2.581 69.742l-160.384 172.721c-9.336 10.056-22.439 15.77-36.163 15.77s-26.826-5.714-36.163-15.77l-160.383-172.721c-18.546-19.972-17.389-51.196 2.583-69.742z"></path>
</svg>
