<!-- Generated by IcoMoon.io -->
<svg version="1.1" xmlns="http://www.w3.org/2000/svg" width="1024" height="1024" viewBox="0 0 1024 1024">
<title></title>
<g id="icomoon-ignore">
</g>
<path d="M0 49.349c0-27.255 22.094-49.349 49.349-49.349h83.512c20.225 0 39.808 7.098 55.336 20.058s26.014 30.957 29.633 50.856l121.697 669.328h487.077c27.256 0 49.349 22.093 49.349 49.349s-22.093 49.349-49.349 49.349h-528.263c-23.849 0-44.286-17.055-48.554-40.52l-127.222-699.72h-73.215c-27.255 0-49.349-22.094-49.349-49.349z"></path>
<path d="M345.446 838.939c-23.848 0-43.18 19.336-43.18 43.18s19.332 43.18 43.18 43.18c23.848 0 43.18-19.336 43.18-43.18s-19.332-43.18-43.18-43.18zM203.566 882.12c0-78.357 63.521-141.879 141.879-141.879s141.879 63.522 141.879 141.879c0 78.357-63.521 141.879-141.879 141.879s-141.879-63.522-141.879-141.879z"></path>
<path d="M826.602 838.939c-23.846 0-43.18 19.336-43.18 43.18s19.336 43.18 43.18 43.18c23.846 0 43.18-19.336 43.18-43.18s-19.336-43.18-43.18-43.18zM684.723 882.12c0-78.357 63.522-141.879 141.879-141.879s141.879 63.522 141.879 141.879c0 78.357-63.522 141.879-141.879 141.879s-141.879-63.522-141.879-141.879z"></path>
<path d="M148.048 234.409c0-27.255 22.094-49.349 49.349-49.349h777.253c14.632 0 28.514 6.494 37.891 17.728 9.371 11.235 13.28 26.051 10.664 40.449l-56.244 309.337c-5.172 28.425-20.15 54.136-42.332 72.652-22.182 18.511-50.159 28.652-79.053 28.652h-580.885c-27.255 0-49.349-22.093-49.349-49.349s22.094-49.349 49.349-49.349h580.885c5.778 0 11.375-2.028 15.811-5.73 4.436-3.707 7.432-8.849 8.464-14.534l45.668-251.158h-718.122c-27.255 0-49.349-22.094-49.349-49.349z"></path>
</svg>
