<!-- Generated by IcoMoon.io -->
<svg version="1.1" xmlns="http://www.w3.org/2000/svg" width="1024" height="1024" viewBox="0 0 1024 1024">
<title></title>
<g id="icomoon-ignore">
</g>
<path d="M325.818 93.091c25.706 0 46.545 20.839 46.545 46.545v186.182c0 25.706-20.839 46.545-46.545 46.545h-186.182c-25.706 0-46.545-20.839-46.545-46.545v-186.182c0-25.706 20.839-46.545 46.545-46.545h186.182zM139.636 0c-77.119 0-139.636 62.518-139.636 139.636v186.182c0 77.119 62.518 139.636 139.636 139.636h186.182c77.119 0 139.636-62.518 139.636-139.636v-186.182c0-77.119-62.518-139.636-139.636-139.636h-186.182z"></path>
<path d="M325.818 651.636c25.706 0 46.545 20.838 46.545 46.545v186.182c0 25.707-20.839 46.545-46.545 46.545h-186.182c-25.706 0-46.545-20.838-46.545-46.545v-186.182c0-25.707 20.839-46.545 46.545-46.545h186.182zM139.636 558.545c-77.119 0-139.636 62.515-139.636 139.636v186.182c0 77.121 62.518 139.636 139.636 139.636h186.182c77.119 0 139.636-62.515 139.636-139.636v-186.182c0-77.121-62.518-139.636-139.636-139.636h-186.182z"></path>
<path d="M884.364 93.091c25.707 0 46.545 20.839 46.545 46.545v186.182c0 25.706-20.838 46.545-46.545 46.545h-186.182c-25.707 0-46.545-20.839-46.545-46.545v-186.182c0-25.706 20.838-46.545 46.545-46.545h186.182zM698.182 0c-77.121 0-139.636 62.518-139.636 139.636v186.182c0 77.119 62.515 139.636 139.636 139.636h186.182c77.121 0 139.636-62.518 139.636-139.636v-186.182c0-77.119-62.515-139.636-139.636-139.636h-186.182z"></path>
<path d="M884.364 651.636c25.707 0 46.545 20.838 46.545 46.545v186.182c0 25.707-20.838 46.545-46.545 46.545h-186.182c-25.707 0-46.545-20.838-46.545-46.545v-186.182c0-25.707 20.838-46.545 46.545-46.545h186.182zM698.182 558.545c-77.121 0-139.636 62.515-139.636 139.636v186.182c0 77.121 62.515 139.636 139.636 139.636h186.182c77.121 0 139.636-62.515 139.636-139.636v-186.182c0-77.121-62.515-139.636-139.636-139.636h-186.182z"></path>
</svg>
