<svg width="22" height="27" viewBox="0 0 22 27" fill="none" xmlns="http://www.w3.org/2000/svg">
<path fill-rule="evenodd" clip-rule="evenodd" d="M0.585787 2.58579C0.960859 2.21071 1.46957 2 2 2H6.99973C7.55201 2 7.99973 2.44772 7.99973 3C7.99973 3.55228 7.55201 4 6.99973 4L2 4L2 25H20V4H15.0002C14.448 4 14.0002 3.55228 14.0002 3C14.0002 2.44772 14.448 2 15.0002 2H20C20.5304 2 21.0391 2.21071 21.4142 2.58579C21.7893 2.96086 22 3.46957 22 4V25C22 25.5304 21.7893 26.0391 21.4142 26.4142C21.0391 26.7893 20.5304 27 20 27H2C1.46957 27 0.960861 26.7893 0.585787 26.4142C0.210714 26.0391 0 25.5304 0 25V4C0 3.46957 0.210714 2.96086 0.585787 2.58579Z" fill="#1B1B1B"/>
<path fill-rule="evenodd" clip-rule="evenodd" d="M11 2C9.93913 2 8.92172 2.42143 8.17157 3.17157C7.42143 3.92172 7 4.93913 7 6H15C15 4.93913 14.5786 3.92172 13.8284 3.17157C13.0783 2.42143 12.0609 2 11 2ZM6.75736 1.75736C7.88258 0.632141 9.4087 0 11 0C12.5913 0 14.1174 0.632141 15.2426 1.75736C16.3679 2.88258 17 4.4087 17 6V7C17 7.55228 16.5523 8 16 8H6C5.44772 8 5 7.55228 5 7V6C5 4.4087 5.63214 2.88258 6.75736 1.75736Z" fill="#1B1B1B"/>
</svg>
