<!-- Generated by IcoMoon.io -->
<svg version="1.1" xmlns="http://www.w3.org/2000/svg" width="1024" height="1024" viewBox="0 0 1024 1024">
<title></title>
<g id="icomoon-ignore">
</g>
<path d="M512 61.135c-249.006 0-450.865 201.859-450.865 450.865s201.859 450.865 450.865 450.865c249.006 0 450.865-201.859 450.865-450.865s-201.859-450.865-450.865-450.865zM0 512c0-282.769 229.23-512 512-512s512 229.23 512 512c0 282.77-229.229 512-512 512s-512-229.229-512-512z"></path>
<path d="M512 200.597c16.882 0 30.567 13.685 30.567 30.567v250.268h250.268c16.882 0 30.567 13.685 30.567 30.567s-13.685 30.567-30.567 30.567h-280.836c-16.882 0-30.567-13.685-30.567-30.567v-280.836c0-16.881 13.685-30.567 30.567-30.567z"></path>
</svg>
