<!-- Generated by IcoMoon.io -->
<svg version="1.1" xmlns="http://www.w3.org/2000/svg" width="1024" height="1024" viewBox="0 0 1024 1024">
<title></title>
<g id="icomoon-ignore">
</g>
<path d="M512 102.4c-226.216 0-409.6 183.384-409.6 409.6s183.384 409.6 409.6 409.6c226.217 0 409.6-183.383 409.6-409.6s-183.383-409.6-409.6-409.6zM0 512c0-282.77 229.23-512 512-512 282.767 0 512 229.23 512 512 0 282.767-229.233 512-512 512-282.77 0-512-229.233-512-512z"></path>
<path d="M701.804 322.196c19.994 19.995 19.994 52.413 0 72.408l-307.199 307.199c-19.995 19.994-52.413 19.994-72.408 0s-19.995-52.413 0-72.407l307.201-307.201c19.994-19.995 52.413-19.995 72.407 0z"></path>
<path d="M322.196 322.196c19.995-19.995 52.413-19.995 72.408 0l307.199 307.201c19.994 19.994 19.994 52.413 0 72.407s-52.413 19.994-72.407 0l-307.201-307.199c-19.995-19.995-19.995-52.413 0-72.408z"></path>
</svg>
