<svg width="14" height="14" viewBox="0 0 14 14" fill="none" xmlns="http://www.w3.org/2000/svg">
<path fill-rule="evenodd" clip-rule="evenodd" d="M13.3321 0.667893C13.7226 1.05842 13.7226 1.69158 13.3321 2.08211L2.08211 13.3321C1.69158 13.7226 1.05842 13.7226 0.667893 13.3321C0.277369 12.9416 0.277369 12.3084 0.667893 11.9179L11.9179 0.667893C12.3084 0.277369 12.9416 0.277369 13.3321 0.667893Z" fill="#1B1B1B"/>
<path fill-rule="evenodd" clip-rule="evenodd" d="M0.667893 0.667893C1.05842 0.277369 1.69158 0.277369 2.08211 0.667893L13.3321 11.9179C13.7226 12.3084 13.7226 12.9416 13.3321 13.3321C12.9416 13.7226 12.3084 13.7226 11.9179 13.3321L0.667893 2.08211C0.277369 1.69158 0.277369 1.05842 0.667893 0.667893Z" fill="#1B1B1B"/>
</svg>
