<!-- Generated by IcoMoon.io -->
<svg version="1.1" xmlns="http://www.w3.org/2000/svg" width="1024" height="1024" viewBox="0 0 1024 1024">
<title></title>
<g id="icomoon-ignore">
</g>
<path fill="#000" d="M65.588 205.521c-4.892 0-8.858 3.966-8.858 8.858v595.243c0 4.892 3.966 8.858 8.858 8.858h892.863c4.892 0 8.858-3.966 8.858-8.858v-595.243c0-4.892-3.966-8.858-8.858-8.858h-892.863zM0.041 214.379c0-36.201 29.347-65.548 65.548-65.548h892.863c36.202 0 65.548 29.347 65.548 65.548v595.243c0 36.202-29.346 65.548-65.548 65.548h-892.863c-36.201 0-65.548-29.346-65.548-65.548v-595.243z"></path>
<path fill="#000" d="M669.646 698.013c0-15.655 12.693-28.344 28.344-28.344h148.811c15.655 0 28.344 12.69 28.344 28.344s-12.69 28.344-28.344 28.344h-148.811c-15.652 0-28.344-12.69-28.344-28.344z"></path>
<path fill="#000" d="M446.43 698.013c0-15.655 12.693-28.344 28.344-28.344h74.405c15.655 0 28.344 12.69 28.344 28.344s-12.69 28.344-28.344 28.344h-74.405c-15.652 0-28.344-12.69-28.344-28.344z"></path>
<path fill="#000" d="M-0.001 367.152c0-15.654 12.691-28.344 28.346-28.344h967.268c15.655 0 28.344 12.691 28.344 28.344s-12.69 28.344-28.344 28.344h-967.268c-15.655 0-28.346-12.691-28.346-28.344z"></path>
</svg>
