<!-- Generated by IcoMoon.io -->
<svg version="1.1" xmlns="http://www.w3.org/2000/svg" width="1024" height="1024" viewBox="0 0 1024 1024">
<title></title>
<g id="icomoon-ignore">
</g>
<path d="M354.463 577.642c0-14.501 11.755-26.256 26.256-26.256h262.564c14.501 0 26.256 11.755 26.256 26.256v105.026h131.282c14.501 0 26.256 11.755 26.256 26.256v91.897h105.026c14.501 0 26.256 11.755 26.256 26.256v170.667c0 14.501-11.755 26.256-26.256 26.256h-840.207c-14.501 0-26.256-11.755-26.256-26.256v-170.667c0-14.501 11.755-26.256 26.256-26.256h105.026v-91.897c0-14.501 11.756-26.256 26.256-26.256h131.282v-105.026zM406.975 603.898v105.026c0 14.501-11.755 26.256-26.256 26.256h-131.282v91.897c0 14.501-11.756 26.256-26.256 26.256h-105.026v118.154h787.694v-118.154h-105.026c-14.501 0-26.256-11.755-26.256-26.256v-91.897h-131.282c-14.501 0-26.256-11.755-26.256-26.256v-105.026h-210.051z"></path>
<path d="M144.411 393.846c14.501 0 26.256 11.755 26.256 26.256v183.795c0 14.501-11.756 26.256-26.256 26.256s-26.256-11.755-26.256-26.256v-183.795c0-14.501 11.756-26.256 26.256-26.256z"></path>
<path d="M144.411 220.866c14.501 0 26.256 11.755 26.256 26.256v30.889c0 14.501-11.756 26.256-26.256 26.256s-26.256-11.755-26.256-26.256v-30.889c0-14.501 11.756-26.256 26.256-26.256z"></path>
<path d="M328.206 236.308c14.501 0 26.256 11.756 26.256 26.256v183.795c0 14.501-11.755 26.256-26.256 26.256s-26.256-11.755-26.256-26.256v-183.795c0-14.501 11.756-26.256 26.256-26.256z"></path>
<path d="M328.206 66.41c14.501 0 26.256 11.755 26.256 26.256v30.89c0 14.501-11.755 26.256-26.256 26.256s-26.256-11.756-26.256-26.256v-30.89c0-14.501 11.756-26.256 26.256-26.256z"></path>
<path d="M512.001 183.795c14.501 0 26.256 11.756 26.256 26.256v183.795c0 14.501-11.755 26.256-26.256 26.256s-26.256-11.755-26.256-26.256v-183.795c0-14.501 11.755-26.256 26.256-26.256z"></path>
<path d="M512.001 0c14.501 0 26.256 11.755 26.256 26.256v30.89c0 14.501-11.755 26.256-26.256 26.256s-26.256-11.755-26.256-26.256v-30.89c0-14.501 11.755-26.256 26.256-26.256z"></path>
<path d="M695.796 236.308c14.501 0 26.256 11.756 26.256 26.256v183.795c0 14.501-11.755 26.256-26.256 26.256s-26.256-11.755-26.256-26.256v-183.795c0-14.501 11.755-26.256 26.256-26.256z"></path>
<path d="M695.796 66.41c14.501 0 26.256 11.755 26.256 26.256v30.89c0 14.501-11.755 26.256-26.256 26.256s-26.256-11.756-26.256-26.256v-30.89c0-14.501 11.755-26.256 26.256-26.256z"></path>
<path d="M879.591 393.846c14.501 0 26.256 11.755 26.256 26.256v183.795c0 14.501-11.755 26.256-26.256 26.256s-26.256-11.755-26.256-26.256v-183.795c0-14.501 11.755-26.256 26.256-26.256z"></path>
<path d="M879.591 220.866c14.501 0 26.256 11.755 26.256 26.256v30.889c0 14.501-11.755 26.256-26.256 26.256s-26.256-11.755-26.256-26.256v-30.889c0-14.501 11.755-26.256 26.256-26.256z"></path>
</svg>
