<svg width="24" height="24" viewBox="0 0 24 24" fill="none" xmlns="http://www.w3.org/2000/svg">
<path fill-rule="evenodd" clip-rule="evenodd" d="M17.043 6.0428C17.4336 5.65233 18.0667 5.65241 18.4572 6.04299L23.7058 11.293C24.0962 11.6835 24.0962 12.3165 23.7058 12.707L18.4572 17.957C18.0667 18.3476 17.4336 18.3477 17.043 17.9572C16.6524 17.5667 16.6523 16.9336 17.0428 16.543L21.5846 12L17.0428 7.45701C16.6523 7.06644 16.6524 6.43327 17.043 6.0428Z" fill="#373737"/>
<path fill-rule="evenodd" clip-rule="evenodd" d="M8 12C8 11.4477 8.44772 11 9 11H22.9963C23.5486 11 23.9963 11.4477 23.9963 12C23.9963 12.5523 23.5486 13 22.9963 13H9C8.44772 13 8 12.5523 8 12Z" fill="#373737"/>
<path fill-rule="evenodd" clip-rule="evenodd" d="M0.585787 0.585787C0.960859 0.210714 1.46957 0 2 0H9C9.55229 0 10 0.447715 10 1C10 1.55228 9.55229 2 9 2L2 2L2 22H9C9.55229 22 10 22.4477 10 23C10 23.5523 9.55229 24 9 24H2C1.46957 24 0.960861 23.7893 0.585787 23.4142C0.210714 23.0391 0 22.5304 0 22V2C0 1.46957 0.210714 0.960859 0.585787 0.585787Z" fill="#373737"/>
</svg>
