<svg width="32" height="32" viewBox="0 0 32 32" fill="none" xmlns="http://www.w3.org/2000/svg">
<path d="M16 32C24.8366 32 32 24.8366 32 16C32 7.16344 24.8366 0 16 0C7.16344 0 0 7.16344 0 16C0 24.8366 7.16344 32 16 32Z" fill="#1977F3"/>
<path d="M22.2282 20.626L22.937 15.9999H18.4999V12.9984C18.4999 11.7339 19.1187 10.4986 21.1077 10.4986H23.126V6.56105C23.126 6.56105 21.2945 6.24829 19.5439 6.24829C15.8899 6.24829 13.5003 8.46233 13.5003 12.4741V15.9999H9.43677V20.626H13.5003V31.8064C14.3148 31.9347 15.1496 31.9999 16.0001 31.9999C16.8506 31.9999 17.6854 31.9324 18.4999 31.8064V20.626H22.2282Z" fill="white"/>
</svg>
