<!-- Generated by IcoMoon.io -->
<svg version="1.1" xmlns="http://www.w3.org/2000/svg" width="1024" height="1024" viewBox="0 0 1024 1024">
<title></title>
<g id="icomoon-ignore">
</g>
<path fill="#000" d="M512 338.493c-96.549 0-175.543 78.994-175.543 175.543s78.994 175.543 175.543 175.543c96.549 0 175.543-78.994 175.543-175.543s-78.994-175.543-175.543-175.543zM512 631.065c-64.366 0-117.029-52.663-117.029-117.029s52.663-117.029 117.029-117.029c64.366 0 117.029 52.663 117.029 117.029s-52.663 117.029-117.029 117.029z"></path>
<path fill="#000" d="M1015.222 625.213l-73.143-96.549c0-11.703 0-23.406 0-29.257l73.143-96.549c5.851-5.851 5.851-17.554 5.851-26.331-11.703-43.886-29.257-84.844-52.663-125.804-2.926-8.777-11.703-14.629-20.48-14.629l-119.954-17.554c-5.851-8.777-14.629-14.629-20.48-20.48l-17.554-122.88c0-8.777-5.851-17.554-14.629-20.48-40.96-23.406-81.92-40.96-125.806-52.663-8.777-2.926-17.554 0-26.331 5.851l-96.549 73.143c-11.703 0-20.48 0-32.183 0l-96.549-73.143c-5.851-5.851-17.554-5.851-26.331-5.851-43.886 11.703-84.846 29.257-125.806 52.663-5.851 5.851-11.703 11.703-11.703 20.48l-17.554 122.88c-8.777 5.851-14.629 11.703-20.48 20.48l-122.88 17.554c-8.777 0-14.629 5.851-20.48 14.629-23.406 38.034-40.96 81.919-52.663 122.879 0 8.777 0 20.48 5.851 26.331l73.143 99.474c0 11.703 0 23.406 0 29.257l-73.143 96.549c-5.851 8.777-5.851 17.554-5.851 26.331 11.703 43.886 29.257 84.846 52.663 125.806 5.851 5.851 11.703 11.703 20.48 14.629l119.954 17.554c5.851 8.777 14.629 14.629 20.48 20.48l20.48 119.954c0 8.777 5.851 17.554 14.629 20.48 38.034 23.406 81.92 40.96 125.806 52.663 2.926 0 5.851 0 8.777 0 5.851 0 11.703-2.926 17.554-5.851l96.549-73.143c11.703 0 20.48 0 32.183 0l96.549 73.143c5.851 5.851 17.554 5.851 26.331 5.851 43.886-11.703 84.846-29.257 125.806-52.663 8.777-5.851 11.703-11.703 14.629-20.48l17.554-119.954c8.777-5.851 14.629-14.629 20.48-20.48l119.954-17.554c8.777 0 17.554-5.851 20.48-14.629 23.406-38.034 40.96-81.92 52.663-125.806 0-8.777-2.926-17.554-8.777-26.331zM924.526 733.465l-117.029 17.554c-5.851 0-11.703 2.926-17.554 8.777s-23.406 23.406-32.183 32.183c-5.851 5.851-8.777 11.703-8.777 17.554l-17.554 117.029c-26.331 14.629-55.589 26.331-84.846 35.109l-93.623-70.217c-5.851-2.926-11.703-5.851-20.48-5.851-14.629 0-29.257 0-46.811 0-5.851 0-14.629 2.926-20.48 5.851l-93.623 70.217c-29.257-8.777-58.514-20.48-84.846-35.109l-17.554-117.029c0-5.851-2.926-11.703-8.777-17.554-11.703-8.777-23.406-20.48-32.183-32.183-5.851-5.851-11.703-8.777-17.554-8.777l-117.029-17.554c-14.629-26.331-26.331-55.589-35.109-84.846l70.217-93.623c2.926-5.851 5.851-11.703 5.851-17.554 0-8.777 0-35.109 0-46.811 0-5.851-2.926-14.629-5.851-20.48l-70.217-93.623c8.777-29.257 20.48-58.514 35.109-84.844l117.029-17.554c5.851 0 11.703-2.926 17.554-8.777 11.703-11.703 23.406-23.406 35.109-32.183 5.851-5.851 8.777-11.703 8.777-17.554l17.554-117.029c26.331-14.629 55.589-26.331 84.846-35.109l93.623 70.217c5.851 2.926 11.703 5.851 20.48 5.851 14.629 0 29.257 0 46.811 0 5.851 0 14.629-2.926 20.48-5.851l93.623-70.217c29.257 8.777 58.514 20.48 84.846 35.109l17.554 117.029c0 5.851 2.926 14.629 8.777 17.554 8.777 8.777 20.48 20.48 29.257 32.183 5.851 5.851 11.703 8.777 17.554 8.777l117.029 17.554c14.629 26.33 26.331 55.587 35.109 84.844l-70.217 93.623c-2.926 5.851-5.851 11.703-5.851 17.554 0 8.777 0 35.109 0 46.811 0 5.851 2.926 14.629 5.851 20.48l70.217 93.623c-8.777 29.257-20.48 58.514-35.109 84.846z"></path>
</svg>
