<svg width="32" height="32" viewBox="0 0 32 32" fill="none" xmlns="http://www.w3.org/2000/svg">
<g clip-path="url(#clip0_2075_7429)">
<path d="M31.4837 16.2994C31.4837 14.9884 31.3782 14.0317 31.15 13.0396H16.3088V18.9568H25.0203C24.8447 20.4273 23.8963 22.6419 21.7886 24.13L21.7591 24.3281L26.4516 27.9951L26.7767 28.0278C29.7624 25.2462 31.4837 21.1537 31.4837 16.2994Z" fill="#4285F4"/>
<path d="M16.3088 31.8903C20.5766 31.8903 24.1595 30.4729 26.7766 28.028L21.7885 24.1302C20.4538 25.0692 18.6622 25.7247 16.3088 25.7247C12.1287 25.7247 8.58093 22.9432 7.31624 19.0986L7.13087 19.1145L2.25155 22.9237L2.18774 23.1026C4.78711 28.3114 10.1264 31.8903 16.3088 31.8903Z" fill="#34A853"/>
<path d="M7.31628 19.0987C6.98258 18.1066 6.78946 17.0435 6.78946 15.9451C6.78946 14.8466 6.98258 13.7837 7.29873 12.7915L7.28989 12.5803L2.34941 8.70996L2.18777 8.78752C1.11644 10.949 0.501709 13.3762 0.501709 15.9451C0.501709 18.5141 1.11644 20.9412 2.18777 23.1026L7.31628 19.0987Z" fill="#FBBC05"/>
<path d="M16.3089 6.16535C19.2771 6.16535 21.2793 7.45865 22.421 8.53944L26.8821 4.14569C24.1423 1.57679 20.5768 0 16.3089 0C10.1265 0 4.78713 3.57873 2.18774 8.78738L7.29873 12.7914C8.58098 8.94689 12.1288 6.16535 16.3089 6.16535Z" fill="#EB4335"/>
</g>
<defs>
<clipPath id="clip0_2075_7429">
<rect width="31" height="32" fill="white" transform="translate(0.5)"/>
</clipPath>
</defs>
</svg>
