<!-- Generated by IcoMoon.io -->
<svg version="1.1" xmlns="http://www.w3.org/2000/svg" width="1024" height="1024" viewBox="0 0 1024 1024">
<title></title>
<g id="icomoon-ignore">
</g>
<path d="M718.487 279.494c-52.855-50.387-123.372-77.918-196.354-76.749-133.499 0-246.87 89.995-287.387 211.288h-0.005c-21.427 63.503-21.427 132.459 0 195.963h0.005c40.517 121.292 153.887 211.287 287.387 211.287 69.216 0 128.302-17.789 174.272-48.955v-0.132c53.895-35.714 90.775-91.943 102.202-155.577h-276.477v-197.13h482.831c5.974 34.414 8.831 69.216 8.831 104.151 0 155.834-55.712 287.645-152.329 376.604h-0.166l0.169 0.128c-84.801 78.307-201.159 123.629-339.332 123.629-193.497 0-370.499-109.085-457.378-282.060l-0.005-0.003c-72.723-144.666-72.723-315.177 0-459.843h0.005c86.879-172.847 263.88-282.062 457.377-282.062 127.137-1.429 249.857 46.361 342.578 133.369l-146.223 146.096z"></path>
</svg>
