<!-- Generated by IcoMoon.io -->
<svg version="1.1" xmlns="http://www.w3.org/2000/svg" width="1024" height="1024" viewBox="0 0 1024 1024">
<title></title>
<g id="icomoon-ignore">
</g>
<path d="M514.475 969.143c-9.893 0-14.841 0-24.734-4.947-19.788-14.841-489.741-277.025-489.741-618.358 0-69.257 24.734-133.566 64.309-183.034s103.884-89.043 168.193-98.938c64.309-19.788 133.566-4.947 192.928 24.734 34.628 14.841 64.309 39.574 89.043 69.257 24.734-29.681 54.416-54.416 84.097-69.257 59.362-29.681 128.619-39.575 192.928-29.681 64.309 14.841 123.672 49.469 168.193 98.938s64.309 118.725 64.309 183.034c0 341.333-469.953 608.464-489.741 618.358-4.947 9.893-14.841 9.893-19.788 9.893zM291.865 152.91c-14.841 0-24.734 0-39.575 4.947-44.522 4.947-84.097 29.681-108.831 64.309s-44.522 79.15-44.522 123.672c0 242.396 321.547 460.058 415.538 519.421 93.991-59.362 415.538-272.078 415.538-519.421 0-44.522-14.841-89.043-44.522-123.672s-69.257-59.362-108.831-64.309c-44.522-9.893-89.043 0-128.619 19.788s-69.257 54.416-89.043 93.991c-9.893 19.788-24.734 29.681-44.522 29.681s-39.575-9.893-44.522-29.681c-14.841-39.575-49.469-74.203-89.043-93.991-29.681-14.841-59.362-24.734-89.043-24.734z"></path>
</svg>
