<!-- Generated by IcoMoon.io -->
<svg version="1.1" xmlns="http://www.w3.org/2000/svg" width="1024" height="1024" viewBox="0 0 1024 1024">
<title></title>
<g id="icomoon-ignore">
</g>
<path d="M512.115 249.458c-145.293 0-262.484 117.218-262.484 262.541s117.192 262.54 262.484 262.54c145.287 0 262.479-117.215 262.479-262.54 0-145.323-117.192-262.541-262.479-262.541zM512.115 682.686c-93.892 0-170.65-76.549-170.65-170.687 0-94.14 76.529-170.686 170.65-170.686 94.115 0 170.645 76.546 170.645 170.686 0 94.138-76.758 170.687-170.645 170.687v0zM846.553 238.719c0 34.046-27.411 61.237-61.221 61.237-34.039 0-61.221-27.419-61.221-61.237s27.411-61.237 61.221-61.237c33.811 0 61.221 27.419 61.221 61.237zM1020.4 300.87c-3.882-82.030-22.616-154.691-82.697-214.557-59.853-59.866-132.496-78.602-214.509-82.715-84.522-4.798-337.866-4.798-422.391 0-81.783 3.884-154.428 22.621-214.509 82.487s-78.585 132.527-82.697 214.557c-4.797 84.543-4.797 337.942 0 422.487 3.884 82.027 22.616 154.689 82.697 214.556s132.497 78.601 214.509 82.716c84.524 4.799 337.869 4.799 422.391 0 82.013-3.887 154.657-22.621 214.509-82.716 59.853-59.867 78.587-132.529 82.697-214.556 4.799-84.545 4.799-337.716 0-422.258v0zM911.204 813.841c-17.818 44.786-52.312 79.286-97.317 97.336-67.393 26.736-227.3 20.568-301.772 20.568-74.475 0-234.614 5.939-301.776-20.568-44.775-17.822-79.27-52.322-97.317-97.336-26.728-67.407-20.56-227.351-20.56-301.842 0-74.489-5.939-234.664 20.56-301.841 17.819-44.785 52.314-79.288 97.317-97.339 67.391-26.734 227.301-20.564 301.776-20.564 74.473 0 234.608-5.941 301.772 20.564 44.777 17.823 79.272 52.325 97.317 97.339 26.726 67.406 20.559 227.352 20.559 301.841s6.167 234.664-20.559 301.842z"></path>
</svg>
