<!-- Generated by IcoMoon.io -->
<svg version="1.1" xmlns="http://www.w3.org/2000/svg" width="1024" height="1024" viewBox="0 0 1024 1024">
<title></title>
<g id="icomoon-ignore">
</g>
<path d="M679.269 60.484c72.872 7.387 140.957 39.708 192.746 91.499 51.792 51.791 84.112 119.877 91.499 192.747s-10.613 146.055-50.959 207.186c-40.343 61.131-100.555 106.457-170.464 128.316-69.663 21.786-144.696 18.933-212.495-8.062-10.902-4.706-23.816-2.429-32.464 6.219l-54.962 54.962h-103.699c-16.256 0-29.432 13.179-29.432 29.432v86.458h-86.457c-16.256 0-29.432 13.179-29.432 29.432v86.458h-134.285v-151.524l286.744-286.744c8.671-8.674 10.928-21.621 6.193-32.523-26.971-67.785-29.815-142.794-8.038-212.436 21.863-69.905 67.188-130.119 128.319-170.464s134.317-58.343 207.186-50.956zM525.411 733.362c75.612 25.83 157.666 27.004 234.252 3.056 82.846-25.91 154.211-79.627 202.024-152.076 47.813-72.448 69.146-159.185 60.392-245.545-8.756-86.364-47.060-167.054-108.441-228.434-61.378-61.38-142.069-99.685-228.433-108.44-86.361-8.755-173.097 12.577-245.548 60.392-72.448 47.814-126.168 119.176-152.074 202.025-23.949 76.583-22.775 158.641 3.052 234.253l-282.015 282.015c-5.519 5.521-8.62 13.007-8.62 20.812v193.15c0 16.256 13.177 29.432 29.433 29.432h193.15c16.255 0 29.432-13.177 29.432-29.432v-86.458h86.457c16.256 0 29.432-13.177 29.432-29.432v-86.458h86.458c7.805 0 15.293-3.099 20.812-8.62l50.238-50.235z"></path>
<path d="M744.073 290.029c5.587 0 10.116-4.53 10.116-10.116 0-5.59-4.53-10.119-10.116-10.119-5.59 0-10.119 4.53-10.119 10.119 0 5.587 4.53 10.116 10.119 10.116zM695.324 279.912c0-26.924 21.827-48.749 48.749-48.749s48.746 21.825 48.746 48.749c0 26.922-21.825 48.746-48.746 48.746s-48.749-21.825-48.749-48.746z"></path>
<path d="M744.073 337.856c32.002 0 57.944-25.942 57.944-57.944s-25.942-57.946-57.944-57.946-57.946 25.943-57.946 57.946c0 32.002 25.945 57.944 57.946 57.944z"></path>
</svg>
