<!-- Generated by IcoMoon.io -->
<svg version="1.1" xmlns="http://www.w3.org/2000/svg" width="1024" height="1024" viewBox="0 0 1024 1024">
<title></title>
<g id="icomoon-ignore">
</g>
<path d="M318.688 0c-13.152 0-23.814 10.662-23.814 23.814v88.621c0 6.342 2.53 12.421 7.028 16.891l49.72 49.411v175.747h-32.934c-13.152 0-23.814 10.662-23.814 23.814v189.326c0 13.152 10.662 23.814 23.814 23.814h56.932l113.819 153.248v88.802c0 13.152 10.662 23.814 23.814 23.814s23.814-10.662 23.814-23.814v-88.6l117.646-153.45h44.999c13.152 0 23.814-10.662 23.814-23.814v-189.326c0-13.152-10.662-23.814-23.814-23.814h-32.935v-175.747l49.721-49.411c4.498-4.47 7.027-10.55 7.027-16.891v-88.621c0-13.152-10.662-23.814-23.814-23.814h-381.024zM399.251 354.485v-161.841h219.898v161.841h-219.898zM675.898 102.527l-42.756 42.489h-247.884l-42.756-42.489v-54.899h333.396v54.899zM513.556 697.277l-78.607-105.839h159.751l-81.144 105.839zM342.502 543.811v-141.698h333.396v141.698h-333.396zM199.625 976.372c-13.152 0-23.814 10.662-23.814 23.814s10.662 23.814 23.814 23.814h619.162c13.152 0 23.814-10.662 23.814-23.814s-10.662-23.814-23.814-23.814h-619.162zM727.717 777.899l-215.714 124.542-215.715-124.542c-11.39-6.575-25.954-2.674-32.531 8.716s-2.673 25.955 8.717 32.532l226.858 130.977c3.994 2.305 8.378 3.322 12.671 3.182 4.291 0.141 8.675-0.876 12.669-3.182l226.859-130.977c11.39-6.577 15.291-21.142 8.716-32.532s-21.14-15.291-32.53-8.716zM185.679 772.722c11.39 6.575 25.954 2.672 32.53-8.718s2.674-25.952-8.716-32.53l-41.247-23.814c-11.39-6.575-25.954-2.674-32.531 8.716s-2.674 25.955 8.717 32.532l41.247 23.814zM838.321 772.72c-11.39 6.577-25.952 2.674-32.53-8.716-6.575-11.39-2.674-25.955 8.716-32.53l41.248-23.814c11.39-6.577 25.955-2.674 32.53 8.716 6.577 11.39 2.674 25.955-8.716 32.53l-41.248 23.814z"></path>
</svg>
