<!-- Generated by IcoMoon.io -->
<svg version="1.1" xmlns="http://www.w3.org/2000/svg" width="1024" height="1024" viewBox="0 0 1024 1024">
<title></title>
<g id="icomoon-ignore">
</g>
<path d="M167.811 999.619c0-13.466 10.916-24.381 24.381-24.381h633.905c13.466 0 24.381 10.915 24.381 24.381s-10.915 24.381-24.381 24.381h-633.905c-13.465 0-24.381-10.915-24.381-24.381z"></path>
<path d="M289.704 24.381c0-13.465 10.916-24.381 24.381-24.381h390.095c13.466 0 24.381 10.916 24.381 24.381v90.731c0 6.493-2.589 12.717-7.195 17.294l-50.905 50.588v179.932h33.719c13.466 0 24.381 10.915 24.381 24.381v193.833c0 13.466-10.915 24.381-24.381 24.381h-46.070l-120.447 157.104v90.709c0 13.466-10.915 24.381-24.381 24.381s-24.381-10.915-24.381-24.381v-90.917l-116.529-156.896h-58.288c-13.465 0-24.381-10.915-24.381-24.381v-193.833c0-13.466 10.916-24.381 24.381-24.381h33.719v-179.932l-50.905-50.588c-4.605-4.577-7.195-10.801-7.195-17.294v-90.731zM396.565 197.231v165.694h225.134v-165.694h-225.134zM636.025 148.469l43.774-43.5v-56.207h-341.333v56.207l43.774 43.5h253.786zM542.851 411.687h-67.438v145.072h67.438v-145.072zM591.613 556.759v-145.072h88.186v145.072h-88.186zM426.651 556.759v-145.072h-88.186v145.072h88.186zM433.112 605.52l80.479 108.359 83.076-108.359h-163.555z"></path>
<path d="M532.336 963.823c-6.734 11.661-21.645 15.657-33.307 8.923l-232.259-134.095c-11.661-6.732-15.657-21.643-8.924-33.304s21.644-15.657 33.305-8.923l232.259 134.095c11.661 6.732 15.657 21.643 8.926 33.304z"></path>
<path d="M211.215 782.197c-6.733 11.661-21.644 15.657-33.305 8.926l-42.229-24.381c-11.661-6.734-15.657-21.645-8.924-33.307s21.644-15.655 33.305-8.923l42.229 24.381c11.661 6.734 15.656 21.643 8.924 33.304z"></path>
<path d="M491.668 963.823c6.732 11.661 21.643 15.657 33.304 8.923l232.26-134.095c11.661-6.732 15.657-21.643 8.923-33.304-6.732-11.661-21.643-15.657-33.304-8.923l-232.26 134.095c-11.661 6.732-15.657 21.643-8.923 33.304z"></path>
<path d="M812.787 782.197c6.732 11.661 21.643 15.657 33.304 8.926l42.23-24.381c11.661-6.734 15.655-21.645 8.923-33.307-6.734-11.661-21.643-15.655-33.304-8.923l-42.23 24.381c-11.661 6.734-15.657 21.643-8.923 33.304z"></path>
</svg>
