<svg width="210" height="39" viewBox="0 0 210 39" fill="none" xmlns="http://www.w3.org/2000/svg">
<path d="M205.499 2.97401H206.754L210 25.5781H206.461L204.325 10.636L198.177 20.4157H196.872L190.7 10.5857L188.589 25.5781H185.018L188.264 2.97401H189.972L196.846 13.9663C197.066 14.3078 197.287 14.6575 197.508 15.027C197.728 14.6563 197.949 14.2992 198.169 13.9424C200.397 10.2693 202.785 6.61514 205.079 2.97416H205.499V2.97401ZM170.744 6.52638V13.5447H175.848C177.123 13.5447 178.143 13.1932 178.835 12.5872C179.513 11.9929 179.89 11.1295 179.89 10.097C179.89 9.08611 179.485 8.18814 178.791 7.55057C178.099 6.91432 177.113 6.52638 175.941 6.52638H170.744V6.52638ZM181.74 14.5673C180.878 15.4819 179.726 16.1692 178.346 16.5605L183.884 24.4856V25.5781H180.347L174.386 16.9128H170.744V25.5781H167.155V3.15847H175.941C178.031 3.15847 179.911 3.90663 181.27 5.13961C182.639 6.38188 183.479 8.11161 183.479 10.0662C183.479 11.8349 182.856 13.3835 181.74 14.5671V14.5673ZM146.615 20.2413C147.995 21.668 149.942 22.5483 152.251 22.5483C154.586 22.5483 156.538 21.6711 157.919 20.2482C159.364 18.7591 160.195 16.6625 160.195 14.3375C160.195 11.9384 159.385 9.88013 157.975 8.43748C156.595 7.02446 154.621 6.18842 152.251 6.18842C149.906 6.18842 147.937 7.0283 146.555 8.44721C145.151 9.88942 144.338 11.9435 144.338 14.3375C144.338 16.6574 145.174 18.7507 146.615 20.2413V20.2413ZM160.459 22.6396C158.43 24.6831 155.591 25.9469 152.251 25.9469C148.948 25.9469 146.108 24.6745 144.074 22.6192C141.982 20.5057 140.749 17.5667 140.749 14.3375C140.749 11.0158 141.957 8.12238 144.011 6.05926C146.051 4.01029 148.915 2.78955 152.251 2.78955C155.624 2.78955 158.489 4.00321 160.525 6.042C162.586 8.1066 163.784 11.0064 163.784 14.3374C163.784 17.5753 162.56 20.5226 160.459 22.6393V22.6396ZM128.28 25.5783H125.455V3.15862H139.75V6.52653H129.044V12.961H138.658V16.329H129.044V25.5783H128.28V25.5783ZM117.153 18.5781V3.15847H120.742V25.7319H118.724C114.219 20.5094 109.661 15.3072 105.197 10.0526V25.5783H101.609V3.00483H103.594L116.985 18.4999L117.153 18.6835V18.5781V18.5781ZM96.1305 25.5783H93.3063V3.15862H96.8949V25.5783H96.1305ZM89.7007 25.5783H73.6735V23.9799L84.4083 7.38174L84.9538 6.52535C81.3707 6.53169 77.7872 6.52667 74.204 6.52667V3.15877H90.1528V4.75624C86.4036 10.5742 82.679 16.4161 78.8955 22.2109C82.7519 22.2059 86.6085 22.2103 90.465 22.2103V25.5784H89.7007V25.5783ZM69.943 25.5783H67.1188V3.15862H70.7073V25.5783H69.943ZM54.6128 18.2602L61.6216 3.15862H65.0889V4.14491C61.708 11.3411 58.3282 18.5377 54.9439 25.732H53.2924L43.1476 4.14491V3.15862H46.5519L53.656 18.3488L54.1141 19.3371C54.2708 18.9914 54.4515 18.605 54.6128 18.26V18.2602Z" fill="#0047BA"/>
<path d="M18.9756 37.8448C29.4555 37.8448 37.9512 29.373 37.9512 18.9224C37.9512 8.47185 29.4555 0 18.9756 0C8.49567 0 0 8.47185 0 18.9224C0 29.373 8.49567 37.8448 18.9756 37.8448Z" fill="#0047BA"/>
<path d="M18.9756 2.30737C23.5764 2.30737 27.7419 4.16716 30.7572 7.17381C33.7723 10.1806 35.6373 14.3344 35.6373 18.9223C35.6373 23.5103 33.7723 27.6641 30.7572 30.6709C27.7419 33.6775 23.5764 35.5373 18.9756 35.5373C14.3748 35.5373 10.2093 33.6775 7.19408 30.6709C4.17898 27.6641 2.31396 23.5103 2.31396 18.9223C2.31396 14.3344 4.17898 10.1806 7.19408 7.17381C10.2093 4.16716 14.3748 2.30737 18.9756 2.30737V2.30737ZM29.7272 8.20095C26.9757 5.45735 23.1742 3.7602 18.9756 3.7602C14.777 3.7602 10.9756 5.4575 8.22411 8.20095C5.47279 10.9447 3.77087 14.7355 3.77087 18.9223C3.77087 23.1092 5.47294 26.9 8.22411 29.6437C10.9756 32.3873 14.777 34.0845 18.9756 34.0845C23.1742 34.0845 26.9757 32.3872 29.7272 29.6437C32.4785 26.9 34.1804 23.1092 34.1804 18.9223C34.1804 14.7355 32.4783 10.9447 29.7272 8.20095V8.20095Z" fill="#FEFEFE"/>
<path d="M19.4701 24.945L26.4789 9.84351H29.9462V10.8298C26.5653 18.026 23.1855 25.2225 19.8012 32.4169H18.1497L8.00488 10.8298V9.84351H11.4092L18.5133 25.0337L18.9714 26.022C19.1281 25.6763 19.3088 25.2899 19.4701 24.9449V24.945Z" fill="#FEFEFE"/>
<path d="M53.3004 38.8964V32.1069H54.0504V32.7516C54.2269 32.5025 54.4268 32.315 54.6504 32.1905C54.8722 32.0661 55.1425 32.003 55.4598 32.003C55.8755 32.003 56.241 32.1102 56.5582 32.326C56.8753 32.5404 57.1144 32.8445 57.2769 33.2354C57.4378 33.6277 57.5191 34.0565 57.5191 34.5245C57.5191 35.0241 57.4301 35.4748 57.2519 35.8768C57.0739 36.2771 56.8144 36.5844 56.4739 36.7988C56.1348 37.0116 55.777 37.1188 55.402 37.1188C55.127 37.1188 54.8802 37.0605 54.663 36.9439C54.4443 36.8273 54.2661 36.6807 54.1255 36.5026V38.8966H53.3006L53.3004 38.8964ZM54.0504 34.5907C54.0504 35.2196 54.177 35.6845 54.4285 35.9855C54.6816 36.2866 54.9878 36.4378 55.3472 36.4378C55.7128 36.4378 56.0253 36.2818 56.2846 35.9698C56.5455 35.6578 56.6751 35.1755 56.6751 34.5214C56.6751 33.8973 56.5486 33.4307 56.2939 33.1204C56.0393 32.81 55.7362 32.6554 55.3831 32.6554C55.0331 32.6554 54.7238 32.8209 54.4549 33.1503C54.1846 33.4813 54.0502 33.9604 54.0502 34.5907H54.0504ZM59.5467 37.0147V32.1069H60.2873V32.8586C60.4764 32.5104 60.6514 32.2802 60.8122 32.1699C60.9731 32.058 61.1497 32.0028 61.3419 32.0028C61.62 32.0028 61.9027 32.0912 62.1903 32.266L61.8965 33.0335C61.6965 32.92 61.4965 32.8633 61.2965 32.8633C61.1168 32.8633 60.956 32.9185 60.8137 33.0273C60.6716 33.136 60.57 33.2874 60.509 33.4812C60.4168 33.7759 60.3714 34.099 60.3714 34.4505V37.0147H59.5465H59.5467ZM63.4102 34.5608C63.4102 33.6546 63.6602 32.9832 64.1618 32.5466C64.5789 32.1842 65.0898 32.0028 65.6915 32.0028C66.3586 32.0028 66.9054 32.2236 67.3304 32.6647C67.7539 33.1044 67.9664 33.7144 67.9664 34.4913C67.9664 35.1218 67.8726 35.6167 67.6851 35.9775C67.4976 36.3385 67.2242 36.6189 66.8648 36.8191C66.5069 37.0194 66.1148 37.1186 65.6915 37.1186C65.0103 37.1186 64.4602 36.8995 64.04 36.4598C63.6197 36.0201 63.4104 35.3865 63.4104 34.5606L63.4102 34.5608ZM64.2539 34.5624C64.2539 35.1897 64.3898 35.6593 64.6617 35.9698C64.9351 36.2818 65.2773 36.4378 65.6913 36.4378C66.1006 36.4378 66.4413 36.2818 66.7147 35.9682C66.9866 35.6546 67.1225 35.177 67.1225 34.5356C67.1225 33.9304 66.985 33.4717 66.7116 33.1613C66.4382 32.8493 66.0975 32.6933 65.6913 32.6933C65.2773 32.6933 64.9351 32.8477 64.6617 33.1583C64.3898 33.4688 64.2539 33.9368 64.2539 34.5624V34.5624ZM69.9752 37.0147V32.1069H70.7159V32.8004C70.8675 32.5608 71.0706 32.367 71.3236 32.2219C71.5768 32.0754 71.8642 32.0028 72.1876 32.0028C72.5469 32.0028 72.8422 32.0785 73.072 32.2281C73.3016 32.3794 73.4641 32.5891 73.5579 32.8601C73.9453 32.288 74.4468 32.0027 75.0656 32.0027C75.55 32.0027 75.9234 32.1367 76.1827 32.4061C76.4437 32.6756 76.5749 33.0901 76.5749 33.6496V37.0144H75.7499V33.9253C75.7499 33.5943 75.7219 33.3548 75.6686 33.2082C75.6155 33.0617 75.5187 32.945 75.3764 32.8552C75.2358 32.7654 75.0702 32.7212 74.8811 32.7212C74.5373 32.7212 74.253 32.8362 74.0264 33.0648C73.7999 33.2949 73.6874 33.6621 73.6874 34.1664V37.0142H72.8624V33.829C72.8624 33.4602 72.7953 33.1827 72.6609 32.9984C72.5265 32.814 72.3062 32.7211 72.0016 32.7211C71.7703 32.7211 71.5564 32.7825 71.3594 32.9055C71.1626 33.0285 71.0203 33.2081 70.9313 33.4461C70.8438 33.6824 70.8002 34.0245 70.8002 34.4706V37.0142H69.9752V37.0147ZM78.5168 34.5608C78.5168 33.6546 78.7668 32.9832 79.2684 32.5466C79.6855 32.1842 80.1964 32.0028 80.798 32.0028C81.4652 32.0028 82.012 32.2236 82.437 32.6647C82.8605 33.1044 83.0729 33.7144 83.0729 34.4913C83.0729 35.1218 82.9792 35.6167 82.7917 35.9775C82.6042 36.3385 82.3308 36.6189 81.9713 36.8191C81.6135 37.0194 81.2214 37.1186 80.798 37.1186C80.1168 37.1186 79.5668 36.8995 79.1465 36.4598C78.7263 36.0201 78.5169 35.3865 78.5169 34.5606L78.5168 34.5608ZM79.3605 34.5624C79.3605 35.1897 79.4964 35.6593 79.7683 35.9698C80.0417 36.2818 80.3839 36.4378 80.7979 36.4378C81.2072 36.4378 81.5479 36.2818 81.8213 35.9682C82.0932 35.6546 82.2291 35.177 82.2291 34.5356C82.2291 33.9304 82.0916 33.4717 81.8182 33.1613C81.5448 32.8493 81.2041 32.6933 80.7979 32.6933C80.3839 32.6933 80.0417 32.8477 79.7683 33.1583C79.4964 33.4688 79.3605 33.9368 79.3605 34.5624V34.5624ZM86.8723 36.2724L86.9848 37.0068C86.7536 37.0557 86.5458 37.0809 86.3645 37.0809C86.0662 37.0809 85.8349 37.0335 85.6693 36.9374C85.5052 36.8413 85.3895 36.7168 85.3224 36.5608C85.2553 36.4048 85.2224 36.077 85.2224 35.5773V32.75H84.6131V32.1069H85.2224V30.8934L86.0474 30.3939V32.1071H86.8723V32.7501H86.0474V35.6248C86.0474 35.8628 86.0614 36.0157 86.0911 36.0835C86.1192 36.1513 86.1661 36.2049 86.2318 36.2459C86.2974 36.2852 86.3912 36.3057 86.513 36.3057C86.6036 36.3057 86.724 36.2947 86.8723 36.2725V36.2724ZM88.7282 31.1896V30.244H89.5531V31.1896H88.7282ZM88.7282 37.0147V32.1069H89.5531V37.0147H88.7282ZM91.5434 34.5608C91.5434 33.6546 91.7934 32.9832 92.2949 32.5466C92.7121 32.1842 93.2229 32.0028 93.8246 32.0028C94.4918 32.0028 95.0386 32.2236 95.4635 32.6647C95.887 33.1044 96.0995 33.7144 96.0995 34.4913C96.0995 35.1218 96.0058 35.6167 95.8183 35.9775C95.6308 36.3385 95.3574 36.6189 94.9979 36.8191C94.6401 37.0194 94.2479 37.1186 93.8246 37.1186C93.1434 37.1186 92.5933 36.8995 92.1731 36.4598C91.7529 36.0201 91.5435 35.3865 91.5435 34.5606L91.5434 34.5608ZM92.3871 34.5624C92.3871 35.1897 92.523 35.6593 92.7949 35.9698C93.0683 36.2818 93.4104 36.4378 93.8245 36.4378C94.2337 36.4378 94.5744 36.2818 94.8478 35.9682C95.1198 35.6546 95.2556 35.177 95.2556 34.5356C95.2556 33.9304 95.1181 33.4717 94.8447 33.1613C94.5713 32.8493 94.2306 32.6933 93.8245 32.6933C93.4104 32.6933 93.0683 32.8477 92.7949 33.1583C92.523 33.4688 92.3871 33.9368 92.3871 34.5624V34.5624ZM98.1084 37.0147V32.1069H98.849V32.8035C99.2052 32.2693 99.7209 32.0028 100.394 32.0028C100.688 32.0028 100.957 32.0564 101.202 32.1621C101.447 32.2677 101.632 32.4079 101.754 32.5797C101.875 32.7514 101.961 32.9562 102.01 33.1928C102.04 33.3473 102.055 33.6167 102.055 34.0012V37.0145H101.23V34.0326C101.23 33.6938 101.199 33.44 101.135 33.273C101.071 33.1059 100.957 32.9719 100.794 32.871C100.632 32.7716 100.439 32.7212 100.221 32.7212C99.8708 32.7212 99.5693 32.8331 99.3145 33.0584C99.0599 33.2823 98.9333 33.7093 98.9333 34.3365V37.0142H98.1084V37.0147ZM107.542 36.3999C107.236 36.6631 106.94 36.8476 106.658 36.9563C106.375 37.0649 106.072 37.1186 105.747 37.1186C105.212 37.1186 104.801 36.9878 104.514 36.7246C104.227 36.463 104.083 36.1273 104.083 35.7192C104.083 35.4796 104.137 35.2604 104.245 35.062C104.355 34.8634 104.497 34.7057 104.672 34.586C104.848 34.4663 105.045 34.3749 105.265 34.3134C105.428 34.2708 105.673 34.2299 106 34.1889C106.665 34.1102 107.157 34.0139 107.471 33.9036C107.475 33.7901 107.476 33.7177 107.476 33.6877C107.476 33.3505 107.398 33.1125 107.242 32.9738C107.031 32.7862 106.717 32.6932 106.301 32.6932C105.912 32.6932 105.625 32.7625 105.44 32.8996C105.255 33.0368 105.119 33.2795 105.029 33.6294L104.223 33.5158C104.297 33.1675 104.417 32.8853 104.586 32.6711C104.754 32.4567 104.998 32.2929 105.317 32.1762C105.634 32.0612 106.004 32.0028 106.423 32.0028C106.839 32.0028 107.178 32.0516 107.439 32.151C107.698 32.2503 107.89 32.3732 108.012 32.523C108.134 32.6727 108.22 32.8619 108.27 33.0904C108.296 33.2323 108.31 33.4875 108.31 33.8548V34.958C108.31 35.7287 108.328 36.2156 108.362 36.4222C108.395 36.6286 108.464 36.8256 108.564 37.0148H107.701C107.618 36.8399 107.565 36.635 107.542 36.4001L107.542 36.3999ZM107.476 34.5559C107.176 34.6789 106.726 34.7829 106.126 34.8679C105.786 34.9167 105.545 34.9719 105.405 35.0334C105.264 35.0949 105.156 35.1847 105.08 35.3013C105.003 35.4195 104.964 35.5503 104.964 35.6953C104.964 35.9144 105.047 36.0987 105.214 36.2453C105.381 36.3918 105.625 36.4659 105.945 36.4659C106.262 36.4659 106.545 36.3965 106.794 36.2563C107.041 36.1176 107.223 35.9269 107.339 35.6858C107.428 35.4983 107.472 35.2226 107.472 34.8585L107.476 34.5559H107.476ZM110.601 37.0145V30.2439H111.426V37.0145H110.601ZM117.911 38.8963V32.1068H118.661V32.7514C118.838 32.5024 119.038 32.3148 119.261 32.1904C119.483 32.0659 119.754 32.0028 120.071 32.0028C120.486 32.0028 120.852 32.11 121.169 32.3259C121.486 32.5403 121.725 32.8443 121.888 33.2352C122.049 33.6276 122.13 34.0564 122.13 34.5244C122.13 35.0239 122.041 35.4747 121.863 35.8766C121.685 36.277 121.425 36.5843 121.085 36.7986C120.746 37.0114 120.388 37.1186 120.013 37.1186C119.738 37.1186 119.491 37.0604 119.274 36.9437C119.055 36.8271 118.877 36.6805 118.736 36.5024V38.8964H117.911V38.8963ZM118.661 34.5906C118.661 35.2195 118.788 35.6844 119.04 35.9853C119.293 36.2864 119.599 36.4377 119.958 36.4377C120.324 36.4377 120.636 36.2817 120.896 35.9697C121.157 35.6577 121.286 35.1754 121.286 34.5213C121.286 33.8971 121.16 33.4306 120.905 33.1202C120.65 32.8098 120.347 32.6553 119.994 32.6553C119.644 32.6553 119.335 32.8207 119.066 33.1501C118.796 33.4812 118.661 33.9602 118.661 34.5906ZM124.158 37.0145V32.1068H124.898V32.8585C125.087 32.5102 125.262 32.28 125.423 32.1697C125.584 32.0578 125.761 32.0027 125.953 32.0027C126.231 32.0027 126.514 32.091 126.801 32.2659L126.507 33.0334C126.307 32.9198 126.107 32.8632 125.907 32.8632C125.728 32.8632 125.567 32.9183 125.425 33.0272C125.282 33.1358 125.181 33.2873 125.12 33.481C125.028 33.7758 124.982 34.0988 124.982 34.4504V37.0145H124.157H124.158ZM128.021 34.5606C128.021 33.6544 128.271 32.9831 128.773 32.5465C129.19 32.184 129.701 32.0027 130.302 32.0027C130.97 32.0027 131.516 32.2234 131.941 32.6646C132.365 33.1043 132.577 33.7143 132.577 34.4912C132.577 35.1217 132.483 35.6165 132.296 35.9773C132.109 36.3383 131.835 36.6188 131.476 36.819C131.118 37.0192 130.726 37.1185 130.302 37.1185C129.621 37.1185 129.071 36.8994 128.651 36.4597C128.23 36.02 128.021 35.3864 128.021 34.5605L128.021 34.5606ZM128.865 34.5623C128.865 35.1895 129.001 35.6592 129.273 35.9697C129.546 36.2817 129.888 36.4377 130.302 36.4377C130.712 36.4377 131.052 36.2817 131.326 35.9681C131.597 35.6544 131.734 35.1768 131.734 34.5354C131.734 33.9303 131.596 33.4716 131.323 33.1612C131.049 32.8492 130.709 32.6932 130.302 32.6932C129.888 32.6932 129.546 32.8476 129.273 33.1581C129.001 33.4686 128.865 33.9366 128.865 34.5623V34.5623ZM137.727 37.0145V36.392C137.419 36.8758 136.966 37.1185 136.367 37.1185C135.98 37.1185 135.624 37.0113 135.3 36.7954C134.975 36.581 134.724 36.2801 134.544 35.8955C134.366 35.5093 134.277 35.0665 134.277 34.5654C134.277 34.0767 134.358 33.6339 134.519 33.2352C134.682 32.838 134.924 32.5323 135.247 32.3212C135.569 32.1084 135.932 32.0028 136.33 32.0028C136.624 32.0028 136.885 32.0659 137.113 32.1904C137.341 32.3148 137.527 32.4788 137.671 32.679V30.244H138.496V37.0147H137.727V37.0145ZM135.121 34.567C135.121 35.1942 135.252 35.6624 135.516 35.9728C135.779 36.2832 136.089 36.4377 136.447 36.4377C136.808 36.4377 137.114 36.2895 137.368 35.9933C137.619 35.697 137.746 35.2447 137.746 34.6363C137.746 33.968 137.618 33.4763 137.36 33.1627C137.104 32.849 136.786 32.693 136.41 32.693C136.043 32.693 135.737 32.8427 135.49 33.1438C135.244 33.4449 135.121 33.9192 135.121 34.567H135.121ZM144.02 37.0145V36.2848C143.642 36.8411 143.129 37.1185 142.481 37.1185C142.195 37.1185 141.928 37.0633 141.679 36.953C141.431 36.8411 141.247 36.7024 141.126 36.5354C141.006 36.3668 140.922 36.162 140.873 35.9193C140.841 35.7553 140.823 35.497 140.823 35.1438V32.1068H141.648V34.8222C141.648 35.2556 141.665 35.5487 141.698 35.6985C141.75 35.9176 141.859 36.0878 142.028 36.2122C142.195 36.3367 142.402 36.3998 142.648 36.3998C142.895 36.3998 143.126 36.3367 143.342 36.2091C143.558 36.0814 143.711 35.9066 143.801 35.6875C143.89 35.4684 143.936 35.1484 143.936 34.7308V32.1068H144.761V37.0145H144.02V37.0145ZM150.276 35.2178L151.082 35.3314C150.993 35.8909 150.768 36.3274 150.404 36.6443C150.04 36.961 149.591 37.1186 149.062 37.1186C148.398 37.1186 147.863 36.8995 147.46 36.4614C147.055 36.0234 146.854 35.3961 146.854 34.5797C146.854 34.0502 146.941 33.5884 147.115 33.1911C147.288 32.7955 147.552 32.4977 147.909 32.3007C148.263 32.1021 148.649 32.0028 149.068 32.0028C149.594 32.0028 150.027 32.1369 150.361 32.4063C150.697 32.6758 150.913 33.0587 151.007 33.5536L150.21 33.6765C150.133 33.3471 149.999 33.0997 149.804 32.9327C149.61 32.7672 149.376 32.6836 149.101 32.6836C148.685 32.6836 148.348 32.8333 148.087 33.1327C147.827 33.4338 147.698 33.9066 147.698 34.5559C147.698 35.2147 147.823 35.6922 148.073 35.9902C148.324 36.288 148.651 36.4378 149.052 36.4378C149.377 36.4378 149.647 36.3385 149.863 36.1384C150.08 35.9397 150.218 35.6325 150.275 35.218L150.276 35.2178ZM154.617 36.2722L154.73 37.0067C154.499 37.0555 154.291 37.0807 154.11 37.0807C153.811 37.0807 153.58 37.0334 153.414 36.9372C153.25 36.8411 153.135 36.7167 153.068 36.5607C153 36.4047 152.968 36.0769 152.968 35.5772V32.7498H152.358V32.1068H152.968V30.8933L153.793 30.3937V32.1069H154.617V32.75H153.793V35.6246C153.793 35.8626 153.807 36.0155 153.836 36.0834C153.864 36.1512 153.911 36.2047 153.977 36.2457C154.043 36.2851 154.136 36.3056 154.258 36.3056C154.349 36.3056 154.469 36.2945 154.617 36.2724V36.2722ZM156.145 35.5489L156.961 35.4164C157.006 35.7459 157.134 35.998 157.344 36.1745C157.553 36.3494 157.847 36.4377 158.222 36.4377C158.601 36.4377 158.883 36.3604 159.067 36.2044C159.25 36.0499 159.342 35.8672 159.342 35.6575C159.342 35.47 159.259 35.3218 159.095 35.2146C158.98 35.1406 158.698 35.0475 158.252 34.9325C157.649 34.7796 157.231 34.6472 156.997 34.5354C156.764 34.4219 156.588 34.2675 156.467 34.0689C156.347 33.8719 156.286 33.6528 156.286 33.4133C156.286 33.1942 156.336 32.9925 156.434 32.8066C156.534 32.6206 156.669 32.4661 156.839 32.3433C156.967 32.2488 157.142 32.1683 157.363 32.1022C157.585 32.036 157.82 32.0028 158.074 32.0028C158.455 32.0028 158.789 32.058 159.077 32.1699C159.366 32.2802 159.578 32.4315 159.716 32.6206C159.852 32.8113 159.947 33.0651 159.999 33.3834L159.192 33.4969C159.156 33.2416 159.05 33.0415 158.875 32.898C158.7 32.7545 158.453 32.6836 158.133 32.6836C157.756 32.6836 157.486 32.7467 157.325 32.8728C157.164 32.9989 157.083 33.147 157.083 33.3156C157.083 33.4228 157.116 33.5205 157.183 33.6071C157.25 33.6954 157.355 33.7694 157.498 33.8278C157.581 33.8594 157.822 33.9303 158.225 34.0406C158.806 34.1966 159.213 34.3259 159.444 34.4251C159.675 34.5244 159.856 34.6709 159.987 34.8601C160.12 35.0508 160.186 35.2873 160.186 35.571C160.186 35.8469 160.106 36.1068 159.945 36.3511C159.784 36.5955 159.553 36.7845 159.252 36.9185C158.948 37.0524 158.606 37.1186 158.225 37.1186C157.594 37.1186 157.111 36.9862 156.78 36.723C156.449 36.4582 156.238 36.0674 156.146 35.5489H156.145ZM169.548 35.2178L170.354 35.3314C170.265 35.8909 170.04 36.3274 169.676 36.6443C169.312 36.961 168.863 37.1186 168.334 37.1186C167.67 37.1186 167.135 36.8995 166.732 36.4614C166.327 36.0234 166.126 35.3961 166.126 34.5797C166.126 34.0502 166.213 33.5884 166.387 33.1911C166.56 32.7955 166.824 32.4977 167.18 32.3007C167.535 32.1021 167.921 32.0028 168.34 32.0028C168.866 32.0028 169.299 32.1369 169.633 32.4063C169.969 32.6758 170.185 33.0587 170.279 33.5536L169.482 33.6765C169.405 33.3471 169.271 33.0997 169.076 32.9327C168.882 32.7672 168.648 32.6836 168.373 32.6836C167.957 32.6836 167.62 32.8333 167.359 33.1327C167.099 33.4338 166.969 33.9066 166.969 34.5559C166.969 35.2147 167.094 35.6922 167.344 35.9902C167.596 36.288 167.923 36.4378 168.324 36.4378C168.649 36.4378 168.919 36.3385 169.135 36.1384C169.352 35.9397 169.49 35.6325 169.548 35.218L169.548 35.2178ZM171.79 34.5606C171.79 33.6544 172.04 32.9831 172.541 32.5465C172.958 32.184 173.469 32.0027 174.071 32.0027C174.738 32.0027 175.285 32.2234 175.71 32.6646C176.133 33.1043 176.346 33.7143 176.346 34.4912C176.346 35.1217 176.252 35.6165 176.064 35.9773C175.877 36.3383 175.604 36.6188 175.244 36.819C174.886 37.0192 174.494 37.1185 174.071 37.1185C173.389 37.1185 172.84 36.8994 172.419 36.4597C171.999 36.02 171.79 35.3864 171.79 34.5605V34.5606ZM172.633 34.5623C172.633 35.1895 172.769 35.6592 173.041 35.9697C173.315 36.2817 173.657 36.4377 174.071 36.4377C174.48 36.4377 174.821 36.2817 175.094 35.9681C175.366 35.6544 175.502 35.1768 175.502 34.5354C175.502 33.9303 175.364 33.4716 175.091 33.1612C174.818 32.8492 174.477 32.6932 174.071 32.6932C173.657 32.6932 173.315 32.8476 173.041 33.1581C172.769 33.4686 172.633 33.9366 172.633 34.5623V34.5623ZM178.355 37.0145V32.1068H179.095V32.8002C179.247 32.5606 179.45 32.3669 179.703 32.2218C179.956 32.0752 180.244 32.0027 180.567 32.0027C180.926 32.0027 181.222 32.0783 181.451 32.228C181.681 32.3793 181.843 32.5889 181.937 32.86C182.325 32.2879 182.826 32.0025 183.445 32.0025C183.929 32.0025 184.303 32.1366 184.562 32.406C184.823 32.6755 184.954 33.09 184.954 33.6494V37.0142H184.129V33.9251C184.129 33.5941 184.101 33.3547 184.048 33.2081C183.995 33.0615 183.898 32.9449 183.756 32.8551C183.615 32.7653 183.45 32.7211 183.26 32.7211C182.917 32.7211 182.632 32.8361 182.406 33.0646C182.179 33.2948 182.067 33.6619 182.067 34.1662V37.0141H181.242V33.8289C181.242 33.4601 181.175 33.1826 181.04 32.9983C180.906 32.8138 180.686 32.7209 180.381 32.7209C180.15 32.7209 179.936 32.7824 179.739 32.9054C179.542 33.0283 179.4 33.2079 179.311 33.4459C179.223 33.6823 179.18 34.0244 179.18 34.4704V37.0141H178.355V37.0145ZM187.205 38.8963V32.1068H187.955V32.7514C188.132 32.5024 188.332 32.3148 188.555 32.1904C188.777 32.0659 189.048 32.0028 189.365 32.0028C189.781 32.0028 190.146 32.11 190.463 32.3259C190.78 32.5403 191.02 32.8443 191.182 33.2352C191.343 33.6276 191.424 34.0564 191.424 34.5244C191.424 35.0239 191.335 35.4747 191.157 35.8766C190.979 36.277 190.72 36.5843 190.379 36.7986C190.04 37.0114 189.682 37.1186 189.307 37.1186C189.032 37.1186 188.785 37.0604 188.568 36.9437C188.349 36.8271 188.171 36.6805 188.031 36.5024V38.8964H187.206L187.205 38.8963ZM187.955 34.5906C187.955 35.2195 188.082 35.6844 188.334 35.9853C188.587 36.2864 188.893 36.4377 189.252 36.4377C189.618 36.4377 189.93 36.2817 190.19 35.9697C190.451 35.6577 190.58 35.1754 190.58 34.5213C190.58 33.8971 190.454 33.4306 190.199 33.1202C189.944 32.8098 189.641 32.6553 189.288 32.6553C188.938 32.6553 188.629 32.8207 188.36 33.1501C188.09 33.4812 187.955 33.9602 187.955 34.5906V34.5906ZM196.639 36.3998C196.333 36.663 196.038 36.8475 195.755 36.9561C195.472 37.0648 195.169 37.1185 194.844 37.1185C194.309 37.1185 193.898 36.9877 193.611 36.7245C193.324 36.4629 193.18 36.1272 193.18 35.719C193.18 35.4794 193.235 35.2603 193.342 35.0618C193.452 34.8632 193.594 34.7056 193.769 34.5859C193.945 34.4661 194.142 34.3747 194.363 34.3132C194.525 34.2706 194.77 34.2298 195.097 34.1888C195.762 34.11 196.255 34.0138 196.569 33.9035C196.572 33.7899 196.573 33.7175 196.573 33.6876C196.573 33.3504 196.495 33.1124 196.339 32.9736C196.128 32.7861 195.814 32.693 195.399 32.693C195.009 32.693 194.722 32.7623 194.538 32.8995C194.352 33.0366 194.216 33.2793 194.127 33.6292L193.321 33.5157C193.394 33.1674 193.514 32.8852 193.683 32.6709C193.852 32.4565 194.096 32.2927 194.414 32.1761C194.731 32.0611 195.102 32.0027 195.521 32.0027C195.936 32.0027 196.275 32.0515 196.536 32.1509C196.795 32.2501 196.988 32.3731 197.109 32.5229C197.231 32.6725 197.317 32.8617 197.367 33.0903C197.394 33.2321 197.408 33.4874 197.408 33.8547V34.9579C197.408 35.7286 197.425 36.2155 197.459 36.4221C197.492 36.6285 197.561 36.8255 197.661 37.0147H196.798C196.716 36.8398 196.663 36.6348 196.639 36.3999V36.3998ZM196.573 34.5558C196.273 34.6788 195.823 34.7827 195.224 34.8678C194.883 34.9166 194.642 34.9717 194.502 35.0332C194.361 35.0947 194.253 35.1845 194.177 35.3011C194.1 35.4194 194.061 35.5502 194.061 35.6951C194.061 35.9142 194.144 36.0986 194.311 36.2451C194.478 36.3917 194.722 36.4657 195.042 36.4657C195.359 36.4657 195.642 36.3964 195.891 36.2562C196.138 36.1174 196.32 35.9268 196.436 35.6857C196.525 35.4981 196.569 35.2224 196.569 34.8584L196.573 34.5558V34.5558ZM199.717 37.0144V32.1066H200.457V32.8032C200.814 32.269 201.329 32.0025 202.003 32.0025C202.296 32.0025 202.565 32.0561 202.81 32.1618C203.056 32.2674 203.24 32.4076 203.362 32.5794C203.484 32.7511 203.57 32.9559 203.618 33.1925C203.648 33.347 203.664 33.6164 203.664 34.0009V37.0142H202.839V34.0323C202.839 33.6935 202.807 33.4397 202.743 33.2727C202.679 33.1056 202.565 32.9716 202.403 32.8707C202.24 32.7713 202.048 32.7209 201.829 32.7209C201.479 32.7209 201.178 32.8328 200.923 33.0581C200.668 33.282 200.542 33.709 200.542 34.3362V37.0139H199.717V37.0144ZM205.935 38.9008L205.841 38.1317C206.022 38.1805 206.179 38.2058 206.313 38.2058C206.497 38.2058 206.644 38.1742 206.754 38.1127C206.865 38.0512 206.955 37.9645 207.026 37.8542C207.077 37.7706 207.161 37.5642 207.277 37.2333C207.293 37.1876 207.316 37.1198 207.351 37.03L205.504 32.1065H206.385L207.401 34.9402C207.533 35.2979 207.651 35.6761 207.755 36.0733C207.851 35.6998 207.963 35.3311 208.094 34.9685L209.132 32.1065H209.955L208.116 37.0993C207.918 37.6368 207.763 38.0055 207.652 38.2089C207.505 38.4815 207.337 38.6817 207.148 38.8093C206.957 38.937 206.73 38.9999 206.468 38.9999C206.308 38.9999 206.13 38.9668 205.935 38.9005L205.935 38.9008Z" fill="#0047BA"/>
</svg>
