<!-- Generated by IcoMoon.io -->
<svg version="1.1" xmlns="http://www.w3.org/2000/svg" width="1024" height="1024" viewBox="0 0 1024 1024">
<title></title>
<g id="icomoon-ignore">
</g>
<path d="M501.865 33.59c21.057 0 38.127 17.070 38.127 38.127v29.678h81.308c42.112 0 76.255 34.14 76.255 76.255v61.184h85.021c17.058 0 33.624 5.719 47.049 16.245l76.37 59.878c18.439 14.455 29.209 36.582 29.209 60.010v161.803h12.54c42.112 0 76.255 34.139 76.255 76.255v112.438c0 42.112-34.144 76.255-76.255 76.255h-12.54v112.434c0 42.116-34.144 76.255-76.255 76.255h-693.899c-42.114 0-76.255-34.139-76.255-76.255v-112.434h-12.54c-42.115 0-76.255-34.144-76.255-76.255v-112.438c0-42.116 34.14-76.255 76.255-76.255h12.54v-161.803c0-23.428 10.77-45.555 29.206-60.010l76.372-59.878c13.425-10.526 29.991-16.245 47.049-16.245h64.754v-61.184c0-42.115 34.14-76.255 76.253-76.255h81.308v-29.678c0-21.057 17.070-38.127 38.127-38.127zM382.431 238.836h238.869v-61.184h-238.869v61.184zM532.387 315.091h-61.038v39.495h61.038v-39.495zM395.094 315.091h-153.669l-76.373 59.878v161.803h693.899v-161.803l-76.373-59.878h-173.934v39.495c0 39.547-30.106 72.062-68.649 75.879v41.697c0 21.057-17.070 38.127-38.127 38.127s-38.127-17.070-38.127-38.127v-41.697c-38.543-3.817-68.645-36.332-68.645-75.879v-39.495zM165.050 801.721v112.434h693.899v-112.434h-693.899zM76.255 613.027v112.438h871.489v-112.438h-871.489z"></path>
</svg>
