<!-- Generated by IcoMoon.io -->
<svg version="1.1" xmlns="http://www.w3.org/2000/svg" width="1024" height="1024" viewBox="0 0 1024 1024">
<title></title>
<g id="icomoon-ignore">
</g>
<path d="M915.658 201.343c-72.23-90.286-168.535-156.497-276.879-180.573-114.363-30.095-228.727-18.058-331.051 24.077-108.344 48.153-192.611 126.401-246.783 228.727-54.172 96.306-72.23 216.688-54.172 325.032 18.058 114.365 78.249 216.69 162.516 288.92 84.267 78.249 192.611 120.383 306.975 132.421 12.038 0 24.077 0 36.114 0 102.326 0 198.632-30.095 282.899-84.267 30.095-18.058 36.114-54.172 18.058-84.267s-54.172-36.114-84.267-18.058c-72.23 54.172-162.516 78.249-246.784 72.23s-168.535-42.134-234.746-102.325c-66.211-60.191-108.344-138.439-120.383-222.709-12.038-84.267 0-174.555 42.134-252.802s108.344-138.439 186.593-174.555c78.249-30.095 168.535-42.134 252.804-18.058s162.516 72.23 210.669 138.439c54.172 66.211 84.267 156.497 84.267 240.765 0 60.191-12.038 126.404-72.23 126.404s-72.23-72.232-72.23-126.404v-186.593c0-36.114-24.077-60.191-60.191-60.191-24.077 0-48.153 18.058-54.172 36.114-36.114-24.077-84.267-36.114-132.421-36.114-138.439 0-246.783 114.363-246.783 246.783 0 132.423 114.363 246.786 246.783 246.786 66.211 0 132.421-30.095 174.555-72.23 36.114 48.153 84.267 72.23 144.458 72.23 120.383 0 192.611-96.306 192.611-246.786 0-114.363-36.114-222.707-108.344-312.994zM512.377 640.741c-72.23 0-126.402-60.193-126.402-126.404s60.191-126.402 126.402-126.402c66.211 0 126.402 60.191 126.402 126.402s-54.172 126.404-126.402 126.404z"></path>
</svg>
