<!-- Generated by IcoMoon.io -->
<svg version="1.1" xmlns="http://www.w3.org/2000/svg" width="1024" height="1024" viewBox="0 0 1024 1024">
<title></title>
<g id="icomoon-ignore">
</g>
<path d="M148.815 995.654c0-15.655 12.691-28.346 28.346-28.346h669.676c15.655 0 28.346 12.69 28.346 28.346s-12.69 28.346-28.346 28.346h-669.676c-15.654 0-28.346-12.69-28.346-28.346z"></path>
<path d="M511.999 279.916c-66.534 0-120.47 53.936-120.47 120.47s53.936 120.47 120.47 120.47c66.534 0 120.47-53.936 120.47-120.47s-53.936-120.47-120.47-120.47zM334.836 400.388c0-97.845 79.318-177.163 177.163-177.163s177.163 79.318 177.163 177.163c0 97.845-79.318 177.163-177.163 177.163s-177.163-79.318-177.163-177.163z"></path>
<path d="M511.999 56.692c-91.153 0-178.574 36.211-243.030 100.666s-100.666 151.877-100.666 243.030c0 157.212 87.677 299.501 179.065 404.597 45.348 52.151 90.767 94.172 124.858 123.146 16.328 13.881 30.010 24.726 39.772 32.218 9.763-7.492 23.445-18.337 39.772-32.218 34.092-28.976 79.51-70.995 124.859-123.146 91.387-105.096 179.065-247.385 179.065-404.597 0-91.153-36.212-178.574-100.665-243.030-64.456-64.455-151.878-100.666-243.031-100.666zM511.999 995.654c-16.256 23.221-16.265 23.216-16.273 23.21l-0.025-0.020-0.079-0.054-0.258-0.181-0.91-0.649c-0.779-0.555-1.902-1.363-3.345-2.418-2.885-2.103-7.047-5.19-12.308-9.209-10.519-8.039-25.438-19.828-43.29-35.004-35.668-30.316-83.259-74.332-130.922-129.142-94.633-108.829-192.977-264.174-192.977-441.799 0-106.19 42.183-208.030 117.27-283.117s176.927-117.27 283.117-117.27c106.19 0 208.029 42.183 283.118 117.27 75.086 75.087 117.27 176.927 117.27 283.117 0 177.625-98.344 332.97-192.977 441.799-47.664 54.809-95.254 98.825-130.922 129.142-17.852 15.177-32.771 26.966-43.29 35.004-5.261 4.019-9.422 7.107-12.308 9.209-1.443 1.054-2.566 1.862-3.345 2.418l-0.91 0.649-0.258 0.181-0.079 0.054-0.025 0.020c-0.008 0.005-0.017 0.012-16.273-23.21zM511.999 995.654l16.256 23.221c-9.763 6.834-22.751 6.834-32.513 0l16.256-23.221z"></path>
</svg>
