<!-- Generated by IcoMoon.io -->
<svg version="1.1" xmlns="http://www.w3.org/2000/svg" width="1024" height="1024" viewBox="0 0 1024 1024">
<title></title>
<g id="icomoon-ignore">
</g>
<path d="M111.305 1024c-49.177 0-89.043-39.865-89.043-89.043v-267.13c0-49.179 39.866-89.043 89.043-89.043h244.87v89.043h-244.87v267.13h642.271v89.043h-642.271z"></path>
<path d="M153.617 431.684c-31.151-38.053-25.555-94.154 12.497-125.305l206.703-169.212c38.053-31.151 94.154-25.555 125.306 12.498l137.367 167.807-68.897 56.404-137.373-167.807-206.703 169.211 472.766 577.516-68.902 56.405-472.765-577.517z"></path>
<path d="M556.523 89.043c0-49.177 39.865-89.043 89.043-89.043h267.13c49.179 0 89.043 39.866 89.043 89.043v845.913c0 49.179-39.865 89.043-89.043 89.043h-267.13c-49.179 0-89.043-39.865-89.043-89.043v-845.913zM912.697 89.043h-267.13v845.913h267.13v-845.913z"></path>
</svg>
