<!-- Generated by IcoMoon.io -->
<svg version="1.1" xmlns="http://www.w3.org/2000/svg" width="1024" height="1024" viewBox="0 0 1024 1024">
<title></title>
<g id="icomoon-ignore">
</g>
<path d="M0.001 166.401c0-28.277 22.923-51.2 51.2-51.2h921.598c28.278 0 51.2 22.923 51.2 51.2v652.799c0 23.762-9.441 46.551-26.245 63.355s-39.593 26.245-63.355 26.245h-844.798c-23.763 0-46.553-9.441-63.357-26.245s-26.243-39.593-26.243-63.355v-652.799zM102.401 217.601v588.799h819.199v-588.799h-819.199z"></path>
<path d="M12.404 171.392c18.451-21.427 50.78-23.84 72.207-5.388l427.389 368.030 427.391-368.030c21.427-18.451 53.755-16.039 72.207 5.388s16.036 53.756-5.391 72.207l-460.799 396.8c-19.2 16.538-47.613 16.538-66.817 0l-460.799-396.8c-21.427-18.451-23.84-50.78-5.389-72.207z"></path>
</svg>
