<!-- Generated by IcoMoon.io -->
<svg version="1.1" xmlns="http://www.w3.org/2000/svg" width="1024" height="1024" viewBox="0 0 1024 1024">
<title></title>
<g id="icomoon-ignore">
</g>
<path d="M820.5 305.827c3.054-1.018 7.128 1.018 11.2 6.617 0 0 0 0 184.283 179.192 10.689 10.689 10.689 26.98 0 35.127 0 0 0 0-184.283 182.245-4.072 5.090-8.147 6.617-11.2 5.090s-5.090-6.617-5.090-13.235v-383.33c0-6.617 2.038-10.689 5.090-11.708z"></path>
<path d="M505.388 7.003h13.237l12.216 5.090c0 0 0 0 189.885 187.847 8.144 10.69 5.090 18.327-8.144 18.327 0 0 0 0-78.907 0-13.237 0-24.435 11.2-24.435 24.435 0 0 0 0 0 139.484 0 13.237-10.692 23.927-26.98 23.927 0 0 0 0-137.959 0-13.746 0-24.435-10.689-24.435-23.927 0 0 0 0 0-139.484 0-13.235-10.692-24.435-24.438-24.435h-83.994c-13.746 0-16.291-7.636-8.147-18.327 0 0 0 0 189.885-187.847l12.216-5.090z"></path>
<path d="M208.591 301.758c3.055 2.034 5.090 6.617 5.090 13.235v390.966c0 7.126-2.037 11.2-5.090 12.216-3.563 1.53-8.145 0-13.745-4.072 0 0 0 0-186.829-187.336-10.69-8.147-10.69-24.435 0-35.127 0 0 0 0 186.829-184.791 5.6-5.090 10.182-6.617 13.745-5.090z"></path>
<path d="M444.293 609.74c0 0 0 0 137.959 0 16.288 0 27.489 10.692 27.489 24.435 0 0 0 0 0 147.121 0 16.291 10.692 26.98 23.927 26.98h73.305c13.746 0 18.836 7.636 8.147 15.783 0 0 0 0-184.286 184.791-5.599 5.602-12.216 8.147-18.833 8.147s-13.746-2.545-18.836-8.147c0 0 0 0-184.283-184.791-11.2-8.147-5.602-15.783 7.636-15.783 0 0 0 0 78.907 0 13.743 0 24.435-10.689 24.435-26.98 0 0 0 0 0-147.121 0-13.743 10.689-24.435 24.435-24.435z"></path>
</svg>
