<!-- Generated by IcoMoon.io -->
<svg version="1.1" xmlns="http://www.w3.org/2000/svg" width="1024" height="1024" viewBox="0 0 1024 1024">
<title></title>
<g id="icomoon-ignore">
</g>
<path d="M480.667 8.208c9.565-5.381 20.358-8.208 31.333-8.208s21.768 2.827 31.333 8.208l399.020 224.449c9.886 5.56 18.111 13.649 23.837 23.438 5.724 9.787 8.741 20.926 8.741 32.266v447.276c0 11.342-3.018 22.477-8.741 32.267-5.726 9.79-13.952 17.879-23.837 23.436l-399.020 224.449c-9.565 5.381-20.358 8.208-31.333 8.208s-21.768-2.828-31.333-8.208l-399.020-224.449c-9.884-5.558-18.11-13.648-23.836-23.436s-8.742-20.928-8.742-32.267v-447.276c0-11.34 3.017-22.477 8.742-32.266s13.952-17.879 23.836-23.438l399.020-224.449zM512 55.275c-1.484 0-2.94 0.382-4.234 1.109l-399.020 224.448c-1.335 0.752-2.447 1.846-3.22 3.167-0.774 1.324-1.182 2.83-1.182 4.361v447.276c0 1.534 0.407 3.038 1.182 4.361s1.885 2.415 3.22 3.167l399.020 224.449c1.293 0.727 2.75 1.109 4.234 1.109s2.94-0.382 4.234-1.109l399.020-224.449c1.335-0.752 2.449-1.843 3.222-3.167 0.771-1.324 1.18-2.828 1.18-4.361v-447.276c0-1.531-0.409-3.038-1.18-4.361-0.774-1.321-1.888-2.415-3.222-3.167l-399.020-224.448c-1.293-0.727-2.75-1.109-4.234-1.109z"></path>
<path d="M270.157 131.371c7.371-13.366 24.183-18.225 37.549-10.853l439.928 242.637c8.816 4.861 14.291 14.134 14.291 24.199v235.786c0 15.264-12.376 27.637-27.637 27.637-15.264 0-27.637-12.373-27.637-27.637v-219.466l-425.64-234.754c-13.366-7.372-18.225-24.183-10.853-37.549z"></path>
<path d="M57.586 256.497c7.428-13.335 24.259-18.124 37.594-10.696l420.991 234.49 412.471-234.331c13.272-7.54 30.144-2.893 37.684 10.378s2.891 30.143-10.38 37.682l-425.989 242.010c-8.394 4.767-18.666 4.812-27.102 0.116l-434.572-242.056c-13.335-7.427-18.124-24.258-10.696-37.593z"></path>
<path d="M516.555 484.363c15.261 0.135 27.528 12.616 27.392 27.881l-4.256 484.362c-0.132 15.261-12.616 27.528-27.878 27.392-15.264-0.132-27.53-12.616-27.394-27.878l4.256-484.362c0.135-15.264 12.616-27.528 27.881-27.394z"></path>
</svg>
