<!-- Generated by IcoMoon.io -->
<svg version="1.1" xmlns="http://www.w3.org/2000/svg" width="1024" height="1024" viewBox="0 0 1024 1024">
<title></title>
<g id="icomoon-ignore">
</g>
<path fill="#000" d="M934.488 423.543c-21.445 0-42.89-16.084-53.613-37.529-16.084-58.974-48.251-112.586-91.141-155.476s-96.503-75.058-155.476-91.141c-26.806-5.361-42.89-37.529-37.529-64.335s37.529-42.89 64.335-37.529c75.058 21.445 150.115 58.974 203.728 117.948 58.974 58.974 96.503 128.67 117.948 203.728 5.361 26.806-10.723 58.974-37.529 64.335 0 0-5.361 0-10.723 0z"></path>
<path fill="#000" d="M779.006 466.428c-21.445 0-42.89-16.084-53.613-37.529-10.723-32.168-26.806-58.974-48.251-85.78-21.445-21.445-53.613-37.529-85.78-48.251-26.806-5.361-42.89-37.529-37.529-64.335s37.529-42.89 64.335-37.529c48.251 16.084 96.503 37.529 134.031 75.058s64.335 80.419 75.058 134.031c5.361 26.806-10.723 58.974-37.529 64.335 0 0-5.361 0-10.723 0z"></path>
<path fill="#000" d="M736.121 1024c-198.366 0-380.649-75.058-520.042-214.45s-214.45-327.037-214.45-520.042c0-69.696 26.806-139.393 75.058-193.005s112.586-91.141 182.283-96.503c21.445 0 42.89 0 58.974 10.723s32.168 26.806 37.529 42.89l101.864 235.895c0 10.723 5.361 26.806 0 42.89 0 16.084-5.361 32.168-16.084 42.89l-75.058 123.309c37.529 69.696 91.141 123.309 160.838 160.838l117.948-80.419c10.723-10.723 26.806-16.084 42.89-16.084s32.168 0 42.89 5.361l235.895 101.864c16.084 5.361 32.168 21.445 42.89 37.529s16.084 37.529 10.723 58.974c-10.723 69.696-42.89 139.393-96.503 182.283-48.251 48.251-117.948 75.058-187.644 75.058zM258.97 101.864c-42.89 5.361-80.419 26.806-107.225 58.974-32.168 37.529-48.251 80.419-48.251 128.67 0 166.199 64.335 327.037 182.283 444.984s278.785 182.283 444.984 182.283c48.251 0 91.141-16.084 123.309-48.251 32.168-26.806 53.613-64.335 58.974-107.225l-219.811-96.503-117.948 80.419c-10.723 10.723-26.806 16.084-42.89 16.084s-32.168 0-48.251-10.723c-96.503-48.251-176.921-123.309-219.811-219.811-5.361-10.723-10.723-26.806-5.361-42.89 0-16.084 5.361-32.168 16.084-42.89l80.419-123.309-96.503-219.811z"></path>
</svg>
