<!-- Generated by IcoMoon.io -->
<svg version="1.1" xmlns="http://www.w3.org/2000/svg" width="1024" height="1024" viewBox="0 0 1024 1024">
<title></title>
<g id="icomoon-ignore">
</g>
<path d="M170.666 85.334c0-20.946 16.979-37.925 37.925-37.925h606.815c20.946 0 37.925 16.98 37.925 37.925v189.629c0 20.946-16.979 37.925-37.925 37.925s-37.925-16.98-37.925-37.925v-151.704h-530.963v151.704c0 20.946-16.98 37.925-37.925 37.925s-37.925-16.98-37.925-37.925v-189.629z"></path>
<path d="M170.666 616.296c0-20.946 16.979-37.925 37.925-37.925h606.815c20.946 0 37.925 16.979 37.925 37.925v322.37c0 20.946-16.979 37.925-37.925 37.925h-606.815c-20.946 0-37.925-16.979-37.925-37.925v-322.37zM246.518 654.221v246.518h530.963v-246.518h-530.963z"></path>
<path d="M120.098 312.888c-27.352 0-44.246 19.781-44.246 37.925v341.333h132.741c20.946 0 37.925 16.979 37.925 37.925s-16.98 37.925-37.925 37.925h-170.666c-20.946 0-37.926-16.979-37.926-37.925v-379.258c0-65.639 56.685-113.777 120.098-113.777h783.802c63.412 0 120.1 48.139 120.1 113.777v379.258c0 20.946-16.979 37.925-37.925 37.925h-170.666c-20.946 0-37.925-16.979-37.925-37.925s16.979-37.925 37.925-37.925h132.741v-341.333c0-18.145-16.896-37.925-44.248-37.925h-783.802z"></path>
<path d="M796.471 502.517c31.418 0 56.889-25.471 56.889-56.889s-25.471-56.889-56.889-56.889-56.889 25.47-56.889 56.889c0 31.418 25.471 56.889 56.889 56.889z"></path>
</svg>
