<!-- Generated by IcoMoon.io -->
<svg version="1.1" xmlns="http://www.w3.org/2000/svg" width="1024" height="1024" viewBox="0 0 1024 1024">
<title></title>
<g id="icomoon-ignore">
</g>
<path d="M982.282 136.533c-11.378-15.17-30.341-22.756-53.096-22.756h-113.778v-37.926c0-18.963-7.585-37.926-15.17-49.304-15.17-18.963-30.341-26.548-53.096-26.548h-470.281c-18.963 0-37.926 7.585-49.304 26.548-11.378 11.378-18.963 30.341-18.963 49.304v37.926h-113.778c-18.963 0-37.926 7.585-53.096 22.756s-22.756 34.133-22.756 53.096v75.852c0 49.304 18.963 98.607 56.889 132.741 34.133 37.926 83.437 56.889 132.741 56.889h15.17c26.548 106.193 91.022 193.422 174.459 238.933v140.326h-94.815c-53.096 0-94.815 41.719-94.815 94.815s41.719 94.815 94.815 94.815h417.185c53.096 0 94.815-41.719 94.815-94.815s-41.719-94.815-94.815-94.815h-94.815v-140.326h3.793c37.926-18.963 72.059-49.304 98.607-83.437s49.304-75.852 64.474-121.363c3.793-11.378 7.585-18.963 7.585-30.341h15.17c49.304 0 98.607-18.963 132.741-56.889 37.926-37.926 56.889-87.23 56.889-136.533v-75.852c0-18.963-7.585-37.926-22.756-53.096zM208.594 379.259c-30.341 0-60.681-11.378-79.644-34.133-22.756-18.963-34.133-49.304-34.133-79.644v-75.852h113.778v147.911c0 15.17 0 26.548 0 41.719zM720.594 910.222c11.378 0 18.963 7.585 18.963 18.963s-7.585 18.963-18.963 18.963h-417.185c-11.378 0-18.963-7.585-18.963-18.963s7.585-18.963 18.963-18.963h417.185zM549.927 834.37h-75.852v-117.57c11.378 0 22.756 3.793 34.133 3.793 0 0 0 0 3.793 0 11.378 0 26.548 0 37.926-3.793v117.57zM720.594 462.696c-11.378 37.926-30.341 72.059-53.096 98.607s-45.511 49.304-75.852 64.474c-22.756 11.378-53.096 18.963-79.644 18.963-102.4 0-189.63-94.815-216.178-223.763v-3.793c0-7.585 0-11.378-3.793-15.17-3.793-22.756-7.585-41.719-7.585-64.474v-261.689h455.111v265.481c0 18.963 0 41.719-3.793 60.681-3.793 3.793-3.793 11.378-3.793 15.17 0 0 0 0 0 3.793-3.793 11.378-7.585 26.548-11.378 41.719zM929.186 265.481c0 30.341-11.378 60.681-34.133 79.644-18.963 22.756-49.304 34.133-79.644 34.133 0-11.378 0-26.548 0-37.926v-151.704h113.778v75.852z"></path>
</svg>
