<!-- Generated by IcoMoon.io -->
<svg version="1.1" xmlns="http://www.w3.org/2000/svg" width="1024" height="1024" viewBox="0 0 1024 1024">
<title></title>
<g id="icomoon-ignore">
</g>
<path d="M252.796 674.175c5.503 16.506-3.419 34.348-19.926 39.852-74.322 24.774-113.165 86.948-133.584 148.205-10.059 30.177-15.175 58.904-17.753 80.24 21.336-2.578 50.063-7.694 80.241-17.753 61.259-20.419 123.431-59.263 148.204-133.583 5.505-16.51 23.346-25.429 39.856-19.927 16.506 5.505 25.429 23.346 19.924 39.852-33.705 101.123-117.734 149.998-188.057 173.439-35.444 11.815-68.701 17.662-93.016 20.583-12.204 1.461-22.275 2.202-29.397 2.578-3.564 0.189-6.397 0.283-8.399 0.334-1.001 0.025-1.795 0.038-2.369 0.044l-0.696 0.006-0.222 0.003h-0.11c-0.014 0-0.026 0-0.026-31.507-31.507 0-31.507-0.013-31.507-0.025v-0.11l0.001-0.221 0.006-0.697c0.007-0.573 0.020-1.37 0.045-2.369 0.050-2.003 0.146-4.836 0.334-8.399 0.375-7.121 1.115-17.193 2.58-29.399 2.918-24.314 8.766-57.571 20.581-93.015 23.441-70.322 72.317-154.349 173.438-188.057 16.508-5.501 34.35 3.419 39.852 19.927zM47.466 976.54h-31.507c0 17.401 14.106 31.507 31.507 31.507v-31.507z"></path>
<path d="M950.012 65.856l0.003 0.001c2.048 0.305 3.942 1.26 5.406 2.723 1.461 1.464 2.417 3.358 2.722 5.404v0.004c7.401 49.597 9.78 171.454-114.233 295.466l-328.603 328.603-189.365-189.365 328.603-328.605c124.012-124.010 245.868-121.631 295.465-114.231zM959.307 3.533c-63.731-9.508-207.6-9.718-349.315 131.997l-350.882 350.883c-5.908 5.907-9.228 13.923-9.228 22.278s3.319 16.367 9.228 22.278l233.922 233.92c12.303 12.303 32.252 12.303 44.556 0l350.881-350.881c141.718-141.717 141.507-285.584 131.999-349.316zM1020.466 64.69c-2.297-15.401-9.48-29.656-20.489-40.666-11.011-11.010-25.268-18.193-40.668-20.49z"></path>
<path d="M807.712 418.707c17.401 0 31.507 14.106 31.507 31.507v333.754c0 9.569-1.884 19.042-5.545 27.88-3.665 8.841-9.030 16.872-15.794 23.639l-167.175 167.172c-9.326 9.326-21.005 15.946-33.796 19.153s-26.213 2.883-38.835-0.939c-12.621-3.821-23.97-10.996-32.833-20.76s-14.912-21.752-17.498-34.683l-43.328-216.637c-3.412-17.064 7.653-33.662 24.716-37.073s33.662 7.653 37.073 24.716l43.328 216.634c0.349 1.749 1.165 3.368 2.363 4.689 1.2 1.32 2.731 2.288 4.44 2.804 1.704 0.517 3.519 0.561 5.246 0.129 1.729-0.435 3.308-1.33 4.568-2.59l167.175-167.175c0.913-0.913 1.638-1.997 2.133-3.192 0.495-1.197 0.75-2.476 0.75-3.768v-333.754c0-17.401 14.106-31.507 31.507-31.507z"></path>
<path d="M212.153 190.333c8.84-3.661 18.314-5.546 27.882-5.546h333.752c17.401 0 31.507 14.106 31.507 31.507s-14.106 31.507-31.507 31.507h-333.752c-1.293 0-2.573 0.254-3.768 0.749s-2.281 1.22-3.195 2.134l-167.174 167.173c-1.261 1.261-2.155 2.839-2.588 4.568s-0.389 3.541 0.127 5.249c0.517 1.704 1.485 3.239 2.806 4.437s2.94 2.014 4.687 2.363l216.636 43.328c17.062 3.412 28.13 20.013 24.714 37.073-3.412 17.064-20.010 28.129-37.072 24.716l-216.636-43.328c-12.931-2.587-24.918-8.632-34.683-17.498-9.764-8.863-16.94-20.211-20.761-32.833s-4.146-26.043-0.938-38.835c3.207-12.792 9.827-24.47 19.151-33.796l167.174-167.174c6.765-6.765 14.797-12.132 23.637-15.793z"></path>
</svg>
