<!-- Generated by IcoMoon.io -->
<svg version="1.1" xmlns="http://www.w3.org/2000/svg" width="1024" height="1024" viewBox="0 0 1024 1024">
<title></title>
<g id="icomoon-ignore">
</g>
<path d="M416.421 111.039c-168.645 0-305.359 136.714-305.359 305.359 0 168.647 136.714 305.359 305.359 305.359 168.647 0 305.359-136.712 305.359-305.359 0-168.645-136.712-305.359-305.359-305.359zM0.022 416.399c0-229.971 186.428-416.399 416.399-416.399 229.968 0 416.399 186.428 416.399 416.399 0 229.968-186.43 416.399-416.399 416.399-229.971 0-416.399-186.43-416.399-416.399z"></path>
<path d="M651.602 651.619c21.681-21.681 56.836-21.681 78.516 0l277.599 277.599c21.681 21.686 21.681 56.836 0 78.521-21.681 21.681-56.836 21.681-78.516 0l-277.599-277.599c-21.681-21.686-21.681-56.836 0-78.521z"></path>
</svg>
