<!-- Generated by IcoMoon.io -->
<svg version="1.1" xmlns="http://www.w3.org/2000/svg" width="1024" height="1024" viewBox="0 0 1024 1024">
<title></title>
<g id="icomoon-ignore">
</g>
<path d="M78.769 19.692c-43.503 0-78.769 35.266-78.769 78.769v78.769c0 43.503 35.266 78.769 78.769 78.769h157.538v118.154h-118.154c-43.503 0-78.769 35.266-78.769 78.769v472.616c0 43.504 35.266 78.769 78.769 78.769h787.694c43.504 0 78.769-35.265 78.769-78.769v-472.616c0-43.503-35.265-78.769-78.769-78.769h-118.154v-118.154h157.538c43.504 0 78.769-35.266 78.769-78.769v-78.769c0-43.503-35.265-78.769-78.769-78.769h-866.464zM708.924 374.155h-393.847v-118.154h393.847v118.154zM78.769 98.462h866.464v78.769h-866.464v-78.769zM118.154 452.924h787.694v472.616h-787.694v-472.616zM275.693 610.463c0 21.752 17.633 39.385 39.385 39.385h393.847c21.752 0 39.385-17.632 39.385-39.385s-17.632-39.385-39.385-39.385h-393.847c-21.751 0-39.385 17.632-39.385 39.385zM315.078 728.616h393.847c21.752 0 39.385 17.632 39.385 39.385s-17.632 39.385-39.385 39.385h-393.847c-21.751 0-39.385-17.632-39.385-39.385s17.633-39.385 39.385-39.385z"></path>
</svg>
