<svg width="20" height="19" viewBox="0 0 20 19" fill="none" xmlns="http://www.w3.org/2000/svg">
<path d="M9.05566 0.717325C9.36696 -0.178235 10.6335 -0.178236 10.9448 0.717324L12.5931 5.45937C12.7305 5.85444 13.0991 6.12231 13.5173 6.13083L18.5366 6.23312C19.4846 6.25244 19.8759 7.45698 19.1204 8.02978L15.1198 11.0628C14.7865 11.3155 14.6457 11.7489 14.7668 12.1493L16.2206 16.9545C16.4951 17.862 15.4705 18.6065 14.6922 18.0649L10.5714 15.1974C10.2281 14.9585 9.77236 14.9585 9.42905 15.1974L5.30821 18.0649C4.52997 18.6065 3.50532 17.862 3.77988 16.9545L5.23365 12.1493C5.35477 11.7489 5.21394 11.3155 4.88064 11.0628L0.880053 8.02978C0.124521 7.45698 0.5159 6.25244 1.46382 6.23312L6.48314 6.13083C6.90131 6.12231 7.27 5.85444 7.40733 5.45937L9.05566 0.717325Z" fill="#D8D8D8"/>
</svg>
