<!-- Generated by IcoMoon.io -->
<svg version="1.1" xmlns="http://www.w3.org/2000/svg" width="1024" height="1024" viewBox="0 0 1024 1024">
<title></title>
<g id="icomoon-ignore">
</g>
<path d="M1024 179.836c-38.344 17.767-79.017 29.429-120.663 34.599 43.377-27.194 76.687-70.257 92.37-121.565-41.236 25.595-86.354 43.629-133.402 53.321-38.323-42.703-92.923-69.391-153.349-69.391-116.024 0-210.092 98.384-210.092 219.727 0 17.224 1.86 33.993 5.44 50.079-174.6-9.166-329.4-96.643-433.020-229.584-18.080 32.453-28.44 70.203-28.44 110.466 0 76.235 37.092 143.488 93.46 182.894-33.362-1.093-65.99-10.518-95.16-27.487-0.012 0.921-0.012 1.841-0.012 2.765 0 106.462 72.416 195.274 168.52 215.458-30.937 8.801-63.387 10.092-94.872 3.768 26.732 87.296 104.32 150.82 196.248 152.602-71.9 58.931-162.488 94.060-260.912 94.060-16.96 0-33.68-1.039-50.116-3.072 92.972 62.346 203.4 98.724 322.040 98.724 386.43 0 597.737-334.822 597.737-625.19 0-9.53-0.2-19.006-0.609-28.428 41.129-31.098 76.631-69.616 104.832-113.746z"></path>
</svg>
