<!-- Generated by IcoMoon.io -->
<svg version="1.1" xmlns="http://www.w3.org/2000/svg" width="1024" height="1024" viewBox="0 0 1024 1024">
<title></title>
<g id="icomoon-ignore">
</g>
<path fill="#000" d="M511.998 125.285c-140.055 0-253.591 113.537-253.591 253.591s113.537 253.591 253.591 253.591c140.054 0 253.591-113.537 253.591-253.591s-113.538-253.591-253.591-253.591zM156.971 378.877c0-196.076 158.951-355.027 355.027-355.027s355.027 158.951 355.027 355.027c0 196.077-158.95 355.027-355.027 355.027s-355.027-158.95-355.027-355.027z"></path>
<path fill="#000" d="M512.003 733.904c-84.587 0-167.684 22.26-240.944 64.539-73.26 42.284-134.103 103.1-176.417 176.342-14.013 24.253-45.034 32.557-69.287 18.543s-32.557-45.033-18.544-69.286c51.219-88.655 124.866-162.273 213.544-213.452s189.261-78.121 291.649-78.121c102.384 0 202.969 26.947 291.645 78.127 88.681 51.185 162.324 124.802 213.544 213.458 14.009 24.253 5.705 55.272-18.548 69.286s-55.278 5.711-69.286-18.548c-42.314-73.242-103.156-134.058-176.413-176.342-73.263-42.284-156.359-64.544-240.942-64.544z"></path>
</svg>
