<svg width="31" height="18" viewBox="0 0 31 18" fill="none" xmlns="http://www.w3.org/2000/svg">
<path fill-rule="evenodd" clip-rule="evenodd" d="M9 2C6.79086 2 5 3.79086 5 6C5 8.20914 6.79086 10 9 10C11.2091 10 13 8.20914 13 6C13 3.79086 11.2091 2 9 2ZM3 6C3 2.68629 5.68629 0 9 0C12.3137 0 15 2.68629 15 6C15 9.31371 12.3137 12 9 12C5.68629 12 3 9.31371 3 6Z" fill="#1B1B1B"/>
<path fill-rule="evenodd" clip-rule="evenodd" d="M17 3C17 2.44772 17.4477 2 18 2H30C30.5523 2 31 2.44772 31 3C31 3.55228 30.5523 4 30 4H18C17.4477 4 17 3.55228 17 3Z" fill="#1B1B1B"/>
<path fill-rule="evenodd" clip-rule="evenodd" d="M17 9C17 8.44772 17.4477 8 18 8H30C30.5523 8 31 8.44772 31 9C31 9.55228 30.5523 10 30 10H18C17.4477 10 17 9.55228 17 9Z" fill="#1B1B1B"/>
<path fill-rule="evenodd" clip-rule="evenodd" d="M20 15C20 14.4477 20.4477 14 21 14H30C30.5523 14 31 14.4477 31 15C31 15.5523 30.5523 16 30 16H21C20.4477 16 20 15.5523 20 15Z" fill="#1B1B1B"/>
<path fill-rule="evenodd" clip-rule="evenodd" d="M9.00211 12C7.44997 12 5.94181 12.5157 4.71462 13.466C3.48742 14.4164 2.61074 15.7475 2.22233 17.2502C2.08413 17.785 1.53862 18.1064 1.00391 17.9682C0.469194 17.83 0.14776 17.2845 0.285965 16.7498C0.78531 14.8178 1.91238 13.1065 3.49007 11.8847C5.06776 10.663 7.00666 10 9.00211 10C10.9976 10 12.9365 10.663 14.5142 11.8847C16.0918 13.1065 17.2189 14.8178 17.7183 16.7498C17.8565 17.2845 17.535 17.83 17.0003 17.9682C16.4656 18.1064 15.9201 17.785 15.7819 17.2502C15.3935 15.7475 14.5168 14.4164 13.2896 13.466C12.0624 12.5157 10.5543 12 9.00211 12Z" fill="#1B1B1B"/>
</svg>
