<!-- Generated by IcoMoon.io -->
<svg version="1.1" xmlns="http://www.w3.org/2000/svg" width="1024" height="1024" viewBox="0 0 1024 1024">
<title></title>
<g id="icomoon-ignore">
</g>
<path fill="#000" d="M888.007 99.713c-25.397-23.397-128.184-97.988-357.357-98.988 0 0-270.166-16.198-401.75 104.587-73.191 73.191-98.988 180.577-101.787 313.561-2.8 132.981-6.199 382.15 233.971 449.742h0.2l-0.2 103.191c0 0-1.6 41.795 25.997 50.19 33.196 10.403 52.793-21.393 84.589-55.591 17.398-18.799 41.395-46.397 59.593-67.392 164.378 13.796 290.565-17.8 304.961-22.397 33.199-10.797 220.972-34.797 251.371-283.965 31.597-257.167-15.199-419.547-99.587-492.937v0zM915.8 573.851c-25.797 207.974-177.975 221.171-205.972 230.171-11.999 3.799-122.983 31.397-262.367 22.397 0 0-103.987 125.383-136.383 157.983-10.599 10.597-22.197 9.599-21.997-11.401 0-13.796 0.8-171.381 0.8-171.381-0.2 0-0.2 0 0 0-203.575-56.39-191.576-268.561-189.376-379.55 2.2-110.986 23.197-201.975 85.189-263.167 111.386-100.987 340.759-85.989 340.759-85.989 193.773 0.8 286.561 59.193 308.159 78.79 71.389 61.192 107.789 207.574 81.188 422.145v0zM637.839 412.273c0.799 17.198-24.998 18.398-25.802 1.2-2.196-43.994-22.796-65.392-65.19-67.792-17.196-1-15.599-26.797 1.403-25.797 55.791 3 86.788 34.996 89.589 92.388zM678.431 434.871c2.002-84.789-50.994-151.181-151.579-158.58-16.999-1.2-15.199-26.997 1.797-25.797 115.989 8.399 177.78 88.189 175.579 184.977-0.2 17.198-26.196 16.398-25.797-0.6v0zM772.422 461.666c0.2 17.198-25.797 17.398-25.797 0.2-1.203-162.98-109.79-251.769-241.573-252.768-16.998-0.2-16.998-25.797 0-25.797 147.382 1 265.966 102.787 267.369 278.365v0zM749.825 657.845v0.399c-21.598 37.996-61.995 79.99-103.59 66.588l-0.399-0.599c-42.194-11.795-141.582-62.988-204.374-112.984-32.396-25.597-61.992-55.791-84.789-84.792-20.597-25.795-41.395-56.39-61.592-93.185-42.595-76.99-51.993-111.386-51.993-111.386-13.398-41.595 28.396-81.99 66.592-103.587h0.4c18.398-9.599 35.995-6.399 47.794 7.799 0 0 24.797 29.596 35.396 44.194 9.999 13.598 23.397 35.396 30.396 47.594 12.198 21.797 4.599 43.994-7.399 53.193l-23.997 19.198c-12.198 9.799-10.599 27.996-10.599 27.996s35.596 134.584 168.579 168.577c0 0 18.2 1.603 27.997-10.597l19.198-23.994c9.2-11.999 31.397-19.602 53.19-7.403 29.4 16.597 66.793 42.394 91.591 65.794 14.001 11.396 17.201 28.796 7.602 47.195z"></path>
</svg>
