<!-- Generated by IcoMoon.io -->
<svg version="1.1" xmlns="http://www.w3.org/2000/svg" width="1024" height="1024" viewBox="0 0 1024 1024">
<title></title>
<g id="icomoon-ignore">
</g>
<path fill="#000" d="M424.096 852.488c-195.018-3.409-261.625-6.477-302.566-14.481-27.699-5.321-51.77-17.135-69.419-34.266-13.641-12.966-24.489-32.751-32.905-60.198-7.219-22.865-10.031-41.89-14.040-88.363-6.136-104.885-7.599-190.637 0-286.45 6.269-52.911 9.309-115.723 50.953-152.367 19.663-17.15 42.537-28.187 68.222-32.749 40.124-7.232 211.071-12.948 388.040-12.948 176.567 0 347.896 5.717 388.059 12.948 32.085 5.717 62.178 22.849 79.846 44.94 37.999 56.734 38.665 127.282 42.517 182.467 1.596 26.293 1.596 175.595 0 201.887-6.003 87.215-10.829 118.067-24.469 150.063-8.435 20.194-15.633 30.852-28.096 42.667-19.546 18.176-44.463 30.268-71.433 34.658-168.764 12.049-312.065 14.665-474.71 12.194zM682.528 502.053c-93.888-47.627-183.788-91.792-275.683-137.507v273.499c96.7-49.897 198.644-95.613 276.084-136.369l-0.401 0.379z"></path>
</svg>
