<svg width="275" height="100" viewBox="0 0 275 100" fill="none" xmlns="http://www.w3.org/2000/svg">
<g clip-path="url(#clip0_1818_7312)">
<path fill-rule="evenodd" clip-rule="evenodd" d="M56.8511 55.5907C56.8511 55.0188 56.4913 54.6021 56.0557 54.1535L51.8771 49.8527L55.2835 46.5446C55.8965 45.9409 56.208 45.541 56.208 45.0348C56.208 44.1764 55.4579 43.6443 54.7643 43.6443C54.344 43.6443 53.9639 43.8253 53.6353 44.1784L49.2742 48.7626V45.0716C49.2742 44.2192 48.6834 43.6443 47.8073 43.6443C46.9595 43.6443 46.3436 44.245 46.3436 45.0716V55.536C46.3436 56.3546 46.9464 56.9265 47.8073 56.9265C48.6431 56.9265 49.2742 56.3297 49.2742 55.536V51.1408L53.8732 56.0472C54.3742 56.5784 54.7492 56.9265 55.3319 56.9265C56.089 56.9265 56.8511 56.5127 56.8511 55.5907ZM60.2596 56.8181H64.8485C65.7044 56.8181 66.2387 56.1686 66.2569 55.541C66.2689 55.3617 66.2436 55.1818 66.1826 55.0125C66.1216 54.8431 66.0261 54.6879 65.902 54.5563C65.6459 54.2878 65.282 54.1455 64.8485 54.1455H61.6699V45.1432C61.6699 44.2341 61.0953 43.6443 60.2041 43.6443C59.315 43.6443 58.7404 44.2341 58.7404 45.1432V55.2466C58.7404 56.2163 59.323 56.8181 60.2596 56.8181ZM70.868 55.4276V45.1432C70.868 44.2341 70.2934 43.6443 69.4042 43.6443C68.513 43.6443 67.9384 44.2341 67.9384 45.1432V55.4276C67.9384 56.3387 68.513 56.9265 69.4042 56.9265C70.2934 56.9265 70.868 56.3387 70.868 55.4276ZM80.6921 43.7527H73.9407C73.0717 43.7527 72.6029 44.441 72.6029 45.0895C72.6029 45.7539 73.0163 46.4253 73.9407 46.4253H75.8521V55.4276C75.8521 56.3387 76.4277 56.9265 77.3159 56.9265C78.205 56.9265 78.7797 56.3387 78.7797 55.4276V46.4253H80.6921C81.6165 46.4253 82.0288 45.7539 82.0288 45.0895C82.0288 44.441 81.56 43.7527 80.6921 43.7527ZM87.6692 54.2539C87.0381 54.2539 86.4635 54.056 85.9091 53.863C85.4403 53.7009 84.9967 53.5478 84.5874 53.5478C83.8223 53.5478 83.2678 54.1256 83.2678 54.9203C83.2678 56.9772 87.3497 57.0359 87.8154 57.0359C90.5887 57.0359 92.6019 55.2326 92.6019 52.7481C92.6019 49.8199 90.2036 49.1326 88.4535 48.6313C87.3476 48.314 86.4736 48.0644 86.4736 47.4069C86.4736 46.659 87.2085 46.3178 87.889 46.3178C88.4767 46.3178 88.9223 46.479 89.3155 46.6222C89.6542 46.7445 89.9738 46.8599 90.3306 46.8599C91.0797 46.8599 91.6472 46.2462 91.6472 45.4336C91.6472 43.885 88.9173 43.5369 87.9626 43.5369C85.658 43.5369 83.3232 44.9781 83.3232 47.7332C83.3232 50.2506 85.4806 50.8523 87.2136 51.3357C88.4162 51.6709 89.4516 51.9603 89.4516 52.7839C89.4516 53.6771 88.7529 54.2539 87.6692 54.2539V54.2539ZM104.908 54.8119C104.908 54.3385 104.472 53.494 103.609 53.494C103.279 53.494 102.98 53.6273 102.636 53.7825C102.165 53.9924 101.577 54.2539 100.688 54.2539C98.3683 54.2539 97.328 52.2886 97.328 50.3391C97.328 48.3379 98.3683 46.3178 100.688 46.3178C101.58 46.3178 102.13 46.5367 102.57 46.7107C102.892 46.84 103.17 46.9514 103.497 46.9514C104.196 46.9514 104.722 46.3914 104.722 45.6514C104.722 43.9775 102.084 43.5369 100.688 43.5369C96.9812 43.5369 94.2885 46.3745 94.2885 50.2854C94.2885 54.1972 96.9812 57.0359 100.688 57.0359C102.256 57.0359 104.908 56.5664 104.908 54.8119ZM110.063 51.5675H115.65V55.4276C115.65 56.3387 116.225 56.9265 117.114 56.9265C118.003 56.9265 118.578 56.3387 118.578 55.4276V45.1432C118.578 44.2341 118.003 43.6443 117.114 43.6443C116.225 43.6443 115.65 44.2341 115.65 45.1432V48.8949H110.063V45.1432C110.063 44.2341 109.489 43.6443 108.6 43.6443C107.712 43.6443 107.136 44.2341 107.136 45.1432V55.4276C107.136 56.3387 107.712 56.9265 108.6 56.9265C109.489 56.9265 110.063 56.3387 110.063 55.4276V51.5675ZM127.061 49.8527L130.468 46.5446C131.081 45.9409 131.392 45.541 131.392 45.0348C131.392 44.1764 130.643 43.6443 129.947 43.6443C129.526 43.6443 129.146 43.8253 128.817 44.1784L124.456 48.7626V45.0716C124.456 44.2192 123.869 43.6443 122.993 43.6443C122.144 43.6443 121.526 44.245 121.526 45.0716V55.536C121.526 56.3546 122.129 56.9265 122.993 56.9265C123.825 56.9265 124.456 56.3297 124.456 55.536V51.1408L129.055 56.0472C129.558 56.5784 129.931 56.9265 130.516 56.9265C131.271 56.9265 132.035 56.5127 132.035 55.5907C132.035 55.0188 131.673 54.6021 131.238 54.1535L127.061 49.8527V49.8527ZM139.329 57.0359C143.037 57.0359 145.729 54.1972 145.729 50.2854C145.729 46.4372 142.976 43.5369 139.329 43.5369C135.619 43.5369 132.928 46.3745 132.928 50.2854C132.928 54.1972 135.619 57.0359 139.329 57.0359ZM139.329 46.2094C141.649 46.2094 142.69 48.2564 142.69 50.2854C142.69 52.1672 141.809 54.3623 139.329 54.3623C136.847 54.3623 135.966 52.1672 135.966 50.2854C135.966 48.2564 137.007 46.2094 139.329 46.2094V46.2094ZM161.089 43.8064H156.391C155.393 43.8064 154.871 44.5613 154.871 45.3073V55.4813C154.871 56.3924 155.447 56.9802 156.335 56.9802C157.227 56.9802 157.802 56.3924 157.802 55.4813V51.6222H160.557C161.525 51.6222 161.965 50.919 161.965 50.2665C161.965 49.612 161.481 48.9486 160.557 48.9486H157.802V46.48H161.089C161.955 46.48 162.406 45.8066 162.406 45.1432C162.406 44.4798 161.955 43.8064 161.089 43.8064V43.8064ZM170.155 43.5906C166.445 43.5906 163.756 46.4292 163.756 50.3401C163.756 54.251 166.445 57.0886 170.155 57.0886C173.863 57.0886 176.555 54.251 176.555 50.3401C176.555 46.4909 173.805 43.5906 170.155 43.5906V43.5906ZM170.155 54.4171C167.673 54.4171 166.794 52.2209 166.794 50.3401C166.794 48.3101 167.833 46.2631 170.155 46.2631C172.478 46.2631 173.516 48.3101 173.516 50.3401C173.516 52.2209 172.637 54.4171 170.155 54.4171ZM188.212 43.698C187.32 43.698 186.746 44.2878 186.746 45.1979V51.5157C186.746 53.1429 185.553 54.4171 184.028 54.4171C182.415 54.4171 181.291 53.2235 181.291 51.5157V45.1979C181.291 44.2878 180.715 43.698 179.824 43.698C178.936 43.698 178.36 44.2878 178.36 45.1979V51.661C178.36 54.7045 180.849 57.0886 184.028 57.0886C187.193 57.0886 189.675 54.7045 189.675 51.661V45.1979C189.675 44.2878 189.101 43.698 188.212 43.698V43.698ZM201.935 43.698C201.047 43.698 200.472 44.2878 200.472 45.1979V51.828L194.778 44.3326C194.512 43.9705 193.909 43.698 193.551 43.698C192.661 43.698 192.087 44.2878 192.087 45.1979V55.4813C192.087 56.3924 192.661 56.9802 193.551 56.9802C194.439 56.9802 195.014 56.3924 195.014 55.4813V48.9387L200.71 56.3496C200.975 56.6858 201.548 56.9802 201.935 56.9802C202.827 56.9802 203.402 56.3924 203.402 55.4813V45.1979C203.402 44.2878 202.827 43.698 201.935 43.698V43.698ZM210.84 43.8064H207.793C206.909 43.8064 206.291 44.4161 206.291 45.2884V55.4266C206.291 56.5674 207.259 56.8718 207.831 56.8718H211.022C214.889 56.8718 217.386 54.3793 217.386 50.5201C217.386 46.3805 214.879 43.8064 210.84 43.8064V43.8064ZM210.987 54.1992H209.222V46.48H210.804C213.886 46.48 214.347 48.9307 214.347 50.3938C214.347 52.7769 213.091 54.1992 210.987 54.1992ZM226.429 45.1511C226.08 44.1734 225.315 43.5906 224.384 43.5906C223.481 43.5906 222.697 44.1873 222.337 45.1492L218.645 55.0049C218.607 55.1014 218.515 55.3291 218.515 55.6265C218.515 56.3735 219.164 56.9802 219.962 56.9802C220.671 56.9802 221.145 56.6371 221.367 55.9607L221.897 54.3365H226.871L227.402 55.9786C227.625 56.644 228.104 56.9802 228.825 56.9802C229.583 56.9802 230.177 56.4172 230.177 55.6991C230.177 55.5599 230.14 55.2943 230.026 54.9989L226.429 45.1511V45.1511ZM222.743 51.6649L224.384 46.7276L225.987 51.6649H222.743ZM238.074 43.8064H231.32C230.454 43.8064 229.986 44.4947 229.986 45.1432C229.986 45.8076 230.398 46.48 231.32 46.48H233.232V55.4813C233.232 56.3924 233.807 56.9802 234.699 56.9802C235.587 56.9802 236.162 56.3924 236.162 55.4813V46.48H238.074C238.996 46.48 239.412 45.8076 239.412 45.1432C239.412 44.4947 238.943 43.8064 238.074 43.8064ZM242.62 43.698C241.728 43.698 241.154 44.2878 241.154 45.1979V55.4813C241.154 56.3924 241.728 56.9802 242.62 56.9802C243.509 56.9802 244.083 56.3924 244.083 55.4813V45.1979C244.083 44.2878 243.509 43.698 242.62 43.698V43.698ZM252.436 43.5906C248.726 43.5906 246.036 46.4292 246.036 50.3401C246.036 54.251 248.726 57.0886 252.436 57.0886C256.143 57.0886 258.836 54.251 258.836 50.3401C258.836 46.4909 256.085 43.5906 252.436 43.5906ZM252.436 54.4171C249.955 54.4171 249.075 52.2209 249.075 50.3401C249.075 48.3101 250.114 46.2631 252.436 46.2631C254.758 46.2631 255.797 48.3101 255.797 50.3401C255.797 52.2209 254.918 54.4171 252.436 54.4171ZM270.622 43.698C269.731 43.698 269.155 44.2878 269.155 45.1979V51.828L263.462 44.3326C263.196 43.9705 262.593 43.698 262.234 43.698C261.345 43.698 260.771 44.2878 260.771 45.1979V55.4813C260.771 56.3924 261.345 56.9802 262.234 56.9802C263.123 56.9802 263.698 56.3924 263.698 55.4813V48.9387L269.393 56.3496C269.659 56.6858 270.232 56.9802 270.622 56.9802C271.511 56.9802 272.086 56.3924 272.086 55.4813V45.1979C272.086 44.2878 271.511 43.698 270.622 43.698V43.698Z" fill="#D8D8D8"/>
<path fill-rule="evenodd" clip-rule="evenodd" d="M19.0478 35.3232C10.6966 35.3232 3.92712 42.0031 3.92712 50.2436C3.92712 58.4831 10.6966 65.162 19.0478 65.162C27.4001 65.162 34.1706 58.4831 34.1706 50.2436C34.1706 42.0031 27.4001 35.3232 19.0478 35.3232V35.3232ZM18.448 42.208C19.2333 42.208 19.8745 42.8396 19.8745 43.6144C19.8747 43.8928 19.7912 44.165 19.6346 44.3966C19.478 44.6282 19.2552 44.8087 18.9946 44.9154C18.734 45.0221 18.4471 45.0501 18.1703 44.9959C17.8936 44.9417 17.6393 44.8077 17.4397 44.611C17.2401 44.4142 17.1041 44.1634 17.049 43.8904C16.9939 43.6173 17.0221 43.3343 17.13 43.0771C17.238 42.8198 17.4208 42.6 17.6554 42.4453C17.89 42.2906 18.1658 42.208 18.448 42.208V42.208ZM25.3153 57.2666L23.8152 58.7059C23.7971 58.7238 23.7759 58.7397 23.7547 58.7556C23.7137 58.7911 23.6679 58.8209 23.6186 58.8441L23.542 58.8829C23.5125 58.8941 23.4822 58.9031 23.4513 58.9098C23.418 58.9197 23.3999 58.9257 23.3817 58.9287C23.2762 58.9485 23.1677 58.9485 23.0622 58.9287L23.0067 58.9137C22.9745 58.9048 22.9382 58.8958 22.9029 58.8819L22.8474 58.8541C22.8142 58.8382 22.7819 58.8206 22.7506 58.8013L22.6982 58.7596C22.6733 58.7413 22.6494 58.7217 22.6267 58.7009L16.4066 52.5919V59.8686H17.6496C17.8676 59.8791 18.0731 59.9719 18.2236 60.1278C18.3741 60.2837 18.458 60.4907 18.458 60.706C18.458 60.9213 18.3741 61.1284 18.2236 61.2843C18.0731 61.4402 17.8676 61.533 17.6496 61.5435H15.5577C15.3327 61.5435 15.1169 61.4555 14.9575 61.2986C14.7982 61.1418 14.7084 60.9291 14.7079 60.707V41.6958C14.2885 41.4173 14.0325 40.9498 14.0325 40.4456C14.0325 39.617 14.717 38.9417 15.5577 38.9417C15.8842 38.9427 16.2017 39.047 16.4636 39.2392C16.7256 39.4313 16.9182 39.7013 17.0131 40.0094C17.1081 40.3176 17.1004 40.6476 16.9913 40.9511C16.8821 41.2547 16.6772 41.5157 16.4066 41.6958V48.5547L21.7284 43.3031C21.6853 43.0852 21.6916 42.8606 21.7467 42.6454C21.8019 42.4302 21.9046 42.2296 22.0474 42.0581C22.1902 41.8865 22.3697 41.7483 22.573 41.6532C22.7763 41.558 22.9984 41.5084 23.2235 41.5078C23.6184 41.522 23.9924 41.6867 24.2667 41.9674C24.541 42.2481 24.6943 42.6228 24.6943 43.0127C24.6943 43.4026 24.541 43.7773 24.2667 44.058C23.9924 44.3386 23.6184 44.5034 23.2235 44.5175C23.1247 44.5175 23.0269 44.5076 22.9281 44.4887L16.7594 50.5748L23.2305 56.9305L24.1318 56.0651C24.2956 55.9153 24.5116 55.8334 24.735 55.8365C24.9584 55.8397 25.172 55.9276 25.3314 56.082C25.4883 56.2413 25.5747 56.4555 25.5717 56.6776C25.5687 56.8997 25.4765 57.1116 25.3153 57.2666V57.2666Z" fill="#D8D8D8"/>
</g>
<defs>
<clipPath id="clip0_1818_7312">
<rect width="269.167" height="30.8333" fill="white" transform="translate(3.33331 35)"/>
</clipPath>
</defs>
</svg>
